SplineFontDB: 3.2
FontName: bengali8
FullName: bengali8
FamilyName: bengali8
Weight: Book
Copyright: Copyright 2019 The Baloo 2 Project Authors (https://github.com/EkType/Baloo2)
Version: 1.000
ItalicAngle: 0
UnderlinePosition: -100
UnderlineWidth: 50
Ascent: 800
Descent: 200
InvalidEm: 0
sfntRevision: 0x0001a3d7
LayerCount: 2
Layer: 0 1 "Back" 1
Layer: 1 1 "Fore" 0
XUID: [1021 467 -1121320856 11283087]
StyleMap: 0x0040
FSType: 0
OS2Version: 3
OS2_WeightWidthSlopeOnly: 0
OS2_UseTypoMetrics: 0
CreationTime: 1578765343
ModificationTime: 1640414589
PfmFamily: 65
TTFWeight: 400
TTFWidth: 5
LineGap: 0
VLineGap: 0
Panose: 3 8 5 2 4 3 2 2 2 0
OS2TypoAscent: 1095
OS2TypoAOffset: 0
OS2TypoDescent: -589
OS2TypoDOffset: 0
OS2TypoLinegap: 0
OS2WinAscent: 1095
OS2WinAOffset: 0
OS2WinDescent: 589
OS2WinDOffset: 0
HheadAscent: 1095
HheadAOffset: 0
HheadDescent: -589
HheadDOffset: 0
OS2SubXSize: 650
OS2SubYSize: 600
OS2SubXOff: 0
OS2SubYOff: 75
OS2SupXSize: 650
OS2SupYSize: 600
OS2SupXOff: 0
OS2SupYOff: 350
OS2StrikeYSize: 50
OS2StrikeYPos: 277
OS2CapHeight: 608
OS2XHeight: 462
OS2Vendor: 'EKTF'
OS2CodePages: 20000193.00000000
OS2UnicodeRanges: a001007f.4000207b.00000000.00000000
Lookup: 1 0 0 "'aalt' Access All Alternates lookup 0" { "'aalt' Access All Alternates lookup 0 subtable"  } ['aalt' ('DFLT' <'dflt' > 'beng' <'dflt' > 'bng2' <'dflt' > 'latn' <'AZE ' 'CAT ' 'CRT ' 'KAZ ' 'MOL ' 'NLD ' 'ROM ' 'TAT ' 'TRK ' 'dflt' > ) ]
Lookup: 3 0 0 "'aalt' Access All Alternates lookup 1" { "'aalt' Access All Alternates lookup 1 subtable"  } ['aalt' ('DFLT' <'dflt' > 'beng' <'dflt' > 'bng2' <'dflt' > 'latn' <'AZE ' 'CAT ' 'CRT ' 'KAZ ' 'MOL ' 'NLD ' 'ROM ' 'TAT ' 'TRK ' 'dflt' > ) ]

StartChar: exclam
Encoding: 33 33 3
Width: 250
GlyphClass: 2
Flags: W
LayerCount: 2
Fore
SplineSet
164 582 m 0,0,1
 164 552 164 552 163.5 503 c 128,-1,2
 163 454 163 454 161.5 398.5 c 128,-1,3
 160 343 160 343 158 287 c 128,-1,4
 156 231 156 231 154 187 c 1,5,6
 141 177 141 177 121 177 c 0,7,8
 107 177 107 177 98 183 c 128,-1,9
 89 189 89 189 88 202 c 0,10,11
 86 231 86 231 84 283 c 128,-1,12
 82 335 82 335 81 394 c 128,-1,13
 80 453 80 453 79.5 511.5 c 128,-1,14
 79 570 79 570 79 612 c 1,15,16
 100 625 100 625 124 625 c 0,17,18
 164 625 164 625 164 582 c 0,0,1
66 45 m 256,19,20
 66 69 66 69 81 85 c 128,-1,21
 96 101 96 101 122 101 c 256,22,23
 148 101 148 101 163 85 c 128,-1,24
 178 69 178 69 178 45 c 256,25,26
 178 21 178 21 163 5 c 128,-1,27
 148 -11 148 -11 122 -11 c 256,28,29
 96 -11 96 -11 81 5 c 128,-1,30
 66 21 66 21 66 45 c 256,19,20
EndSplineSet
EndChar

StartChar: quotedbl
Encoding: 34 34 4
Width: 270
GlyphClass: 2
Flags: W
LayerCount: 2
Fore
SplineSet
101 418 m 1,0,1
 87 412 87 412 70 412 c 0,2,3
 38 412 38 412 37 441 c 2,4,-1
 31 615 l 1,5,6
 49 625 49 625 70 625 c 0,7,8
 107 625 107 625 107 586 c 0,9,10
 107 573 107 573 106.5 552 c 128,-1,11
 106 531 106 531 105 507 c 128,-1,12
 104 483 104 483 103 459.5 c 128,-1,13
 102 436 102 436 101 418 c 1,0,1
234 418 m 1,14,15
 219 412 219 412 202 412 c 0,16,17
 171 412 171 412 170 441 c 2,18,-1
 163 615 l 1,19,20
 172 620 172 620 181.5 622.5 c 128,-1,21
 191 625 191 625 203 625 c 0,22,23
 239 625 239 625 239 585 c 0,24,25
 239 573 239 573 238.5 552 c 128,-1,26
 238 531 238 531 237 507 c 128,-1,27
 236 483 236 483 235.5 459.5 c 128,-1,28
 235 436 235 436 234 418 c 1,14,15
EndSplineSet
EndChar

StartChar: numbersign
Encoding: 35 35 5
Width: 667
GlyphClass: 2
Flags: W
LayerCount: 2
Fore
SplineSet
494 396 m 1,0,-1
 458 224 l 1,1,-1
 594 224 l 1,2,3
 596 218 596 218 598 210.5 c 128,-1,4
 600 203 600 203 600 194 c 0,5,6
 600 162 600 162 566 162 c 2,7,-1
 445 162 l 1,8,-1
 411 -3 l 1,9,10
 406 -4 406 -4 399.5 -4.5 c 128,-1,11
 393 -5 393 -5 386 -5 c 0,12,13
 370 -5 370 -5 360.5 2.5 c 128,-1,14
 351 10 351 10 351 27 c 0,15,16
 351 37 351 37 354 51.5 c 128,-1,17
 357 66 357 66 359 76 c 2,18,-1
 377 162 l 1,19,-1
 229 162 l 1,20,-1
 195 -3 l 1,21,22
 190 -4 190 -4 183.5 -4.5 c 128,-1,23
 177 -5 177 -5 170 -5 c 0,24,25
 154 -5 154 -5 144.5 2.5 c 128,-1,26
 135 10 135 10 135 27 c 0,27,28
 135 37 135 37 138 51.5 c 128,-1,29
 141 66 141 66 144 76 c 2,30,-1
 162 162 l 1,31,-1
 49 162 l 1,32,33
 47 168 47 168 45 175.5 c 128,-1,34
 43 183 43 183 43 191 c 0,35,36
 43 224 43 224 76 224 c 2,37,-1
 175 224 l 1,38,-1
 211 396 l 1,39,-1
 79 396 l 1,40,41
 77 402 77 402 74.5 409 c 128,-1,42
 72 416 72 416 72 425 c 0,43,44
 72 458 72 458 106 458 c 2,45,-1
 224 458 l 1,46,-1
 256 611 l 1,47,48
 261 612 261 612 268 612.5 c 128,-1,49
 275 613 275 613 281 613 c 0,50,51
 297 613 297 613 306.5 605.5 c 128,-1,52
 316 598 316 598 316 581 c 0,53,54
 316 571 316 571 312.5 557 c 128,-1,55
 309 543 309 543 307 532 c 2,56,-1
 291 458 l 1,57,-1
 439 458 l 1,58,-1
 472 611 l 1,59,60
 477 612 477 612 484 612.5 c 128,-1,61
 491 613 491 613 497 613 c 0,62,63
 513 613 513 613 522.5 605.5 c 128,-1,64
 532 598 532 598 532 581 c 0,65,66
 532 571 532 571 528.5 557 c 128,-1,67
 525 543 525 543 523 532 c 2,68,-1
 507 458 l 1,69,-1
 624 458 l 1,70,71
 626 452 626 452 628 444.5 c 128,-1,72
 630 437 630 437 630 428 c 0,73,74
 630 396 630 396 596 396 c 2,75,-1
 494 396 l 1,0,-1
242 224 m 1,76,-1
 390 224 l 1,77,-1
 426 396 l 1,78,-1
 278 396 l 1,79,-1
 242 224 l 1,76,-1
EndSplineSet
EndChar

StartChar: dollar
Encoding: 36 36 6
Width: 522
GlyphClass: 2
Flags: W
LayerCount: 2
Fore
SplineSet
257 55 m 0,0,1
 324 55 324 55 358.5 85.5 c 128,-1,2
 393 116 393 116 393 164 c 0,3,4
 393 206 393 206 366.5 232 c 128,-1,5
 340 258 340 258 283 275 c 2,6,-1
 196 301 l 2,7,8
 132 320 132 320 95.5 357 c 128,-1,9
 59 394 59 394 59 457 c 0,10,11
 59 524 59 524 102.5 566 c 128,-1,12
 146 608 146 608 221 618 c 1,13,-1
 221 697 l 1,14,15
 226 699 226 699 234.5 700.5 c 128,-1,16
 243 702 243 702 254 702 c 0,17,18
 294 702 294 702 294 669 c 2,19,-1
 294 620 l 1,20,21
 328 617 328 617 357 609.5 c 128,-1,22
 386 602 386 602 407 591.5 c 128,-1,23
 428 581 428 581 440 568 c 128,-1,24
 452 555 452 555 452 542 c 0,25,26
 452 528 452 528 445 518 c 128,-1,27
 438 508 438 508 427 502 c 1,28,29
 401 522 401 522 359.5 537 c 128,-1,30
 318 552 318 552 267 552 c 0,31,32
 208 552 208 552 174.5 527 c 128,-1,33
 141 502 141 502 141 457 c 0,34,35
 141 422 141 422 165 400 c 128,-1,36
 189 378 189 378 245 362 c 2,37,-1
 306 344 l 2,38,39
 385 321 385 321 430.5 279.5 c 128,-1,40
 476 238 476 238 476 164 c 0,41,42
 476 92 476 92 429 44.5 c 128,-1,43
 382 -3 382 -3 294 -11 c 1,44,-1
 294 -89 l 1,45,46
 289 -91 289 -91 281 -92.5 c 128,-1,47
 273 -94 273 -94 262 -94 c 0,48,49
 221 -94 221 -94 221 -61 c 2,50,-1
 221 -11 l 1,51,52
 183 -8 183 -8 152 0.5 c 128,-1,53
 121 9 121 9 99 21 c 128,-1,54
 77 33 77 33 65.5 47 c 128,-1,55
 54 61 54 61 54 75 c 0,56,57
 54 92 54 92 64.5 103.5 c 128,-1,58
 75 115 75 115 89 120 c 1,59,60
 100 109 100 109 116 97.5 c 128,-1,61
 132 86 132 86 153 76.5 c 128,-1,62
 174 67 174 67 200 61 c 128,-1,63
 226 55 226 55 257 55 c 0,0,1
EndSplineSet
EndChar

StartChar: percent
Encoding: 37 37 7
Width: 772
GlyphClass: 2
Flags: W
LayerCount: 2
Fore
SplineSet
335 474 m 256,0,1
 335 441 335 441 324 415 c 128,-1,2
 313 389 313 389 294 370.5 c 128,-1,3
 275 352 275 352 249 342 c 128,-1,4
 223 332 223 332 194 332 c 0,5,6
 164 332 164 332 138.5 342 c 128,-1,7
 113 352 113 352 94 370.5 c 128,-1,8
 75 389 75 389 64 415 c 128,-1,9
 53 441 53 441 53 474 c 256,10,11
 53 507 53 507 64 533 c 128,-1,12
 75 559 75 559 94 577.5 c 128,-1,13
 113 596 113 596 138.5 606 c 128,-1,14
 164 616 164 616 194 616 c 0,15,16
 223 616 223 616 249 606 c 128,-1,17
 275 596 275 596 294 577.5 c 128,-1,18
 313 559 313 559 324 533 c 128,-1,19
 335 507 335 507 335 474 c 256,0,1
124 474 m 256,20,21
 124 435 124 435 143.5 413.5 c 128,-1,22
 163 392 163 392 194 392 c 256,23,24
 225 392 225 392 244.5 413.5 c 128,-1,25
 264 435 264 435 264 474 c 256,26,27
 264 513 264 513 244.5 534.5 c 128,-1,28
 225 556 225 556 194 556 c 256,29,30
 163 556 163 556 143.5 534.5 c 128,-1,31
 124 513 124 513 124 474 c 256,20,21
554 616 m 1,32,33
 577 613 577 613 590.5 604.5 c 128,-1,34
 604 596 604 596 604 582 c 0,35,36
 604 572 604 572 600 562.5 c 128,-1,37
 596 553 596 553 588 542 c 2,38,-1
 221 -7 l 1,39,40
 199 -5 199 -5 185 4.5 c 128,-1,41
 171 14 171 14 171 28 c 256,42,43
 171 42 171 42 186 65 c 2,44,-1
 554 616 l 1,32,33
719 135 m 0,45,46
 719 102 719 102 708 75.5 c 128,-1,47
 697 49 697 49 678 30.5 c 128,-1,48
 659 12 659 12 633.5 2 c 128,-1,49
 608 -8 608 -8 578 -8 c 0,50,51
 549 -8 549 -8 523 2 c 128,-1,52
 497 12 497 12 478 30.5 c 128,-1,53
 459 49 459 49 448 75.5 c 128,-1,54
 437 102 437 102 437 135 c 0,55,56
 437 167 437 167 448 193 c 128,-1,57
 459 219 459 219 478 237.5 c 128,-1,58
 497 256 497 256 523 266 c 128,-1,59
 549 276 549 276 578 276 c 0,60,61
 608 276 608 276 633.5 266 c 128,-1,62
 659 256 659 256 678 237.5 c 128,-1,63
 697 219 697 219 708 193 c 128,-1,64
 719 167 719 167 719 135 c 0,45,46
508 135 m 0,65,66
 508 95 508 95 527.5 73.5 c 128,-1,67
 547 52 547 52 578 52 c 256,68,69
 609 52 609 52 628.5 73.5 c 128,-1,70
 648 95 648 95 648 135 c 0,71,72
 648 173 648 173 628.5 194.5 c 128,-1,73
 609 216 609 216 578 216 c 256,74,75
 547 216 547 216 527.5 194.5 c 128,-1,76
 508 173 508 173 508 135 c 0,65,66
EndSplineSet
EndChar

StartChar: ampersand
Encoding: 38 38 8
Width: 637
GlyphClass: 2
Flags: W
LayerCount: 2
Fore
SplineSet
565 -14 m 0,0,1
 554 -14 554 -14 545 -8 c 128,-1,2
 536 -2 536 -2 525 9 c 2,3,-1
 474 62 l 1,4,5
 441 27 441 27 393 6 c 128,-1,6
 345 -15 345 -15 279 -15 c 0,7,8
 227 -15 227 -15 185 -0.5 c 128,-1,9
 143 14 143 14 113 40 c 128,-1,10
 83 66 83 66 66.5 103.5 c 128,-1,11
 50 141 50 141 50 187 c 0,12,13
 50 257 50 257 87 303.5 c 128,-1,14
 124 350 124 350 181 371 c 1,15,16
 157 399 157 399 145 426 c 128,-1,17
 133 453 133 453 133 485 c 0,18,19
 133 547 133 547 174.5 584 c 128,-1,20
 216 621 216 621 292 621 c 0,21,22
 345 621 345 621 372.5 606 c 128,-1,23
 400 591 400 591 400 568 c 0,24,25
 400 556 400 556 393.5 546.5 c 128,-1,26
 387 537 387 537 379 532 c 1,27,28
 363 541 363 541 341.5 547 c 128,-1,29
 320 553 320 553 297 553 c 0,30,31
 259 553 259 553 237 534.5 c 128,-1,32
 215 516 215 516 215 484 c 0,33,34
 215 453 215 453 231 429 c 128,-1,35
 247 405 247 405 277 374 c 2,36,-1
 465 178 l 1,37,38
 479 210 479 210 486.5 254 c 128,-1,39
 494 298 494 298 494 353 c 1,40,41
 503 357 503 357 512.5 359.5 c 128,-1,42
 522 362 522 362 531 362 c 0,43,44
 571 362 571 362 571 317 c 0,45,46
 571 266 571 266 558 214 c 128,-1,47
 545 162 545 162 521 120 c 1,48,-1
 609 29 l 1,49,50
 603 -14 603 -14 565 -14 c 0,0,1
280 53 m 0,51,52
 315 53 315 53 353 67 c 128,-1,53
 391 81 391 81 424 114 c 1,54,-1
 230 317 l 1,55,56
 211 311 211 311 193 300.5 c 128,-1,57
 175 290 175 290 161.5 273.5 c 128,-1,58
 148 257 148 257 139.5 235 c 128,-1,59
 131 213 131 213 131 186 c 0,60,61
 131 126 131 126 170.5 89.5 c 128,-1,62
 210 53 210 53 280 53 c 0,51,52
EndSplineSet
EndChar

StartChar: quotesingle
Encoding: 39 39 9
Width: 139
GlyphClass: 2
Flags: W
LayerCount: 2
Fore
SplineSet
103 418 m 1,0,1
 96 416 96 416 87.5 414 c 128,-1,2
 79 412 79 412 70 412 c 0,3,4
 39 412 39 412 37 441 c 2,5,-1
 31 615 l 1,6,7
 39 620 39 620 48.5 622.5 c 128,-1,8
 58 625 58 625 71 625 c 0,9,10
 109 625 109 625 109 585 c 0,11,12
 109 572 109 572 108.5 551 c 128,-1,13
 108 530 108 530 107 506.5 c 128,-1,14
 106 483 106 483 105 459.5 c 128,-1,15
 104 436 104 436 103 418 c 1,0,1
EndSplineSet
EndChar

StartChar: parenleft
Encoding: 40 40 10
Width: 254
GlyphClass: 2
Flags: W
LayerCount: 2
Fore
SplineSet
204 -116 m 0,0,1
 188 -116 188 -116 175 -104.5 c 128,-1,2
 162 -93 162 -93 148 -73 c 0,3,4
 103 -9 103 -9 79 76.5 c 128,-1,5
 55 162 55 162 55 274 c 256,6,7
 55 386 55 386 83 472.5 c 128,-1,8
 111 559 111 559 148 615 c 0,9,10
 174 657 174 657 204 657 c 0,11,12
 218 657 218 657 228.5 649 c 128,-1,13
 239 641 239 641 244 629 c 1,14,15
 190 560 190 560 160.5 470.5 c 128,-1,16
 131 381 131 381 131 274 c 256,17,18
 131 167 131 167 157.5 81 c 128,-1,19
 184 -5 184 -5 244 -87 c 1,20,21
 239 -99 239 -99 228.5 -107.5 c 128,-1,22
 218 -116 218 -116 204 -116 c 0,0,1
EndSplineSet
Substitution2: "'sinf' Scientific Inferiors lookup 20 subtable" parenleft.inferior
Substitution2: "'subs' Subscript lookup 19 subtable" parenleft.inferior
Substitution2: "'sups' Superscript lookup 18 subtable" parenleft.superior
AlternateSubs2: "'aalt' Access All Alternates lookup 1 subtable" parenleft.inferior parenleft.superior
EndChar

StartChar: parenright
Encoding: 41 41 11
Width: 254
GlyphClass: 2
Flags: W
LayerCount: 2
Fore
SplineSet
50 -116 m 0,0,1
 36 -116 36 -116 25.5 -107.5 c 128,-1,2
 15 -99 15 -99 10 -87 c 1,3,4
 70 -5 70 -5 96.5 81 c 128,-1,5
 123 167 123 167 123 274 c 256,6,7
 123 381 123 381 93.5 470.5 c 128,-1,8
 64 560 64 560 10 629 c 1,9,10
 15 641 15 641 25.5 649 c 128,-1,11
 36 657 36 657 50 657 c 0,12,13
 80 657 80 657 106 615 c 0,14,15
 143 559 143 559 171 472.5 c 128,-1,16
 199 386 199 386 199 274 c 256,17,18
 199 162 199 162 175 76.5 c 128,-1,19
 151 -9 151 -9 106 -73 c 0,20,21
 92 -93 92 -93 79 -104.5 c 128,-1,22
 66 -116 66 -116 50 -116 c 0,0,1
EndSplineSet
Substitution2: "'sinf' Scientific Inferiors lookup 20 subtable" parenright.inferior
Substitution2: "'subs' Subscript lookup 19 subtable" parenright.inferior
Substitution2: "'sups' Superscript lookup 18 subtable" parenright.superior
AlternateSubs2: "'aalt' Access All Alternates lookup 1 subtable" parenright.inferior parenright.superior
EndChar

StartChar: asterisk
Encoding: 42 42 12
Width: 299
GlyphClass: 2
Flags: W
LayerCount: 2
Fore
SplineSet
50 579 m 0,0,1
 55 579 55 579 60 577 c 128,-1,2
 65 575 65 575 71 573 c 2,3,-1
 124 546 l 1,4,-1
 121 640 l 1,5,6
 126 643 126 643 134 646 c 128,-1,7
 142 649 142 649 152 649 c 0,8,9
 165 649 165 649 173.5 643 c 128,-1,10
 182 637 182 637 182 623 c 0,11,12
 182 616 182 616 180 591 c 128,-1,13
 178 566 178 566 177 544 c 1,14,-1
 254 588 l 1,15,16
 263 584 263 584 271 574.5 c 128,-1,17
 279 565 279 565 279 553 c 256,18,19
 279 541 279 541 272 535 c 128,-1,20
 265 529 265 529 254 524 c 2,21,-1
 195 496 l 1,22,-1
 258 421 l 1,23,24
 256 408 256 408 245.5 399 c 128,-1,25
 235 390 235 390 223 390 c 0,26,27
 212 390 212 390 203 398.5 c 128,-1,28
 194 407 194 407 187 416 c 2,29,-1
 151 466 l 1,30,-1
 100 391 l 2,31,32
 95 390 95 390 87 390 c 0,33,34
 67 390 67 390 58 398.5 c 128,-1,35
 49 407 49 407 49 419 c 0,36,37
 49 434 49 434 61 446 c 2,38,-1
 107 498 l 1,39,-1
 23 526 l 1,40,41
 20 536 20 536 20 547 c 0,42,43
 20 561 20 561 28 570 c 128,-1,44
 36 579 36 579 50 579 c 0,0,1
EndSplineSet
EndChar

StartChar: plus
Encoding: 43 43 13
Width: 548
GlyphClass: 2
Flags: W
LayerCount: 2
Fore
SplineSet
312 332 m 1,0,-1
 490 332 l 1,1,2
 492 326 492 326 494.5 318 c 128,-1,3
 497 310 497 310 497 301 c 0,4,5
 497 266 497 266 462 266 c 2,6,-1
 312 266 l 1,7,-1
 312 73 l 1,8,9
 304 70 304 70 296.5 68 c 128,-1,10
 289 66 289 66 278 66 c 0,11,12
 258 66 258 66 248.5 75 c 128,-1,13
 239 84 239 84 239 106 c 2,14,-1
 239 266 l 1,15,-1
 58 266 l 1,16,17
 55 273 55 273 53 280.5 c 128,-1,18
 51 288 51 288 51 298 c 0,19,20
 51 332 51 332 86 332 c 2,21,-1
 239 332 l 1,22,-1
 239 521 l 1,23,24
 247 524 247 524 255.5 526 c 128,-1,25
 264 528 264 528 276 528 c 0,26,27
 295 528 295 528 303.5 519 c 128,-1,28
 312 510 312 510 312 488 c 2,29,-1
 312 332 l 1,0,-1
EndSplineSet
EndChar

StartChar: comma
Encoding: 44 44 14
Width: 145
GlyphClass: 2
Flags: W
LayerCount: 2
Fore
SplineSet
68 -94 m 0,0,1
 60 -108 60 -108 51 -114.5 c 128,-1,2
 42 -121 42 -121 29 -121 c 0,3,4
 7 -121 7 -121 -7 -104 c 1,5,6
 0 -85 0 -85 8 -59.5 c 128,-1,7
 16 -34 16 -34 24.5 -6.5 c 128,-1,8
 33 21 33 21 39.5 47 c 128,-1,9
 46 73 46 73 50 94 c 1,10,11
 58 98 58 98 67.5 100.5 c 128,-1,12
 77 103 77 103 88 103 c 0,13,14
 106 103 106 103 116 94.5 c 128,-1,15
 126 86 126 86 126 66 c 0,16,17
 126 49 126 49 119.5 26 c 128,-1,18
 113 3 113 3 104 -20.5 c 128,-1,19
 95 -44 95 -44 85 -64 c 128,-1,20
 75 -84 75 -84 68 -94 c 0,0,1
EndSplineSet
EndChar

StartChar: hyphen
Encoding: 45 45 15
Width: 389
GlyphClass: 2
Flags: W
LayerCount: 2
Fore
SplineSet
61 228 m 1,0,1
 58 235 58 235 56 242.5 c 128,-1,2
 54 250 54 250 54 260 c 0,3,4
 54 294 54 294 89 294 c 2,5,-1
 328 294 l 1,6,7
 330 288 330 288 332.5 280 c 128,-1,8
 335 272 335 272 335 263 c 0,9,10
 335 228 335 228 300 228 c 2,11,-1
 61 228 l 1,0,1
EndSplineSet
EndChar

StartChar: period
Encoding: 46 46 16
Width: 141
GlyphClass: 2
Flags: W
LayerCount: 2
Fore
SplineSet
16 42 m 4,0,1
 16 66 16 66 30.5 82 c 132,-1,2
 45 98 45 98 71 98 c 260,3,4
 97 98 97 98 111 82 c 132,-1,5
 125 66 125 66 125 42 c 4,6,7
 125 19 125 19 111 3 c 132,-1,8
 97 -13 97 -13 71 -13 c 260,9,10
 45 -13 45 -13 30.5 3 c 132,-1,11
 16 19 16 19 16 42 c 4,0,1
EndSplineSet
EndChar

StartChar: slash
Encoding: 47 47 17
Width: 305
GlyphClass: 2
Flags: W
LayerCount: 2
Fore
SplineSet
89 -105 m 1,0,1
 83 -106 83 -106 77 -106.5 c 128,-1,2
 71 -107 71 -107 63 -107 c 0,3,4
 24 -107 24 -107 24 -71 c 0,5,6
 24 -60 24 -60 28 -45 c 128,-1,7
 32 -30 32 -30 34 -21 c 2,8,-1
 218 705 l 1,9,10
 224 706 224 706 230.5 706.5 c 128,-1,11
 237 707 237 707 244 707 c 0,12,13
 261 707 261 707 272 698.5 c 128,-1,14
 283 690 283 690 283 671 c 0,15,16
 283 660 283 660 280 646.5 c 128,-1,17
 277 633 277 633 274 621 c 2,18,-1
 89 -105 l 1,0,1
EndSplineSet
Substitution2: "Single Substitution lookup 70 subtable" fraction
Substitution2: "'aalt' Access All Alternates lookup 0 subtable" fraction
EndChar

StartChar: zero
Encoding: 48 48 18
Width: 583
GlyphClass: 2
Flags: W
LayerCount: 2
Fore
SplineSet
447 304 m 0,0,1
 447 371 447 371 434.5 418 c 128,-1,2
 422 465 422 465 401 495 c 128,-1,3
 380 525 380 525 351.5 538.5 c 128,-1,4
 323 552 323 552 291 552 c 256,5,6
 259 552 259 552 231 537.5 c 128,-1,7
 203 523 203 523 182 493 c 128,-1,8
 161 463 161 463 148.5 416 c 128,-1,9
 136 369 136 369 136 304 c 0,10,11
 136 183 136 183 176.5 119 c 128,-1,12
 217 55 217 55 291 55 c 0,13,14
 366 55 366 55 406.5 119 c 128,-1,15
 447 183 447 183 447 304 c 0,0,1
291 -13 m 256,16,17
 238 -13 238 -13 194.5 6.5 c 128,-1,18
 151 26 151 26 119.5 65.5 c 128,-1,19
 88 105 88 105 71 164.5 c 128,-1,20
 54 224 54 224 54 304 c 0,21,22
 54 390 54 390 74 450 c 128,-1,23
 94 510 94 510 127 548 c 128,-1,24
 160 586 160 586 202.5 603 c 128,-1,25
 245 620 245 620 291 620 c 256,26,27
 337 620 337 620 380 602.5 c 128,-1,28
 423 585 423 585 456 547 c 128,-1,29
 489 509 489 509 509 449 c 128,-1,30
 529 389 529 389 529 304 c 0,31,32
 529 224 529 224 512 164.5 c 128,-1,33
 495 105 495 105 463.5 65.5 c 128,-1,34
 432 26 432 26 388 6.5 c 128,-1,35
 344 -13 344 -13 291 -13 c 256,16,17
EndSplineSet
Substitution2: "Single Substitution lookup 71 subtable" zero.dnom
Substitution2: "Single Substitution lookup 70 subtable" zero.numr
Substitution2: "'sinf' Scientific Inferiors lookup 20 subtable" zero.inferior
Substitution2: "'subs' Subscript lookup 19 subtable" zero.inferior
Substitution2: "'sups' Superscript lookup 18 subtable" zero.superior
Substitution2: "'dnom' Denominators lookup 17 subtable" zero.dnom
Substitution2: "'numr' Numerators lookup 16 subtable" zero.numr
Substitution2: "'tnum' Tabular Numbers lookup 15 subtable" tabularzero
AlternateSubs2: "'aalt' Access All Alternates lookup 1 subtable" tabularzero zero.dnom zero.inferior zero.numr zero.superior
EndChar

StartChar: one
Encoding: 49 49 19
Width: 357
GlyphClass: 2
Flags: W
LayerCount: 2
Fore
SplineSet
45 470 m 1,0,1
 32 475 32 475 23.5 485 c 128,-1,2
 15 495 15 495 15 510 c 0,3,4
 15 526 15 526 23 536 c 128,-1,5
 31 546 31 546 51 554 c 2,6,-1
 191 615 l 1,7,-1
 210 615 l 2,8,9
 230 615 230 615 242 603 c 128,-1,10
 254 591 254 591 254 571 c 2,11,-1
 254 -1 l 1,12,13
 248 -3 248 -3 238 -5.5 c 128,-1,14
 228 -8 228 -8 216 -8 c 0,15,16
 173 -8 173 -8 173 29 c 2,17,-1
 173 530 l 1,18,-1
 45 470 l 1,0,1
EndSplineSet
Substitution2: "Single Substitution lookup 71 subtable" one.dnom
Substitution2: "Single Substitution lookup 70 subtable" one.numr
Substitution2: "'sinf' Scientific Inferiors lookup 20 subtable" one.inferior
Substitution2: "'subs' Subscript lookup 19 subtable" one.inferior
Substitution2: "'sups' Superscript lookup 18 subtable" onesuperior
Substitution2: "'dnom' Denominators lookup 17 subtable" one.dnom
Substitution2: "'numr' Numerators lookup 16 subtable" one.numr
Substitution2: "'tnum' Tabular Numbers lookup 15 subtable" tabularone
AlternateSubs2: "'aalt' Access All Alternates lookup 1 subtable" one.dnom one.inferior one.numr onesuperior tabularone
EndChar

StartChar: two
Encoding: 50 50 20
Width: 508
GlyphClass: 2
Flags: W
LayerCount: 2
Fore
SplineSet
57 545 m 0,0,1
 57 558 57 558 70.5 571.5 c 128,-1,2
 84 585 84 585 107 596 c 128,-1,3
 130 607 130 607 161 613.5 c 128,-1,4
 192 620 192 620 227 620 c 0,5,6
 324 620 324 620 378.5 573 c 128,-1,7
 433 526 433 526 433 446 c 0,8,9
 433 419 433 419 426 392.5 c 128,-1,10
 419 366 419 366 403 338.5 c 128,-1,11
 387 311 387 311 361 281 c 128,-1,12
 335 251 335 251 298 217 c 2,13,-1
 135 66 l 1,14,-1
 432 66 l 1,15,16
 436 61 436 61 439 53 c 128,-1,17
 442 45 442 45 442 34 c 0,18,19
 442 0 442 0 411 0 c 2,20,-1
 58 0 l 1,21,22
 38 14 38 14 38 40 c 0,23,24
 38 69 38 69 62 92 c 2,25,-1
 242 265 l 2,26,27
 272 294 272 294 293 318 c 128,-1,28
 314 342 314 342 326.5 363 c 128,-1,29
 339 384 339 384 344.5 404 c 128,-1,30
 350 424 350 424 350 445 c 0,31,32
 350 493 350 493 318 522.5 c 128,-1,33
 286 552 286 552 221 552 c 0,34,35
 176 552 176 552 142 537 c 128,-1,36
 108 522 108 522 85 505 c 1,37,38
 74 510 74 510 65.5 520 c 128,-1,39
 57 530 57 530 57 545 c 0,0,1
EndSplineSet
Substitution2: "Single Substitution lookup 71 subtable" two.dnom
Substitution2: "Single Substitution lookup 70 subtable" two.numr
Substitution2: "'sinf' Scientific Inferiors lookup 20 subtable" two.inferior
Substitution2: "'subs' Subscript lookup 19 subtable" two.inferior
Substitution2: "'sups' Superscript lookup 18 subtable" twosuperior
Substitution2: "'dnom' Denominators lookup 17 subtable" two.dnom
Substitution2: "'numr' Numerators lookup 16 subtable" two.numr
Substitution2: "'tnum' Tabular Numbers lookup 15 subtable" tabulartwo
AlternateSubs2: "'aalt' Access All Alternates lookup 1 subtable" tabulartwo two.dnom two.inferior two.numr twosuperior
EndChar

StartChar: three
Encoding: 51 51 21
Width: 506
GlyphClass: 2
Flags: W
LayerCount: 2
Fore
SplineSet
217 621 m 0,0,1
 264 621 264 621 303 610.5 c 128,-1,2
 342 600 342 600 370 579 c 128,-1,3
 398 558 398 558 413.5 527 c 128,-1,4
 429 496 429 496 429 455 c 0,5,6
 429 425 429 425 419 401.5 c 128,-1,7
 409 378 409 378 394.5 361 c 128,-1,8
 380 344 380 344 363 334 c 128,-1,9
 346 324 346 324 333 321 c 1,10,11
 353 315 353 315 373 302.5 c 128,-1,12
 393 290 393 290 409.5 271.5 c 128,-1,13
 426 253 426 253 436.5 227.5 c 128,-1,14
 447 202 447 202 447 170 c 0,15,16
 447 125 447 125 430.5 91 c 128,-1,17
 414 57 414 57 384 34.5 c 128,-1,18
 354 12 354 12 312 0.5 c 128,-1,19
 270 -11 270 -11 220 -11 c 0,20,21
 179 -11 179 -11 144.5 -4.5 c 128,-1,22
 110 2 110 2 85 13.5 c 128,-1,23
 60 25 60 25 46 39 c 128,-1,24
 32 53 32 53 32 68 c 0,25,26
 32 82 32 82 39.5 92 c 128,-1,27
 47 102 47 102 59 109 c 1,28,29
 85 89 85 89 122.5 73 c 128,-1,30
 160 57 160 57 220 57 c 0,31,32
 286 57 286 57 327 85.5 c 128,-1,33
 368 114 368 114 368 172 c 0,34,35
 368 223 368 223 330 254 c 128,-1,36
 292 285 292 285 220 285 c 2,37,-1
 137 285 l 1,38,39
 133 290 133 290 130 299.5 c 128,-1,40
 127 309 127 309 127 319 c 0,41,42
 127 330 127 330 130 339 c 128,-1,43
 133 348 133 348 137 353 c 1,44,-1
 213 353 l 2,45,46
 287 353 287 353 318.5 380.5 c 128,-1,47
 350 408 350 408 350 453 c 0,48,49
 350 502 350 502 314.5 527.5 c 128,-1,50
 279 553 279 553 216 553 c 0,51,52
 168 553 168 553 131.5 538.5 c 128,-1,53
 95 524 95 524 71 507 c 1,54,55
 61 512 61 512 53 522.5 c 128,-1,56
 45 533 45 533 45 547 c 0,57,58
 45 560 45 560 58 573.5 c 128,-1,59
 71 587 71 587 94.5 597.5 c 128,-1,60
 118 608 118 608 149.5 614.5 c 128,-1,61
 181 621 181 621 217 621 c 0,0,1
EndSplineSet
Substitution2: "Single Substitution lookup 71 subtable" three.dnom
Substitution2: "Single Substitution lookup 70 subtable" three.numr
Substitution2: "'sinf' Scientific Inferiors lookup 20 subtable" three.inferior
Substitution2: "'subs' Subscript lookup 19 subtable" three.inferior
Substitution2: "'sups' Superscript lookup 18 subtable" threesuperior
Substitution2: "'dnom' Denominators lookup 17 subtable" three.dnom
Substitution2: "'numr' Numerators lookup 16 subtable" three.numr
Substitution2: "'tnum' Tabular Numbers lookup 15 subtable" tabularthree
AlternateSubs2: "'aalt' Access All Alternates lookup 1 subtable" tabularthree three.dnom three.inferior three.numr threesuperior
EndChar

StartChar: four
Encoding: 52 52 22
Width: 548
GlyphClass: 2
Flags: W
LayerCount: 2
Fore
SplineSet
323 609 m 1,0,1
 332 611 332 611 343.5 612.5 c 128,-1,2
 355 614 355 614 364 614 c 0,3,4
 385 614 385 614 402 604 c 128,-1,5
 419 594 419 594 419 565 c 2,6,-1
 419 215 l 1,7,-1
 519 215 l 1,8,9
 522 210 522 210 525 201.5 c 128,-1,10
 528 193 528 193 528 182 c 0,11,12
 528 148 528 148 497 148 c 2,13,-1
 419 148 l 1,14,-1
 419 -2 l 1,15,16
 414 -4 414 -4 404.5 -6 c 128,-1,17
 395 -8 395 -8 384 -8 c 0,18,19
 341 -8 341 -8 341 27 c 2,20,-1
 341 148 l 1,21,-1
 52 148 l 1,22,23
 42 153 42 153 34.5 165.5 c 128,-1,24
 27 178 27 178 27 195 c 0,25,26
 27 204 27 204 28.5 210.5 c 128,-1,27
 30 217 30 217 32 223 c 2,28,-1
 323 609 l 1,0,1
344 530 m 1,29,-1
 342 530 l 1,30,-1
 120 215 l 1,31,-1
 342 215 l 1,32,-1
 344 530 l 1,29,-1
EndSplineSet
Substitution2: "Single Substitution lookup 71 subtable" four.dnom
Substitution2: "Single Substitution lookup 70 subtable" four.numr
Substitution2: "'sinf' Scientific Inferiors lookup 20 subtable" four.inferior
Substitution2: "'subs' Subscript lookup 19 subtable" four.inferior
Substitution2: "'sups' Superscript lookup 18 subtable" four.superior
Substitution2: "'dnom' Denominators lookup 17 subtable" four.dnom
Substitution2: "'numr' Numerators lookup 16 subtable" four.numr
Substitution2: "'tnum' Tabular Numbers lookup 15 subtable" tabularfour
AlternateSubs2: "'aalt' Access All Alternates lookup 1 subtable" four.dnom four.inferior four.numr four.superior tabularfour
EndChar

StartChar: five
Encoding: 53 53 23
Width: 538
GlyphClass: 2
Flags: W
LayerCount: 2
Fore
SplineSet
454 608 m 1,0,1
 457 603 457 603 460 594.5 c 128,-1,2
 463 586 463 586 463 576 c 0,3,4
 463 559 463 559 455 549.5 c 128,-1,5
 447 540 447 540 432 540 c 2,6,-1
 176 540 l 1,7,-1
 160 360 l 1,8,9
 177 369 177 369 207 377.5 c 128,-1,10
 237 386 237 386 272 386 c 0,11,12
 317 386 317 386 355.5 373 c 128,-1,13
 394 360 394 360 423 335.5 c 128,-1,14
 452 311 452 311 468.5 274.5 c 128,-1,15
 485 238 485 238 485 190 c 0,16,17
 485 146 485 146 470 109 c 128,-1,18
 455 72 455 72 426 45 c 128,-1,19
 397 18 397 18 354.5 2.5 c 128,-1,20
 312 -13 312 -13 258 -13 c 0,21,22
 215 -13 215 -13 179.5 -5.5 c 128,-1,23
 144 2 144 2 119 14 c 128,-1,24
 94 26 94 26 80.5 40.5 c 128,-1,25
 67 55 67 55 67 69 c 0,26,27
 67 85 67 85 77.5 96.5 c 128,-1,28
 88 108 88 108 99 113 c 1,29,30
 121 93 121 93 161 73.5 c 128,-1,31
 201 54 201 54 258 54 c 0,32,33
 327 54 327 54 365 92 c 128,-1,34
 403 130 403 130 403 190 c 0,35,36
 403 251 403 251 364 285 c 128,-1,37
 325 319 325 319 262 319 c 0,38,39
 227 319 227 319 198 308 c 128,-1,40
 169 297 169 297 144 283 c 1,41,42
 117 285 117 285 100.5 299.5 c 128,-1,43
 84 314 84 314 84 337 c 0,44,45
 84 343 84 343 84.5 352.5 c 128,-1,46
 85 362 85 362 86 371 c 2,47,-1
 103 562 l 2,48,49
 105 583 105 583 116 595.5 c 128,-1,50
 127 608 127 608 148 608 c 2,51,-1
 454 608 l 1,52,-1
 454 608 l 1,0,1
EndSplineSet
Substitution2: "Single Substitution lookup 71 subtable" five.dnom
Substitution2: "Single Substitution lookup 70 subtable" five.numr
Substitution2: "'sinf' Scientific Inferiors lookup 20 subtable" five.inferior
Substitution2: "'subs' Subscript lookup 19 subtable" five.inferior
Substitution2: "'sups' Superscript lookup 18 subtable" five.superior
Substitution2: "'dnom' Denominators lookup 17 subtable" five.dnom
Substitution2: "'numr' Numerators lookup 16 subtable" five.numr
Substitution2: "'tnum' Tabular Numbers lookup 15 subtable" tabularfive
AlternateSubs2: "'aalt' Access All Alternates lookup 1 subtable" five.dnom five.inferior five.numr five.superior tabularfive
EndChar

StartChar: six
Encoding: 54 54 24
Width: 550
GlyphClass: 2
Flags: W
LayerCount: 2
Fore
SplineSet
455 561 m 0,0,1
 455 549 455 549 448.5 538.5 c 128,-1,2
 442 528 442 528 432 523 c 1,3,4
 410 534 410 534 382.5 542.5 c 128,-1,5
 355 551 355 551 323 551 c 0,6,7
 284 551 284 551 250.5 537 c 128,-1,8
 217 523 217 523 191.5 494.5 c 128,-1,9
 166 466 166 466 151 422.5 c 128,-1,10
 136 379 136 379 135 320 c 1,11,12
 145 330 145 330 160.5 341 c 128,-1,13
 176 352 176 352 196.5 362 c 128,-1,14
 217 372 217 372 243 378.5 c 128,-1,15
 269 385 269 385 299 385 c 0,16,17
 343 385 343 385 380 372.5 c 128,-1,18
 417 360 417 360 444 335 c 128,-1,19
 471 310 471 310 486 273 c 128,-1,20
 501 236 501 236 501 187 c 0,21,22
 501 140 501 140 486 103 c 128,-1,23
 471 66 471 66 443 40.5 c 128,-1,24
 415 15 415 15 375.5 1 c 128,-1,25
 336 -13 336 -13 288 -13 c 0,26,27
 238 -13 238 -13 195 3.5 c 128,-1,28
 152 20 152 20 120.5 56 c 128,-1,29
 89 92 89 92 71.5 148.5 c 128,-1,30
 54 205 54 205 54 285 c 0,31,32
 54 379 54 379 77 443 c 128,-1,33
 100 507 100 507 137.5 546.5 c 128,-1,34
 175 586 175 586 223 603 c 128,-1,35
 271 620 271 620 321 620 c 0,36,37
 347 620 347 620 371 616 c 128,-1,38
 395 612 395 612 414 604.5 c 128,-1,39
 433 597 433 597 444 586 c 128,-1,40
 455 575 455 575 455 561 c 0,0,1
288 54 m 0,41,42
 346 54 346 54 383 89 c 128,-1,43
 420 124 420 124 420 189 c 256,44,45
 420 254 420 254 382.5 285.5 c 128,-1,46
 345 317 345 317 290 317 c 0,47,48
 236 317 236 317 197 295 c 128,-1,49
 158 273 158 273 135 241 c 1,50,51
 136 157 136 157 175.5 105.5 c 128,-1,52
 215 54 215 54 288 54 c 0,41,42
EndSplineSet
Substitution2: "Single Substitution lookup 71 subtable" six.dnom
Substitution2: "Single Substitution lookup 70 subtable" six.numr
Substitution2: "'sinf' Scientific Inferiors lookup 20 subtable" six.inferior
Substitution2: "'subs' Subscript lookup 19 subtable" six.inferior
Substitution2: "'sups' Superscript lookup 18 subtable" six.superior
Substitution2: "'dnom' Denominators lookup 17 subtable" six.dnom
Substitution2: "'numr' Numerators lookup 16 subtable" six.numr
Substitution2: "'tnum' Tabular Numbers lookup 15 subtable" tabularsix
AlternateSubs2: "'aalt' Access All Alternates lookup 1 subtable" six.dnom six.inferior six.numr six.superior tabularsix
EndChar

StartChar: seven
Encoding: 55 55 25
Width: 458
GlyphClass: 2
Flags: W
LayerCount: 2
Fore
SplineSet
415 608 m 1,0,1
 438 595 438 595 438 568 c 0,2,3
 438 548 438 548 427 526 c 2,4,-1
 176 -4 l 1,5,6
 170 -5 170 -5 164.5 -5 c 128,-1,7
 159 -5 159 -5 153 -5 c 0,8,9
 133 -5 133 -5 119.5 4.5 c 128,-1,10
 106 14 106 14 106 31 c 0,11,12
 106 43 106 43 110.5 54.5 c 128,-1,13
 115 66 115 66 123 81 c 2,14,-1
 349 540 l 1,15,-1
 33 540 l 1,16,17
 30 545 30 545 27 553 c 128,-1,18
 24 561 24 561 24 572 c 0,19,20
 24 589 24 589 32 598.5 c 128,-1,21
 40 608 40 608 55 608 c 2,22,-1
 415 608 l 1,0,1
EndSplineSet
Substitution2: "Single Substitution lookup 71 subtable" seven.dnom
Substitution2: "Single Substitution lookup 70 subtable" seven.numr
Substitution2: "'sinf' Scientific Inferiors lookup 20 subtable" seven.inferior
Substitution2: "'subs' Subscript lookup 19 subtable" seven.inferior
Substitution2: "'sups' Superscript lookup 18 subtable" seven.superior
Substitution2: "'dnom' Denominators lookup 17 subtable" seven.dnom
Substitution2: "'numr' Numerators lookup 16 subtable" seven.numr
Substitution2: "'tnum' Tabular Numbers lookup 15 subtable" tabularseven
AlternateSubs2: "'aalt' Access All Alternates lookup 1 subtable" seven.dnom seven.inferior seven.numr seven.superior tabularseven
EndChar

StartChar: eight
Encoding: 56 56 26
Width: 569
GlyphClass: 2
Flags: W
LayerCount: 2
Fore
SplineSet
59 161 m 0,0,1
 59 192 59 192 68.5 217 c 128,-1,2
 78 242 78 242 94 261.5 c 128,-1,3
 110 281 110 281 131 294.5 c 128,-1,4
 152 308 152 308 175 317 c 1,5,6
 127 335 127 335 100.5 369 c 128,-1,7
 74 403 74 403 74 455 c 0,8,9
 74 493 74 493 89 523.5 c 128,-1,10
 104 554 104 554 132 575.5 c 128,-1,11
 160 597 160 597 199 608.5 c 128,-1,12
 238 620 238 620 285 620 c 0,13,14
 383 620 383 620 439.5 575.5 c 128,-1,15
 496 531 496 531 496 453 c 0,16,17
 496 400 496 400 466 366.5 c 128,-1,18
 436 333 436 333 389 317 c 1,19,20
 414 308 414 308 436 294 c 128,-1,21
 458 280 458 280 474.5 261 c 128,-1,22
 491 242 491 242 500.5 216.5 c 128,-1,23
 510 191 510 191 510 160 c 0,24,25
 510 119 510 119 493.5 87 c 128,-1,26
 477 55 477 55 447.5 33 c 128,-1,27
 418 11 418 11 376.5 -1 c 128,-1,28
 335 -13 335 -13 285 -13 c 0,29,30
 182 -13 182 -13 120.5 32.5 c 128,-1,31
 59 78 59 78 59 161 c 0,0,1
430 163 m 256,32,33
 430 217 430 217 388.5 250 c 128,-1,34
 347 283 347 283 275 292 c 1,35,36
 213 281 213 281 176 248 c 128,-1,37
 139 215 139 215 139 162 c 0,38,39
 139 111 139 111 177.5 82.5 c 128,-1,40
 216 54 216 54 285 54 c 0,41,42
 351 54 351 54 390.5 81.5 c 128,-1,43
 430 109 430 109 430 163 c 256,32,33
154 454 m 0,44,45
 154 426 154 426 165 406.5 c 128,-1,46
 176 387 176 387 195.5 374 c 128,-1,47
 215 361 215 361 241 353.5 c 128,-1,48
 267 346 267 346 297 343 c 1,49,50
 357 358 357 358 386.5 384 c 128,-1,51
 416 410 416 410 416 453 c 0,52,53
 416 501 416 501 381 527 c 128,-1,54
 346 553 346 553 285 553 c 0,55,56
 225 553 225 553 189.5 526 c 128,-1,57
 154 499 154 499 154 454 c 0,44,45
EndSplineSet
Substitution2: "Single Substitution lookup 71 subtable" eight.dnom
Substitution2: "Single Substitution lookup 70 subtable" eight.numr
Substitution2: "'sinf' Scientific Inferiors lookup 20 subtable" eight.inferior
Substitution2: "'subs' Subscript lookup 19 subtable" eight.inferior
Substitution2: "'sups' Superscript lookup 18 subtable" eight.superior
Substitution2: "'dnom' Denominators lookup 17 subtable" eight.dnom
Substitution2: "'numr' Numerators lookup 16 subtable" eight.numr
Substitution2: "'tnum' Tabular Numbers lookup 15 subtable" tabulareight
AlternateSubs2: "'aalt' Access All Alternates lookup 1 subtable" eight.dnom eight.inferior eight.numr eight.superior tabulareight
EndChar

StartChar: nine
Encoding: 57 57 27
Width: 552
GlyphClass: 2
Flags: W
LayerCount: 2
Fore
SplineSet
82 49 m 0,0,1
 82 61 82 61 88.5 72 c 128,-1,2
 95 83 95 83 105 88 c 1,3,4
 124 77 124 77 154.5 66.5 c 128,-1,5
 185 56 185 56 227 56 c 0,6,7
 266 56 266 56 300.5 68 c 128,-1,8
 335 80 335 80 361 107 c 128,-1,9
 387 134 387 134 402 177.5 c 128,-1,10
 417 221 417 221 417 284 c 1,11,12
 410 276 410 276 397 265.5 c 128,-1,13
 384 255 384 255 364.5 245.5 c 128,-1,14
 345 236 345 236 320 229.5 c 128,-1,15
 295 223 295 223 264 223 c 0,16,17
 222 223 222 223 183 234 c 128,-1,18
 144 245 144 245 115 268 c 128,-1,19
 86 291 86 291 68.5 328 c 128,-1,20
 51 365 51 365 51 418 c 0,21,22
 51 465 51 465 67.5 502.5 c 128,-1,23
 84 540 84 540 112.5 566 c 128,-1,24
 141 592 141 592 179.5 606 c 128,-1,25
 218 620 218 620 262 620 c 0,26,27
 313 620 313 620 356.5 602.5 c 128,-1,28
 400 585 400 585 431.5 548.5 c 128,-1,29
 463 512 463 512 480.5 456 c 128,-1,30
 498 400 498 400 498 323 c 0,31,32
 498 231 498 231 478.5 167 c 128,-1,33
 459 103 459 103 423.5 63 c 128,-1,34
 388 23 388 23 338 5 c 128,-1,35
 288 -13 288 -13 228 -13 c 0,36,37
 198 -13 198 -13 171.5 -9 c 128,-1,38
 145 -5 145 -5 125 3 c 128,-1,39
 105 11 105 11 93.5 22.5 c 128,-1,40
 82 34 82 34 82 49 c 0,0,1
275 290 m 0,41,42
 300 290 300 290 322.5 296.5 c 128,-1,43
 345 303 345 303 364 314.5 c 128,-1,44
 383 326 383 326 396.5 340.5 c 128,-1,45
 410 355 410 355 417 370 c 1,46,47
 415 455 415 455 374.5 504 c 128,-1,48
 334 553 334 553 262 553 c 0,49,50
 206 553 206 553 169 518 c 128,-1,51
 132 483 132 483 132 420 c 0,52,53
 132 385 132 385 143 360.5 c 128,-1,54
 154 336 154 336 173.5 320.5 c 128,-1,55
 193 305 193 305 219 297.5 c 128,-1,56
 245 290 245 290 275 290 c 0,41,42
EndSplineSet
Substitution2: "Single Substitution lookup 71 subtable" nine.dnom
Substitution2: "Single Substitution lookup 70 subtable" nine.numr
Substitution2: "'sinf' Scientific Inferiors lookup 20 subtable" nine.inferior
Substitution2: "'subs' Subscript lookup 19 subtable" nine.inferior
Substitution2: "'sups' Superscript lookup 18 subtable" nine.superior
Substitution2: "'dnom' Denominators lookup 17 subtable" nine.dnom
Substitution2: "'numr' Numerators lookup 16 subtable" nine.numr
Substitution2: "'tnum' Tabular Numbers lookup 15 subtable" tabularnine
AlternateSubs2: "'aalt' Access All Alternates lookup 1 subtable" nine.dnom nine.inferior nine.numr nine.superior tabularnine
EndChar

StartChar: colon
Encoding: 58 58 28
Width: 504
GlyphClass: 2
Flags: W
LayerCount: 2
Fore
SplineSet
145 219 m 0,0,1
 145 237 145 237 142 263 c 1,2,-1
 85 263 l 2,3,4
 74 263 74 263 65.5 270.5 c 128,-1,5
 57 278 57 278 57 296 c 0,6,7
 57 306 57 306 60 313.5 c 128,-1,8
 63 321 63 321 65 328 c 1,9,-1
 136 328 l 1,10,11
 133 353 133 353 131.5 376.5 c 128,-1,12
 130 400 130 400 130 418 c 0,13,14
 130 472 130 472 146 510 c 128,-1,15
 162 548 162 548 189.5 573 c 128,-1,16
 217 598 217 598 253.5 609.5 c 128,-1,17
 290 621 290 621 332 621 c 0,18,19
 364 621 364 621 388 615.5 c 128,-1,20
 412 610 412 610 427.5 601 c 128,-1,21
 443 592 443 592 451 581 c 128,-1,22
 459 570 459 570 459 560 c 0,23,24
 459 552 459 552 453.5 540.5 c 128,-1,25
 448 529 448 529 436 522 c 1,26,27
 414 537 414 537 391.5 545 c 128,-1,28
 369 553 369 553 337 553 c 0,29,30
 210 553 210 553 210 407 c 0,31,32
 210 390 210 390 211 369.5 c 128,-1,33
 212 349 212 349 214 328 c 1,34,-1
 405 328 l 1,35,36
 408 321 408 321 410.5 313.5 c 128,-1,37
 413 306 413 306 413 296 c 0,38,39
 413 278 413 278 405 270.5 c 128,-1,40
 397 263 397 263 384 263 c 2,41,-1
 220 263 l 1,42,43
 223 236 223 236 223 217 c 0,44,45
 223 163 223 163 209 126.5 c 128,-1,46
 195 90 195 90 168 66 c 1,47,-1
 461 66 l 1,48,49
 469 52 469 52 469 33 c 0,50,51
 469 17 469 17 461 8.5 c 128,-1,52
 453 0 453 0 440 0 c 2,53,-1
 100 0 l 2,54,55
 81 0 81 0 67.5 11.5 c 128,-1,56
 54 23 54 23 54 45 c 0,57,58
 54 50 54 50 54 52.5 c 128,-1,59
 54 55 54 55 55 60 c 1,60,61
 77 71 77 71 94 84.5 c 128,-1,62
 111 98 111 98 122.5 116 c 128,-1,63
 134 134 134 134 139.5 159 c 128,-1,64
 145 184 145 184 145 219 c 0,0,1
EndSplineSet
EndChar

StartChar: semicolon
Encoding: 59 59 29
Width: 385
GlyphClass: 2
Flags: W
LayerCount: 2
Fore
SplineSet
215 606 m 1,0,1
 220 608 220 608 230.5 610.5 c 128,-1,2
 241 613 241 613 252 613 c 0,3,4
 296 613 296 613 296 576 c 2,5,-1
 296 148 l 2,6,7
 296 103 296 103 283 72.5 c 128,-1,8
 270 42 270 42 247.5 23.5 c 128,-1,9
 225 5 225 5 195.5 -3 c 128,-1,10
 166 -11 166 -11 134 -11 c 0,11,12
 77 -11 77 -11 51 2.5 c 128,-1,13
 25 16 25 16 25 38 c 0,14,15
 25 52 25 52 31 62 c 128,-1,16
 37 72 37 72 42 77 c 1,17,18
 57 70 57 70 78 64 c 128,-1,19
 99 58 99 58 122 58 c 0,20,21
 167 58 167 58 191 79.5 c 128,-1,22
 215 101 215 101 215 152 c 2,23,-1
 215 606 l 1,24,-1
 215 606 l 1,0,1
EndSplineSet
EndChar

StartChar: less
Encoding: 60 60 30
Width: 690
GlyphClass: 2
Flags: W
LayerCount: 2
Fore
SplineSet
634 304 m 0,0,1
 634 182 634 182 581.5 106 c 128,-1,2
 529 30 529 30 445 2 c 1,3,4
 482 -18 482 -18 510.5 -32.5 c 128,-1,5
 539 -47 539 -47 563.5 -58 c 128,-1,6
 588 -69 588 -69 610.5 -78 c 128,-1,7
 633 -87 633 -87 658 -96 c 1,8,9
 660 -103 660 -103 660 -107.5 c 128,-1,10
 660 -112 660 -112 660 -116 c 0,11,12
 660 -135 660 -135 648.5 -146.5 c 128,-1,13
 637 -158 637 -158 616 -158 c 0,14,15
 584 -158 584 -158 532.5 -130.5 c 128,-1,16
 481 -103 481 -103 415 -58 c 2,17,-1
 349 -13 l 1,18,-1
 344 -13 l 2,19,20
 282 -13 282 -13 229 7.5 c 128,-1,21
 176 28 176 28 137 67.5 c 128,-1,22
 98 107 98 107 76 166.5 c 128,-1,23
 54 226 54 226 54 304 c 256,24,25
 54 382 54 382 76.5 441 c 128,-1,26
 99 500 99 500 138 540 c 128,-1,27
 177 580 177 580 230 600.5 c 128,-1,28
 283 621 283 621 344 621 c 256,29,30
 405 621 405 621 458 600.5 c 128,-1,31
 511 580 511 580 550 540 c 128,-1,32
 589 500 589 500 611.5 441 c 128,-1,33
 634 382 634 382 634 304 c 0,0,1
551 304 m 256,34,35
 551 424 551 424 494.5 488 c 128,-1,36
 438 552 438 552 344 552 c 0,37,38
 297 552 297 552 259 535.5 c 128,-1,39
 221 519 221 519 194 487.5 c 128,-1,40
 167 456 167 456 152.5 410 c 128,-1,41
 138 364 138 364 138 304 c 0,42,43
 138 184 138 184 194 120 c 128,-1,44
 250 56 250 56 344 56 c 0,45,46
 439 56 439 56 495 120 c 128,-1,47
 551 184 551 184 551 304 c 256,34,35
EndSplineSet
EndChar

StartChar: equal
Encoding: 61 61 31
Width: 803
GlyphClass: 2
Flags: W
LayerCount: 2
Fore
SplineSet
359 457 m 1,0,1
 367 461 367 461 378.5 464 c 128,-1,2
 390 467 390 467 404 467 c 0,3,4
 446 467 446 467 455 441 c 0,5,6
 473 387 473 387 489 339 c 128,-1,7
 505 291 505 291 520 246.5 c 128,-1,8
 535 202 535 202 549 159 c 128,-1,9
 563 116 563 116 577 70 c 1,10,-1
 581 70 l 1,11,12
 595 137 595 137 609 201.5 c 128,-1,13
 623 266 623 266 636 331.5 c 128,-1,14
 649 397 649 397 661 464.5 c 128,-1,15
 673 532 673 532 684 607 c 1,16,17
 698 614 698 614 718 614 c 0,18,19
 737 614 737 614 748 605.5 c 128,-1,20
 759 597 759 597 759 580 c 0,21,22
 759 561 759 561 753.5 522 c 128,-1,23
 748 483 748 483 738.5 432.5 c 128,-1,24
 729 382 729 382 716.5 323.5 c 128,-1,25
 704 265 704 265 690 208.5 c 128,-1,26
 676 152 676 152 662 100 c 128,-1,27
 648 48 648 48 635 11 c 1,28,29
 626 6 626 6 612 1.5 c 128,-1,30
 598 -3 598 -3 580 -3 c 0,31,32
 558 -3 558 -3 543 4 c 128,-1,33
 528 11 528 11 523 23 c 0,34,35
 512 49 512 49 498 88.5 c 128,-1,36
 484 128 484 128 468.5 175.5 c 128,-1,37
 453 223 453 223 437 274.5 c 128,-1,38
 421 326 421 326 406 377 c 1,39,40
 391 327 391 327 375 274 c 128,-1,41
 359 221 359 221 343.5 171.5 c 128,-1,42
 328 122 328 122 313 80 c 128,-1,43
 298 38 298 38 286 10 c 1,44,45
 278 5 278 5 264 1 c 128,-1,46
 250 -3 250 -3 232 -3 c 0,47,48
 209 -3 209 -3 195 4.5 c 128,-1,49
 181 12 181 12 176 23 c 0,50,51
 167 44 167 44 155.5 83 c 128,-1,52
 144 122 144 122 131.5 171.5 c 128,-1,53
 119 221 119 221 105.5 278 c 128,-1,54
 92 335 92 335 79.5 391.5 c 128,-1,55
 67 448 67 448 56.5 500.5 c 128,-1,56
 46 553 46 553 39 595 c 1,57,58
 46 602 46 602 58 608 c 128,-1,59
 70 614 70 614 84 614 c 0,60,61
 119 614 119 614 126 577 c 0,62,63
 139 514 139 514 151 455.5 c 128,-1,64
 163 397 163 397 175.5 336.5 c 128,-1,65
 188 276 188 276 202 211 c 128,-1,66
 216 146 216 146 233 70 c 1,67,-1
 237 70 l 1,68,69
 251 115 251 115 264 155.5 c 128,-1,70
 277 196 277 196 291 240 c 128,-1,71
 305 284 305 284 321.5 336 c 128,-1,72
 338 388 338 388 359 457 c 1,0,1
EndSplineSet
EndChar

StartChar: greater
Encoding: 62 62 32
Width: 591
GlyphClass: 2
Flags: W
LayerCount: 2
Fore
SplineSet
293 252 m 1,0,-1
 109 -5 l 1,1,2
 99 -7 99 -7 89 -7 c 0,3,4
 69 -7 69 -7 57 2.5 c 128,-1,5
 45 12 45 12 45 29 c 0,6,7
 45 42 45 42 51.5 53 c 128,-1,8
 58 64 58 64 68 78 c 2,9,-1
 244 308 l 1,10,-1
 49 574 l 1,11,12
 54 591 54 591 65.5 602.5 c 128,-1,13
 77 614 77 614 97 614 c 0,14,15
 113 614 113 614 124 604.5 c 128,-1,16
 135 595 135 595 147 578 c 2,17,-1
 295 366 l 1,18,-1
 472 611 l 2,19,20
 477 612 477 612 482 612.5 c 128,-1,21
 487 613 487 613 493 613 c 0,22,23
 514 613 514 613 524.5 603 c 128,-1,24
 535 593 535 593 535 578 c 0,25,26
 535 567 535 567 529.5 556.5 c 128,-1,27
 524 546 524 546 516 535 c 0,28,29
 474 479 474 479 431 423 c 128,-1,30
 388 367 388 367 343 310 c 1,31,-1
 544 32 l 1,32,33
 539 15 539 15 528 4 c 128,-1,34
 517 -7 517 -7 498 -7 c 0,35,36
 482 -7 482 -7 471.5 1 c 128,-1,37
 461 9 461 9 449 27 c 2,38,-1
 293 252 l 1,0,-1
EndSplineSet
EndChar

StartChar: question
Encoding: 63 63 33
Width: 517
GlyphClass: 2
Flags: W
LayerCount: 2
Fore
SplineSet
465 608 m 1,0,1
 468 603 468 603 471 594.5 c 128,-1,2
 474 586 474 586 474 576 c 0,3,4
 474 559 474 559 466 549 c 128,-1,5
 458 539 458 539 443 539 c 2,6,-1
 171 539 l 1,7,-1
 171 331 l 1,8,-1
 430 331 l 1,9,10
 433 326 433 326 436 317.5 c 128,-1,11
 439 309 439 309 439 299 c 0,12,13
 439 282 439 282 431 272 c 128,-1,14
 423 262 423 262 408 262 c 2,15,-1
 171 262 l 1,16,-1
 171 1 l 1,17,18
 166 -1 166 -1 155.5 -3 c 128,-1,19
 145 -5 145 -5 134 -5 c 0,20,21
 89 -5 89 -5 89 31 c 2,22,-1
 89 564 l 2,23,24
 89 584 89 584 101 596 c 128,-1,25
 113 608 113 608 133 608 c 2,26,-1
 465 608 l 1,0,1
EndSplineSet
EndChar

StartChar: at
Encoding: 64 64 34
Width: 1000
GlyphClass: 2
Flags: W
LayerCount: 2
Fore
SplineSet
667 79 m 1,0,1
 678 71 678 71 692.5 66 c 128,-1,2
 707 61 707 61 726 61 c 0,3,4
 759 61 759 61 783.5 76 c 128,-1,5
 808 91 808 91 824.5 118.5 c 128,-1,6
 841 146 841 146 849 184 c 128,-1,7
 857 222 857 222 857 267 c 0,8,9
 857 338 857 338 833 397 c 128,-1,10
 809 456 809 456 764.5 498 c 128,-1,11
 720 540 720 540 657 563.5 c 128,-1,12
 594 587 594 587 516 587 c 0,13,14
 429 587 429 587 358 559.5 c 128,-1,15
 287 532 287 532 237.5 481.5 c 128,-1,16
 188 431 188 431 161 360.5 c 128,-1,17
 134 290 134 290 134 204 c 0,18,19
 134 122 134 122 159.5 55.5 c 128,-1,20
 185 -11 185 -11 231 -58 c 128,-1,21
 277 -105 277 -105 342 -130.5 c 128,-1,22
 407 -156 407 -156 486 -156 c 0,23,24
 524 -156 524 -156 553 -151.5 c 128,-1,25
 582 -147 582 -147 602 -141 c 1,26,27
 615 -154 615 -154 615 -172 c 0,28,29
 615 -195 615 -195 585.5 -208 c 128,-1,30
 556 -221 556 -221 480 -221 c 0,31,32
 385 -221 385 -221 306.5 -191 c 128,-1,33
 228 -161 228 -161 172 -106 c 128,-1,34
 116 -51 116 -51 85.5 27.5 c 128,-1,35
 55 106 55 106 55 204 c 0,36,37
 55 305 55 305 87.5 388 c 128,-1,38
 120 471 120 471 180 529.5 c 128,-1,39
 240 588 240 588 325 620 c 128,-1,40
 410 652 410 652 515 652 c 0,41,42
 613 652 613 652 691 624.5 c 128,-1,43
 769 597 769 597 823.5 546 c 128,-1,44
 878 495 878 495 907 424 c 128,-1,45
 936 353 936 353 936 266 c 0,46,47
 936 136 936 136 883 65.5 c 128,-1,48
 830 -5 830 -5 726 -5 c 0,49,50
 695 -5 695 -5 664.5 5 c 128,-1,51
 634 15 634 15 611 34 c 1,52,53
 590 19 590 19 561 9.5 c 128,-1,54
 532 0 532 0 492 0 c 0,55,56
 448 0 448 0 412.5 13.5 c 128,-1,57
 377 27 377 27 351.5 52.5 c 128,-1,58
 326 78 326 78 312 115.5 c 128,-1,59
 298 153 298 153 298 200 c 0,60,61
 298 254 298 254 314.5 296.5 c 128,-1,62
 331 339 331 339 361 368.5 c 128,-1,63
 391 398 391 398 433.5 413.5 c 128,-1,64
 476 429 476 429 528 429 c 0,65,66
 563 429 563 429 596 421 c 128,-1,67
 629 413 629 413 652 401 c 0,68,69
 693 380 693 380 693 352 c 0,70,71
 693 345 693 345 692.5 337 c 128,-1,72
 692 329 692 329 691 322 c 2,73,-1
 667 79 l 1,0,1
380 200 m 0,74,75
 380 135 380 135 412.5 100.5 c 128,-1,76
 445 66 445 66 503 66 c 0,77,78
 551 66 551 66 589 96 c 1,79,-1
 614 344 l 1,80,81
 598 352 598 352 575 357.5 c 128,-1,82
 552 363 552 363 523 363 c 0,83,84
 459 363 459 363 419.5 320.5 c 128,-1,85
 380 278 380 278 380 200 c 0,74,75
EndSplineSet
EndChar

StartChar: A
Encoding: 65 65 35
Width: 189
GlyphClass: 2
Flags: W
LayerCount: 2
Fore
SplineSet
40 392 m 256,0,1
 40 416 40 416 54 432 c 128,-1,2
 68 448 68 448 94 448 c 256,3,4
 120 448 120 448 134.5 432 c 128,-1,5
 149 416 149 416 149 392 c 256,6,7
 149 368 149 368 134.5 352.5 c 128,-1,8
 120 337 120 337 94 337 c 256,9,10
 68 337 68 337 54 352.5 c 128,-1,11
 40 368 40 368 40 392 c 256,0,1
40 42 m 0,12,13
 40 66 40 66 54 82 c 128,-1,14
 68 98 68 98 94 98 c 256,15,16
 120 98 120 98 134.5 82 c 128,-1,17
 149 66 149 66 149 42 c 0,18,19
 149 19 149 19 134.5 3 c 128,-1,20
 120 -13 120 -13 94 -13 c 256,21,22
 68 -13 68 -13 54 3 c 128,-1,23
 40 19 40 19 40 42 c 0,12,13
EndSplineSet
Substitution2: "Single Substitution lookup 72 subtable" ordfeminine
Substitution2: "'aalt' Access All Alternates lookup 0 subtable" ordfeminine
EndChar

StartChar: B
Encoding: 66 66 36
Width: 202
GlyphClass: 2
Flags: W
LayerCount: 2
Fore
SplineSet
46 392 m 256,0,1
 46 416 46 416 60 432 c 128,-1,2
 74 448 74 448 100 448 c 256,3,4
 126 448 126 448 140.5 432 c 128,-1,5
 155 416 155 416 155 392 c 256,6,7
 155 368 155 368 140.5 352.5 c 128,-1,8
 126 337 126 337 100 337 c 256,9,10
 74 337 74 337 60 352.5 c 128,-1,11
 46 368 46 368 46 392 c 256,0,1
89 -94 m 0,12,13
 81 -108 81 -108 72 -114.5 c 128,-1,14
 63 -121 63 -121 50 -121 c 0,15,16
 28 -121 28 -121 14 -104 c 1,17,18
 21 -85 21 -85 29 -59.5 c 128,-1,19
 37 -34 37 -34 45.5 -6.5 c 128,-1,20
 54 21 54 21 60.5 47 c 128,-1,21
 67 73 67 73 71 94 c 1,22,23
 79 98 79 98 88.5 100.5 c 128,-1,24
 98 103 98 103 109 103 c 0,25,26
 127 103 127 103 137 94.5 c 128,-1,27
 147 86 147 86 147 66 c 0,28,29
 147 49 147 49 140.5 26 c 128,-1,30
 134 3 134 3 125 -20.5 c 128,-1,31
 116 -44 116 -44 106 -64 c 128,-1,32
 96 -84 96 -84 89 -94 c 0,12,13
EndSplineSet
EndChar

StartChar: C
Encoding: 67 67 37
Width: 473
GlyphClass: 2
Flags: W
LayerCount: 2
Fore
SplineSet
440 141 m 2,0,1
 441 136 441 136 441 132 c 128,-1,2
 441 128 441 128 441 123 c 0,3,4
 441 108 441 108 431 98 c 128,-1,5
 421 88 421 88 404 88 c 0,6,7
 390 88 390 88 369 101 c 2,8,-1
 64 267 l 1,9,10
 54 282 54 282 54 300 c 0,11,12
 54 328 54 328 71 338 c 2,13,-1
 405 509 l 1,14,15
 438 497 438 497 438 471 c 0,16,17
 438 454 438 454 428 444.5 c 128,-1,18
 418 435 418 435 402 425 c 2,19,-1
 132 301 l 1,20,-1
 440 141 l 2,0,1
EndSplineSet
EndChar

StartChar: D
Encoding: 68 68 38
Width: 518
GlyphClass: 2
Flags: W
LayerCount: 2
Fore
SplineSet
58 363 m 1,0,1
 51 377 51 377 51 394 c 0,2,3
 51 428 51 428 86 428 c 2,4,-1
 460 428 l 1,5,6
 462 422 462 422 464 414.5 c 128,-1,7
 466 407 466 407 466 397 c 0,8,9
 466 363 466 363 431 363 c 2,10,-1
 58 363 l 1,0,1
58 161 m 1,11,12
 51 175 51 175 51 192 c 0,13,14
 51 226 51 226 86 226 c 2,15,-1
 460 226 l 1,16,17
 462 220 462 220 464 212 c 128,-1,18
 466 204 466 204 466 195 c 0,19,20
 466 161 466 161 431 161 c 2,21,-1
 58 161 l 1,11,12
EndSplineSet
EndChar

StartChar: E
Encoding: 69 69 39
Width: 460
GlyphClass: 2
Flags: W
LayerCount: 2
Fore
SplineSet
33 459 m 2,0,1
 32 464 32 464 32 468 c 128,-1,2
 32 472 32 472 32 477 c 0,3,4
 32 491 32 491 41.5 501.5 c 128,-1,5
 51 512 51 512 68 512 c 0,6,7
 76 512 76 512 84.5 508.5 c 128,-1,8
 93 505 93 505 103 500 c 2,9,-1
 399 334 l 1,10,11
 409 319 409 319 409 300 c 0,12,13
 409 285 409 285 404.5 276 c 128,-1,14
 400 267 400 267 392 262 c 2,15,-1
 68 92 l 1,16,17
 51 97 51 97 43 107.5 c 128,-1,18
 35 118 35 118 35 130 c 0,19,20
 35 146 35 146 44.5 156.5 c 128,-1,21
 54 167 54 167 71 175 c 2,22,-1
 331 302 l 1,23,-1
 33 459 l 2,0,1
EndSplineSet
EndChar

StartChar: F
Encoding: 70 70 40
Width: 459
GlyphClass: 2
Flags: W
LayerCount: 2
Fore
SplineSet
115 200 m 1,0,1
 95 220 95 220 95 244 c 0,2,3
 95 258 95 258 103 267 c 128,-1,4
 111 276 111 276 131 281 c 2,5,-1
 200 299 l 2,6,7
 266 316 266 316 301.5 349.5 c 128,-1,8
 337 383 337 383 337 437 c 0,9,10
 337 485 337 485 302.5 519.5 c 128,-1,11
 268 554 268 554 195 554 c 0,12,13
 155 554 155 554 114.5 541.5 c 128,-1,14
 74 529 74 529 50 509 c 1,15,16
 27 526 27 526 27 552 c 0,17,18
 27 567 27 567 39.5 580 c 128,-1,19
 52 593 52 593 75 603 c 128,-1,20
 98 613 98 613 129 619 c 128,-1,21
 160 625 160 625 198 625 c 0,22,23
 247 625 247 625 288 611 c 128,-1,24
 329 597 329 597 358.5 572.5 c 128,-1,25
 388 548 388 548 404 513.5 c 128,-1,26
 420 479 420 479 420 438 c 0,27,28
 420 353 420 353 368.5 301.5 c 128,-1,29
 317 250 317 250 213 224 c 2,30,-1
 115 200 l 1,0,1
104 45 m 256,31,32
 104 69 104 69 119 85.5 c 128,-1,33
 134 102 134 102 160 102 c 256,34,35
 186 102 186 102 201.5 85.5 c 128,-1,36
 217 69 217 69 217 45 c 256,37,38
 217 21 217 21 201.5 5 c 128,-1,39
 186 -11 186 -11 160 -11 c 256,40,41
 134 -11 134 -11 119 5 c 128,-1,42
 104 21 104 21 104 45 c 256,31,32
EndSplineSet
EndChar

StartChar: G
Encoding: 71 71 41
Width: 518
GlyphClass: 2
Flags: W
LayerCount: 2
Fore
SplineSet
375 351 m 1,0,-1
 81 490 l 1,1,2
 80 496 80 496 80 504 c 0,3,4
 80 521 80 521 90 531 c 128,-1,5
 100 541 100 541 116 541 c 0,6,7
 124 541 124 541 133.5 538 c 128,-1,8
 143 535 143 535 153 529 c 2,9,-1
 444 383 l 2,10,11
 448 377 448 377 450 368.5 c 128,-1,12
 452 360 452 360 452 351 c 0,13,14
 452 336 452 336 448 326.5 c 128,-1,15
 444 317 444 317 436 313 c 2,16,-1
 112 162 l 1,17,18
 96 167 96 167 88 177.5 c 128,-1,19
 80 188 80 188 80 199 c 0,20,21
 80 214 80 214 88 223.5 c 128,-1,22
 96 233 96 233 116 241 c 2,23,-1
 375 351 l 1,0,-1
431 0 m 2,24,-1
 58 0 l 1,25,26
 55 6 55 6 53 14 c 128,-1,27
 51 22 51 22 51 31 c 0,28,29
 51 48 51 48 60.5 56.5 c 128,-1,30
 70 65 70 65 86 65 c 2,31,-1
 460 65 l 1,32,33
 462 59 462 59 464 51.5 c 128,-1,34
 466 44 466 44 466 34 c 0,35,36
 466 18 466 18 457 9 c 128,-1,37
 448 0 448 0 431 0 c 2,24,-1
EndSplineSet
EndChar

StartChar: H
Encoding: 72 72 42
Width: 518
GlyphClass: 2
Flags: W
LayerCount: 2
Fore
SplineSet
431 471 m 2,0,-1
 58 471 l 1,1,2
 55 477 55 477 53 485 c 128,-1,3
 51 493 51 493 51 502 c 0,4,5
 51 519 51 519 60.5 527.5 c 128,-1,6
 70 536 70 536 86 536 c 2,7,-1
 460 536 l 1,8,9
 462 530 462 530 464 522.5 c 128,-1,10
 466 515 466 515 466 505 c 0,11,12
 466 489 466 489 457 480 c 128,-1,13
 448 471 448 471 431 471 c 2,0,-1
431 273 m 6,14,-1
 58 273 l 5,15,16
 55 279 55 279 53 287 c 132,-1,17
 51 295 51 295 51 304 c 4,18,19
 51 321 51 321 60.5 329.5 c 132,-1,20
 70 338 70 338 86 338 c 6,21,-1
 460 338 l 5,22,23
 462 332 462 332 464 324.5 c 132,-1,24
 466 317 466 317 466 307 c 4,25,26
 466 291 466 291 457 282 c 132,-1,27
 448 273 448 273 431 273 c 6,14,-1
431 71 m 6,28,-1
 58 71 l 5,29,30
 55 77 55 77 53 84.5 c 132,-1,31
 51 92 51 92 51 102 c 4,32,33
 51 119 51 119 60.5 127.5 c 132,-1,34
 70 136 70 136 86 136 c 6,35,-1
 460 136 l 5,36,37
 462 130 462 130 464 122 c 132,-1,38
 466 114 466 114 466 105 c 4,39,40
 466 89 466 89 457 80 c 132,-1,41
 448 71 448 71 431 71 c 6,28,-1
EndSplineSet
EndChar

StartChar: I
Encoding: 73 73 43
Width: 393
GlyphClass: 2
Flags: W
LayerCount: 2
Fore
SplineSet
230 141 m 1,0,-1
 305 201 l 1,1,2
 325 201 325 201 339.5 191 c 128,-1,3
 354 181 354 181 354 163 c 256,4,5
 354 145 354 145 334 120 c 2,6,-1
 234 -5 l 2,7,8
 227 -9 227 -9 218.5 -12.5 c 128,-1,9
 210 -16 210 -16 198 -16 c 0,10,11
 185 -16 185 -16 175 -11.5 c 128,-1,12
 165 -7 165 -7 158 0 c 2,13,-1
 38 157 l 1,14,15
 44 177 44 177 54.5 186.5 c 128,-1,16
 65 196 65 196 78 196 c 0,17,18
 89 196 89 196 99.5 191.5 c 128,-1,19
 110 187 110 187 121 178 c 2,20,-1
 165 141 l 1,21,-1
 165 594 l 1,22,23
 170 596 170 596 177 597.5 c 128,-1,24
 184 599 184 599 194 599 c 0,25,26
 211 599 211 599 220.5 592 c 128,-1,27
 230 585 230 585 230 570 c 2,28,-1
 230 141 l 1,0,-1
EndSplineSet
EndChar

StartChar: J
Encoding: 74 74 44
Width: 694
GlyphClass: 2
Flags: W
LayerCount: 2
Fore
SplineSet
199 257 m 1,0,-1
 260 181 l 1,1,2
 260 164 260 164 250 152 c 128,-1,3
 240 140 240 140 220 140 c 0,4,5
 209 140 209 140 197.5 146 c 128,-1,6
 186 152 186 152 173 161 c 2,7,-1
 51 253 l 2,8,9
 46 260 46 260 42.5 268.5 c 128,-1,10
 39 277 39 277 39 289 c 0,11,12
 39 303 39 303 44 312.5 c 128,-1,13
 49 322 49 322 56 329 c 2,14,-1
 213 449 l 1,15,16
 233 443 233 443 243 432 c 128,-1,17
 253 421 253 421 253 409 c 256,18,19
 253 397 253 397 248 387.5 c 128,-1,20
 243 378 243 378 232 364 c 2,21,-1
 199 322 l 1,22,-1
 645 322 l 1,23,24
 649 318 649 318 652 309.5 c 128,-1,25
 655 301 655 301 655 290 c 0,26,27
 655 274 655 274 646.5 265.5 c 128,-1,28
 638 257 638 257 624 257 c 2,29,-1
 199 257 l 1,0,-1
EndSplineSet
EndChar

StartChar: K
Encoding: 75 75 45
Width: 393
GlyphClass: 2
Flags: W
LayerCount: 2
Fore
SplineSet
163 445 m 1,0,-1
 88 385 l 1,1,2
 68 385 68 385 53.5 395 c 128,-1,3
 39 405 39 405 39 423 c 0,4,5
 39 434 39 434 44.5 444 c 128,-1,6
 50 454 50 454 59 466 c 2,7,-1
 160 591 l 2,8,9
 166 596 166 596 174.5 599 c 128,-1,10
 183 602 183 602 196 602 c 256,11,12
 209 602 209 602 219 598 c 128,-1,13
 229 594 229 594 236 586 c 2,14,-1
 355 429 l 1,15,16
 350 410 350 410 339.5 399.5 c 128,-1,17
 329 389 329 389 316 389 c 0,18,19
 304 389 304 389 294 394 c 128,-1,20
 284 399 284 399 272 408 c 2,21,-1
 229 445 l 1,22,-1
 229 -8 l 1,23,24
 225 -9 225 -9 217.5 -11 c 128,-1,25
 210 -13 210 -13 200 -13 c 0,26,27
 183 -13 183 -13 173 -6 c 128,-1,28
 163 1 163 1 163 16 c 2,29,-1
 163 445 l 1,0,-1
EndSplineSet
EndChar

StartChar: L
Encoding: 76 76 46
Width: 694
GlyphClass: 2
Flags: W
LayerCount: 2
Fore
SplineSet
495 331 m 1,0,-1
 434 407 l 1,1,2
 434 424 434 424 444.5 436.5 c 128,-1,3
 455 449 455 449 475 449 c 0,4,5
 486 449 486 449 497 443 c 128,-1,6
 508 437 508 437 521 427 c 2,7,-1
 644 335 l 2,8,9
 649 329 649 329 652 320 c 128,-1,10
 655 311 655 311 655 299 c 0,11,12
 655 286 655 286 650.5 276 c 128,-1,13
 646 266 646 266 638 259 c 2,14,-1
 481 140 l 1,15,16
 462 145 462 145 451.5 156 c 128,-1,17
 441 167 441 167 441 179 c 256,18,19
 441 191 441 191 446.5 201 c 128,-1,20
 452 211 452 211 462 224 c 2,21,-1
 495 266 l 1,22,-1
 49 266 l 1,23,24
 46 271 46 271 42.5 279.5 c 128,-1,25
 39 288 39 288 39 298 c 0,26,27
 39 315 39 315 47.5 323 c 128,-1,28
 56 331 56 331 70 331 c 2,29,-1
 495 331 l 1,0,-1
EndSplineSet
EndChar

StartChar: M
Encoding: 77 77 47
Width: 649
GlyphClass: 2
Flags: W
LayerCount: 2
Fore
SplineSet
324 614 m 4,0,1
 249 614 249 614 196 586.5 c 132,-1,2
 143 559 143 559 115.5 508.5 c 132,-1,3
 88 458 88 458 88 391 c 6,4,-1
 88 309 l 5,5,-1
 169 309 l 5,6,-1
 169 384 l 6,7,8
 169 464 169 464 213.5 504.5 c 132,-1,9
 258 545 258 545 324 545 c 260,10,11
 390 545 390 545 434.5 504.5 c 132,-1,12
 479 464 479 464 479 384 c 6,13,-1
 479 309 l 5,14,-1
 561 309 l 5,15,-1
 561 391 l 6,16,17
 561 458 561 458 533.5 508.5 c 132,-1,18
 506 559 506 559 453 586.5 c 132,-1,19
 400 614 400 614 324 614 c 4,0,1
169 350 m 5,20,-1
 88 350 l 5,21,-1
 88 -5 l 5,22,23
 93 -7 93 -7 103.5 -9.5 c 132,-1,24
 114 -12 114 -12 126 -12 c 4,25,26
 148 -12 148 -12 158.5 -3.5 c 132,-1,27
 169 5 169 5 169 25 c 6,28,-1
 169 350 l 5,20,-1
561 350 m 5,29,-1
 479 350 l 5,30,-1
 479 -5 l 5,31,32
 484 -7 484 -7 494.5 -9.5 c 132,-1,33
 505 -12 505 -12 517 -12 c 4,34,35
 539 -12 539 -12 550 -3.5 c 132,-1,36
 561 5 561 5 561 25 c 6,37,-1
 561 350 l 5,29,-1
EndSplineSet
EndChar

StartChar: N
Encoding: 78 78 48
Width: 405
GlyphClass: 2
Flags: W
LayerCount: 2
Fore
SplineSet
241 205 m 1,0,-1
 163 201 l 1,1,-1
 163 525 l 2,2,3
 163 589 163 589 186 626.5 c 128,-1,4
 209 664 209 664 246 681 c 128,-1,5
 283 698 283 698 325 698 c 0,6,7
 354 698 354 698 367 688.5 c 128,-1,8
 380 679 380 679 380 661 c 0,9,10
 380 653 380 653 377.5 645 c 128,-1,11
 375 637 375 637 372 633 c 1,12,-1
 339 633 l 2,13,14
 293 633 293 633 267 608 c 128,-1,15
 241 583 241 583 241 526 c 2,16,-1
 241 205 l 1,0,-1
163 285 m 1,17,-1
 241 289 l 1,18,-1
 241 -35 l 2,19,20
 241 -97 241 -97 219.5 -135.5 c 128,-1,21
 198 -174 198 -174 161.5 -191 c 128,-1,22
 125 -208 125 -208 80 -208 c 0,23,24
 49 -208 49 -208 37 -197.5 c 128,-1,25
 25 -187 25 -187 25 -170 c 0,26,27
 25 -162 25 -162 27.5 -154.5 c 128,-1,28
 30 -147 30 -147 33 -143 c 1,29,-1
 66 -143 l 2,30,31
 112 -143 112 -143 137.5 -118 c 128,-1,32
 163 -93 163 -93 163 -36 c 2,33,-1
 163 285 l 1,17,-1
EndSplineSet
EndChar

StartChar: O
Encoding: 79 79 49
Width: 689
GlyphClass: 2
Flags: W
LayerCount: 2
Fore
SplineSet
300 306 m 4,0,1
 300 330 300 330 314.5 346 c 132,-1,2
 329 362 329 362 355 362 c 260,3,4
 381 362 381 362 395 346 c 132,-1,5
 409 330 409 330 409 306 c 4,6,7
 409 283 409 283 395 267 c 132,-1,8
 381 251 381 251 355 251 c 260,9,10
 329 251 329 251 314.5 267 c 132,-1,11
 300 283 300 283 300 306 c 4,0,1
634 304 m 256,12,13
 634 200 634 200 596 129.5 c 128,-1,14
 558 59 558 59 492.5 23 c 128,-1,15
 427 -13 427 -13 344 -13 c 0,16,17
 262 -13 262 -13 196 23 c 128,-1,18
 130 59 130 59 92 129.5 c 128,-1,19
 54 200 54 200 54 304 c 256,20,21
 54 408 54 408 93 478.5 c 128,-1,22
 132 549 132 549 197.5 585 c 128,-1,23
 263 621 263 621 344 621 c 0,24,25
 426 621 426 621 491.5 585 c 128,-1,26
 557 549 557 549 595.5 478.5 c 128,-1,27
 634 408 634 408 634 304 c 256,12,13
551 304 m 256,28,29
 551 423 551 423 494.5 487.5 c 128,-1,30
 438 552 438 552 344 552 c 0,31,32
 251 552 251 552 194.5 487.5 c 128,-1,33
 138 423 138 423 138 304 c 256,34,35
 138 185 138 185 194 120.5 c 128,-1,36
 250 56 250 56 344 56 c 0,37,38
 439 56 439 56 495 120.5 c 128,-1,39
 551 185 551 185 551 304 c 256,28,29
EndSplineSet
Substitution2: "Single Substitution lookup 72 subtable" ordmasculine
Substitution2: "'aalt' Access All Alternates lookup 0 subtable" ordmasculine
EndChar

StartChar: P
Encoding: 80 80 50
Width: 518
GlyphClass: 2
Flags: W
LayerCount: 2
Fore
SplineSet
142 352 m 1,0,-1
 436 213 l 1,1,2
 437 207 437 207 437 198 c 0,3,4
 437 182 437 182 428 172 c 128,-1,5
 419 162 419 162 402 162 c 0,6,7
 393 162 393 162 383.5 165 c 128,-1,8
 374 168 374 168 364 173 c 2,9,-1
 74 319 l 2,10,11
 70 325 70 325 67.5 333.5 c 128,-1,12
 65 342 65 342 65 352 c 0,13,14
 65 367 65 367 69 376.5 c 128,-1,15
 73 386 73 386 81 390 c 2,16,-1
 405 541 l 1,17,18
 422 536 422 536 429.5 525.5 c 128,-1,19
 437 515 437 515 437 503 c 0,20,21
 437 489 437 489 429 479 c 128,-1,22
 421 469 421 469 401 461 c 2,23,-1
 142 352 l 1,0,-1
431 0 m 2,24,-1
 58 0 l 1,25,26
 55 6 55 6 53 14 c 128,-1,27
 51 22 51 22 51 31 c 0,28,29
 51 48 51 48 60.5 56.5 c 128,-1,30
 70 65 70 65 86 65 c 2,31,-1
 460 65 l 1,32,33
 462 59 462 59 464 51.5 c 128,-1,34
 466 44 466 44 466 34 c 0,35,36
 466 18 466 18 457 9 c 128,-1,37
 448 0 448 0 431 0 c 2,24,-1
EndSplineSet
EndChar

StartChar: Q
Encoding: 81 81 51
Width: 521
GlyphClass: 2
Flags: W
LayerCount: 2
Fore
SplineSet
361 212 m 0,0,1
 388 212 388 212 400 226.5 c 128,-1,2
 412 241 412 241 419 257 c 1,3,4
 441 257 441 257 455.5 246.5 c 128,-1,5
 470 236 470 236 470 216 c 0,6,7
 470 185 470 185 446.5 167 c 128,-1,8
 423 149 423 149 379 149 c 0,9,10
 337 149 337 149 299 159 c 128,-1,11
 261 169 261 169 230 179 c 128,-1,12
 199 189 199 189 175 189 c 0,13,14
 148 189 148 189 136.5 174.5 c 128,-1,15
 125 160 125 160 117 145 c 1,16,17
 94 145 94 145 80 155 c 128,-1,18
 66 165 66 165 66 185 c 0,19,20
 66 209 66 209 88.5 231 c 128,-1,21
 111 253 111 253 158 253 c 0,22,23
 199 253 199 253 234.5 243 c 128,-1,24
 270 233 270 233 301.5 222.5 c 128,-1,25
 333 212 333 212 361 212 c 0,0,1
359 405 m 0,26,27
 385 405 385 405 397 419 c 128,-1,28
 409 433 409 433 416 449 c 1,29,30
 438 449 438 449 452.5 438.5 c 128,-1,31
 467 428 467 428 467 408 c 0,32,33
 467 378 467 378 443.5 359 c 128,-1,34
 420 340 420 340 376 340 c 0,35,36
 334 340 334 340 298 350.5 c 128,-1,37
 262 361 262 361 231.5 371 c 128,-1,38
 201 381 201 381 172 381 c 0,39,40
 145 381 145 381 133.5 366.5 c 128,-1,41
 122 352 122 352 114 336 c 1,42,43
 91 336 91 336 77 347 c 128,-1,44
 63 358 63 358 63 378 c 0,45,46
 63 401 63 401 85.5 423 c 128,-1,47
 108 445 108 445 155 445 c 0,48,49
 196 445 196 445 231.5 435 c 128,-1,50
 267 425 267 425 299 415 c 128,-1,51
 331 405 331 405 359 405 c 0,26,27
EndSplineSet
EndChar

StartChar: R
Encoding: 82 82 52
Width: 522
GlyphClass: 2
Flags: W
LayerCount: 2
Fore
SplineSet
436 266 m 2,0,-1
 58 266 l 1,1,2
 55 273 55 273 53 280.5 c 128,-1,3
 51 288 51 288 51 298 c 0,4,5
 51 315 51 315 60.5 323.5 c 128,-1,6
 70 332 70 332 86 332 c 2,7,-1
 464 332 l 1,8,9
 467 326 467 326 469 318 c 128,-1,10
 471 310 471 310 471 301 c 0,11,12
 471 285 471 285 462 275.5 c 128,-1,13
 453 266 453 266 436 266 c 2,0,-1
210 135 m 0,14,15
 210 158 210 158 224.5 173 c 128,-1,16
 239 188 239 188 263 188 c 256,17,18
 287 188 287 188 301.5 173 c 128,-1,19
 316 158 316 158 316 135 c 0,20,21
 316 113 316 113 301.5 97.5 c 128,-1,22
 287 82 287 82 263 82 c 256,23,24
 239 82 239 82 224.5 97.5 c 128,-1,25
 210 113 210 113 210 135 c 0,14,15
210 459 m 256,26,27
 210 482 210 482 224.5 497 c 128,-1,28
 239 512 239 512 263 512 c 256,29,30
 287 512 287 512 301.5 497 c 128,-1,31
 316 482 316 482 316 459 c 256,32,33
 316 436 316 436 301.5 421 c 128,-1,34
 287 406 287 406 263 406 c 256,35,36
 239 406 239 406 224.5 421 c 128,-1,37
 210 436 210 436 210 459 c 256,26,27
EndSplineSet
EndChar

StartChar: S
Encoding: 83 83 53
Width: 511
GlyphClass: 2
Flags: W
LayerCount: 2
Fore
SplineSet
144 540 m 1,0,-1
 338 243 l 2,1,2
 340 239 340 239 341.5 232 c 128,-1,3
 343 225 343 225 343 217 c 0,4,5
 343 210 343 210 341.5 203.5 c 128,-1,6
 340 197 340 197 338 192 c 2,7,-1
 144 -115 l 1,8,-1
 452 -115 l 1,9,10
 456 -120 456 -120 458.5 -128.5 c 128,-1,11
 461 -137 461 -137 461 -147 c 0,12,13
 461 -166 461 -166 452 -174 c 128,-1,14
 443 -182 443 -182 430 -182 c 2,15,-1
 87 -182 l 2,16,17
 71 -182 71 -182 60 -169.5 c 128,-1,18
 49 -157 49 -157 49 -141 c 0,19,20
 49 -129 49 -129 51 -121.5 c 128,-1,21
 53 -114 53 -114 57 -107 c 2,22,-1
 262 217 l 1,23,-1
 57 532 l 2,24,25
 53 539 53 539 51 547 c 128,-1,26
 49 555 49 555 49 566 c 0,27,28
 49 583 49 583 60 595.5 c 128,-1,29
 71 608 71 608 87 608 c 2,30,-1
 452 608 l 1,31,32
 456 603 456 603 458.5 594 c 128,-1,33
 461 585 461 585 461 576 c 0,34,35
 461 557 461 557 452 548.5 c 128,-1,36
 443 540 443 540 430 540 c 2,37,-1
 144 540 l 1,0,-1
EndSplineSet
EndChar

StartChar: T
Encoding: 84 84 54
Width: 592
GlyphClass: 2
Flags: W
LayerCount: 2
Fore
SplineSet
592 44 m 0,0,1
 592 34 592 34 587 23 c 128,-1,2
 582 12 582 12 572.5 5 c 128,-1,3
 563 -2 563 -2 549 -2 c 2,4,-1
 66 -2 l 2,5,6
 56 1 56 1 47.5 11 c 128,-1,7
 39 21 39 21 39 37 c 0,8,9
 39 45 39 45 42.5 55 c 128,-1,10
 46 65 46 65 53 83 c 0,11,12
 74 138 74 138 100.5 203 c 128,-1,13
 127 268 127 268 155.5 337 c 128,-1,14
 184 406 184 406 212 473 c 128,-1,15
 240 540 240 540 265 597 c 1,16,17
 288 607 288 607 320 607 c 0,18,19
 334 607 334 607 350 603 c 128,-1,20
 366 599 366 599 373 585 c 0,21,22
 398 525 398 525 427 455.5 c 128,-1,23
 456 386 456 386 485.5 313.5 c 128,-1,24
 515 241 515 241 542.5 172 c 128,-1,25
 570 103 570 103 592 44 c 0,0,1
129 64 m 1,26,-1
 504 64 l 1,27,-1
 317 539 l 1,28,-1
 129 64 l 1,26,-1
EndSplineSet
EndChar

StartChar: U
Encoding: 85 85 55
Width: 649
GlyphClass: 2
Flags: W
LayerCount: 2
Fore
SplineSet
324 -13 m 0,0,1
 249 -13 249 -13 196 14.5 c 128,-1,2
 143 42 143 42 115.5 92.5 c 128,-1,3
 88 143 88 143 88 210 c 2,4,-1
 88 292 l 1,5,-1
 169 292 l 1,6,-1
 169 217 l 2,7,8
 169 137 169 137 213.5 96.5 c 128,-1,9
 258 56 258 56 324 56 c 256,10,11
 390 56 390 56 434.5 96.5 c 128,-1,12
 479 137 479 137 479 217 c 2,13,-1
 479 292 l 1,14,-1
 561 292 l 1,15,-1
 561 210 l 2,16,17
 561 143 561 143 533.5 92.5 c 128,-1,18
 506 42 506 42 453 14.5 c 128,-1,19
 400 -13 400 -13 324 -13 c 0,0,1
169 251 m 1,20,-1
 88 251 l 1,21,-1
 88 606 l 1,22,23
 93 608 93 608 103.5 610.5 c 128,-1,24
 114 613 114 613 126 613 c 0,25,26
 148 613 148 613 158.5 604.5 c 128,-1,27
 169 596 169 596 169 576 c 2,28,-1
 169 251 l 1,20,-1
561 251 m 1,29,-1
 479 251 l 1,30,-1
 479 606 l 1,31,32
 484 608 484 608 494.5 610.5 c 128,-1,33
 505 613 505 613 517 613 c 0,34,35
 539 613 539 613 550 604.5 c 128,-1,36
 561 596 561 596 561 576 c 2,37,-1
 561 251 l 1,29,-1
EndSplineSet
EndChar

StartChar: V
Encoding: 86 86 56
Width: 469
GlyphClass: 2
Flags: W
LayerCount: 2
Fore
SplineSet
101 225 m 1,0,-1
 239 82 l 1,1,2
 239 67 239 67 229.5 54.5 c 128,-1,3
 220 42 220 42 201 42 c 0,4,5
 188 42 188 42 177 50.5 c 128,-1,6
 166 59 166 59 156 69 c 2,7,-1
 45 192 l 2,8,9
 41 199 41 199 38 207.5 c 128,-1,10
 35 216 35 216 35 226 c 0,11,12
 35 242 35 242 39 250.5 c 128,-1,13
 43 259 43 259 50 265 c 2,14,-1
 195 416 l 1,15,16
 215 412 215 412 224.5 402.5 c 128,-1,17
 234 393 234 393 234 380 c 0,18,19
 234 368 234 368 227.5 358.5 c 128,-1,20
 221 349 221 349 207 334 c 2,21,-1
 101 225 l 1,0,-1
292 225 m 1,22,-1
 429 82 l 1,23,24
 429 67 429 67 419.5 54.5 c 128,-1,25
 410 42 410 42 392 42 c 0,26,27
 379 42 379 42 367.5 50.5 c 128,-1,28
 356 59 356 59 347 69 c 2,29,-1
 235 192 l 2,30,31
 231 199 231 199 228 207.5 c 128,-1,32
 225 216 225 216 225 226 c 0,33,34
 225 242 225 242 229 250.5 c 128,-1,35
 233 259 233 259 240 265 c 2,36,-1
 385 416 l 1,37,38
 405 412 405 412 414.5 402.5 c 128,-1,39
 424 393 424 393 424 380 c 0,40,41
 424 368 424 368 417.5 358.5 c 128,-1,42
 411 349 411 349 397 334 c 2,43,-1
 292 225 l 1,22,-1
EndSplineSet
EndChar

StartChar: W
Encoding: 87 87 57
Width: 469
GlyphClass: 2
Flags: W
LayerCount: 2
Fore
SplineSet
367 233 m 1,0,-1
 230 376 l 1,1,2
 230 391 230 391 239.5 403.5 c 128,-1,3
 249 416 249 416 267 416 c 0,4,5
 281 416 281 416 292 408 c 128,-1,6
 303 400 303 400 312 389 c 2,7,-1
 424 266 l 2,8,9
 429 259 429 259 431.5 251 c 128,-1,10
 434 243 434 243 434 232 c 0,11,12
 434 216 434 216 430 207.5 c 128,-1,13
 426 199 426 199 419 193 c 2,14,-1
 273 42 l 1,15,16
 254 47 254 47 244.5 56 c 128,-1,17
 235 65 235 65 235 78 c 0,18,19
 235 90 235 90 241.5 99.5 c 128,-1,20
 248 109 248 109 262 124 c 2,21,-1
 367 233 l 1,0,-1
177 233 m 1,22,-1
 40 376 l 1,23,24
 40 391 40 391 49.5 403.5 c 128,-1,25
 59 416 59 416 77 416 c 0,26,27
 91 416 91 416 102 408 c 128,-1,28
 113 400 113 400 122 389 c 2,29,-1
 234 266 l 2,30,31
 239 259 239 259 241.5 251 c 128,-1,32
 244 243 244 243 244 232 c 0,33,34
 244 216 244 216 240 207.5 c 128,-1,35
 236 199 236 199 228 193 c 2,36,-1
 83 42 l 1,37,38
 64 47 64 47 54.5 56 c 128,-1,39
 45 65 45 65 45 78 c 0,40,41
 45 90 45 90 51.5 99.5 c 128,-1,42
 58 109 58 109 72 124 c 2,43,-1
 177 233 l 1,22,-1
EndSplineSet
EndChar

StartChar: X
Encoding: 88 88 58
Width: 482
GlyphClass: 2
Flags: W
LayerCount: 2
Fore
SplineSet
214 261 m 1,0,-1
 229 268 l 1,1,2
 270 321 270 321 306 367 c 128,-1,3
 342 413 342 413 380 468 c 0,4,5
 384 469 384 469 386 469 c 128,-1,6
 388 469 388 469 391 469 c 0,7,8
 412 469 412 469 424 459.5 c 128,-1,9
 436 450 436 450 436 434 c 0,10,11
 436 423 436 423 431.5 413 c 128,-1,12
 427 403 427 403 417 390 c 0,13,14
 383 348 383 348 347.5 305 c 128,-1,15
 312 262 312 262 278 221 c 1,16,-1
 252 199 l 1,17,18
 215 150 215 150 176 97.5 c 128,-1,19
 137 45 137 45 101 -5 c 0,20,21
 100 -5 100 -5 94.5 -5 c 128,-1,22
 89 -5 89 -5 87 -5 c 0,23,24
 64 -5 64 -5 52.5 5 c 128,-1,25
 41 15 41 15 41 30 c 0,26,27
 41 38 41 38 44.5 47 c 128,-1,28
 48 56 48 56 61 72 c 0,29,30
 97 120 97 120 137 166.5 c 128,-1,31
 177 213 177 213 214 261 c 1,0,-1
263 259 m 1,32,-1
 281 247 l 1,33,34
 322 193 322 193 363.5 140.5 c 128,-1,35
 405 88 405 88 446 35 c 1,36,37
 444 16 444 16 433 5 c 128,-1,38
 422 -6 422 -6 404 -6 c 0,39,40
 388 -6 388 -6 377 2.5 c 128,-1,41
 366 11 366 11 352 29 c 0,42,43
 322 71 322 71 288.5 118 c 128,-1,44
 255 165 255 165 225 206 c 1,45,-1
 202 227 l 1,46,47
 158 280 158 280 120 328 c 128,-1,48
 82 376 82 376 42 427 c 1,49,50
 46 447 46 447 57 458 c 128,-1,51
 68 469 68 469 84 469 c 0,52,53
 101 469 101 469 111 460.5 c 128,-1,54
 121 452 121 452 131 438 c 0,55,56
 161 398 161 398 194 350.5 c 128,-1,57
 227 303 227 303 263 259 c 1,32,-1
EndSplineSet
EndChar

StartChar: Y
Encoding: 89 89 59
Width: 557
GlyphClass: 2
Flags: W
LayerCount: 2
Fore
SplineSet
109 153 m 1,0,-1
 52 135 l 1,1,2
 41 140 41 140 34 150.5 c 128,-1,3
 27 161 27 161 27 171 c 0,4,5
 27 184 27 184 33 191 c 128,-1,6
 39 198 39 198 51 202 c 2,7,-1
 122 225 l 2,8,9
 133 228 133 228 138 228 c 0,10,11
 149 228 149 228 156 223 c 128,-1,12
 163 218 163 218 169 204 c 2,13,-1
 268 -15 l 1,14,-1
 430 669 l 1,15,16
 436 671 436 671 442.5 672.5 c 128,-1,17
 449 674 449 674 456 674 c 0,18,19
 474 674 474 674 486 665.5 c 128,-1,20
 498 657 498 657 498 639 c 0,21,22
 498 629 498 629 495 615 c 128,-1,23
 492 601 492 601 487 584 c 2,24,-1
 317 -104 l 1,25,26
 311 -109 311 -109 299.5 -113.5 c 128,-1,27
 288 -118 288 -118 275 -118 c 0,28,29
 259 -118 259 -118 247 -113 c 128,-1,30
 235 -108 235 -108 230 -99 c 2,31,-1
 109 153 l 1,0,-1
EndSplineSet
EndChar

StartChar: Z
Encoding: 90 90 60
Width: 520
GlyphClass: 2
Flags: W
LayerCount: 2
Fore
SplineSet
156 88 m 2,0,-1
 323 559 l 1,1,2
 328 561 328 561 333.5 561.5 c 128,-1,3
 339 562 339 562 343 562 c 0,4,5
 357 562 357 562 367.5 555 c 128,-1,6
 378 548 378 548 378 534 c 0,7,8
 378 527 378 527 376.5 520 c 128,-1,9
 375 513 375 513 371 503 c 2,10,-1
 206 35 l 1,11,12
 201 34 201 34 195.5 33 c 128,-1,13
 190 32 190 32 185 32 c 0,14,15
 170 32 170 32 160.5 40 c 128,-1,16
 151 48 151 48 151 61 c 0,17,18
 151 68 151 68 152.5 74.5 c 128,-1,19
 154 81 154 81 156 88 c 2,0,-1
431 363 m 2,20,-1
 58 363 l 1,21,22
 55 369 55 369 53 377 c 128,-1,23
 51 385 51 385 51 394 c 0,24,25
 51 411 51 411 60.5 419.5 c 128,-1,26
 70 428 70 428 86 428 c 2,27,-1
 460 428 l 1,28,29
 462 422 462 422 464 414.5 c 128,-1,30
 466 407 466 407 466 397 c 0,31,32
 466 381 466 381 457 372 c 128,-1,33
 448 363 448 363 431 363 c 2,20,-1
431 161 m 2,34,-1
 58 161 l 1,35,36
 55 167 55 167 53 174.5 c 128,-1,37
 51 182 51 182 51 192 c 0,38,39
 51 209 51 209 60.5 217.5 c 128,-1,40
 70 226 70 226 86 226 c 2,41,-1
 460 226 l 1,42,43
 462 220 462 220 464 212 c 128,-1,44
 466 204 466 204 466 195 c 0,45,46
 466 179 466 179 457 170 c 128,-1,47
 448 161 448 161 431 161 c 2,34,-1
EndSplineSet
EndChar

StartChar: bracketleft
Encoding: 91 91 61
Width: 268
GlyphClass: 2
Flags: W
LayerCount: 2
Fore
SplineSet
252 651 m 1,0,1
 254 645 254 645 256 638 c 128,-1,2
 258 631 258 631 258 621 c 0,3,4
 258 588 258 588 224 588 c 2,5,-1
 142 588 l 1,6,-1
 142 -46 l 1,7,-1
 252 -46 l 1,8,9
 254 -53 254 -53 256 -60 c 128,-1,10
 258 -67 258 -67 258 -77 c 0,11,12
 258 -110 258 -110 224 -110 c 2,13,-1
 110 -110 l 2,14,15
 90 -110 90 -110 79.5 -99 c 128,-1,16
 69 -88 69 -88 69 -69 c 2,17,-1
 69 611 l 2,18,19
 69 651 69 651 110 651 c 2,20,-1
 252 651 l 1,0,1
EndSplineSet
EndChar

StartChar: backslash
Encoding: 92 92 62
Width: 341
GlyphClass: 2
Flags: W
LayerCount: 2
Fore
SplineSet
300 -46 m 1,0,1
 292 -53 292 -53 280.5 -58.5 c 128,-1,2
 269 -64 269 -64 258 -64 c 0,3,4
 230 -64 230 -64 223 -38 c 2,5,-1
 33 647 l 1,6,7
 41 655 41 655 52.5 660 c 128,-1,8
 64 665 64 665 75 665 c 0,9,10
 103 665 103 665 110 639 c 2,11,-1
 300 -46 l 1,0,1
EndSplineSet
EndChar

StartChar: bracketright
Encoding: 93 93 63
Width: 269
GlyphClass: 2
Flags: W
LayerCount: 2
Fore
SplineSet
16 -110 m 1,0,1
 14 -104 14 -104 12 -96.5 c 128,-1,2
 10 -89 10 -89 10 -80 c 0,3,4
 10 -46 10 -46 45 -46 c 2,5,-1
 126 -46 l 1,6,-1
 126 588 l 1,7,-1
 16 588 l 1,8,9
 14 594 14 594 12 601.5 c 128,-1,10
 10 609 10 609 10 618 c 0,11,12
 10 651 10 651 45 651 c 2,13,-1
 158 651 l 2,14,15
 199 651 199 651 199 611 c 2,16,-1
 199 -69 l 2,17,18
 199 -88 199 -88 188.5 -99 c 128,-1,19
 178 -110 178 -110 158 -110 c 2,20,-1
 16 -110 l 1,0,1
EndSplineSet
EndChar

StartChar: asciicircum
Encoding: 94 94 64
Width: 463
GlyphClass: 2
Flags: W
LayerCount: 2
Fore
SplineSet
194 646 m 0,0,1
 199 650 199 650 209 652.5 c 128,-1,2
 219 655 219 655 230 655 c 0,3,4
 244 655 244 655 253.5 652 c 128,-1,5
 263 649 263 649 267 641 c 0,6,7
 281 616 281 616 300.5 577.5 c 128,-1,8
 320 539 320 539 340.5 497 c 128,-1,9
 361 455 361 455 379.5 414 c 128,-1,10
 398 373 398 373 409 343 c 1,11,12
 404 335 404 335 394 329.5 c 128,-1,13
 384 324 384 324 372 324 c 0,14,15
 356 324 356 324 346.5 330.5 c 128,-1,16
 337 337 337 337 329 357 c 2,17,-1
 232 573 l 1,18,-1
 225 573 l 1,19,20
 221 564 221 564 208.5 537 c 128,-1,21
 196 510 196 510 180.5 475 c 128,-1,22
 165 440 165 440 149 401.5 c 128,-1,23
 133 363 133 363 123 332 c 1,24,25
 116 328 116 328 107.5 325.5 c 128,-1,26
 99 323 99 323 88 323 c 0,27,28
 74 323 74 323 64 329.5 c 128,-1,29
 54 336 54 336 54 353 c 0,30,31
 54 360 54 360 63 382.5 c 128,-1,32
 72 405 72 405 86 435.5 c 128,-1,33
 100 466 100 466 117 500 c 128,-1,34
 134 534 134 534 149.5 564 c 128,-1,35
 165 594 165 594 177 616.5 c 128,-1,36
 189 639 189 639 194 646 c 0,0,1
EndSplineSet
EndChar

StartChar: underscore
Encoding: 95 95 65
Width: 465
GlyphClass: 2
Flags: W
LayerCount: 2
Fore
SplineSet
6 -123 m 1,0,1
 4 -117 4 -117 2 -109.5 c 128,-1,2
 0 -102 0 -102 0 -92 c 0,3,4
 0 -58 0 -58 35 -58 c 2,5,-1
 458 -58 l 1,6,7
 460 -64 460 -64 462.5 -72 c 128,-1,8
 465 -80 465 -80 465 -89 c 0,9,10
 465 -123 465 -123 430 -123 c 2,11,-1
 6 -123 l 1,0,1
EndSplineSet
EndChar

StartChar: grave
Encoding: 96 96 66
Width: 302
GlyphClass: 2
Flags: W
LayerCount: 2
Fore
SplineSet
59 634 m 1,0,1
 57 644 57 644 57 647 c 0,2,3
 57 663 57 663 67.5 673 c 128,-1,4
 78 683 78 683 95 683 c 0,5,6
 116 683 116 683 130 666 c 2,7,-1
 220 553 l 1,8,9
 219 537 219 537 210 527.5 c 128,-1,10
 201 518 201 518 187 518 c 0,11,12
 176 518 176 518 168.5 522 c 128,-1,13
 161 526 161 526 153 534 c 2,14,-1
 59 634 l 1,0,1
EndSplineSet
EndChar

StartChar: a
Encoding: 97 97 67
Width: 499
GlyphClass: 2
Flags: W
LayerCount: 2
Fore
SplineSet
240 52 m 0,0,1
 282 52 282 52 309.5 60.5 c 128,-1,2
 337 69 337 69 349 77 c 1,3,-1
 349 222 l 1,4,-1
 225 209 l 2,5,6
 173 204 173 204 148 185.5 c 128,-1,7
 123 167 123 167 123 131 c 0,8,9
 123 93 123 93 152 72.5 c 128,-1,10
 181 52 181 52 240 52 c 0,0,1
239 475 m 0,11,12
 326 475 326 475 377 436 c 128,-1,13
 428 397 428 397 428 313 c 2,14,-1
 428 76 l 2,15,16
 428 54 428 54 419.5 42.5 c 128,-1,17
 411 31 411 31 394 21 c 0,18,19
 370 7 370 7 330.5 -3.5 c 128,-1,20
 291 -14 291 -14 240 -14 c 0,21,22
 146 -14 146 -14 94.5 23 c 128,-1,23
 43 60 43 60 43 130 c 0,24,25
 43 196 43 196 86 229.5 c 128,-1,26
 129 263 129 263 207 271 c 2,27,-1
 349 285 l 1,28,-1
 349 313 l 2,29,30
 349 363 349 363 319 386 c 128,-1,31
 289 409 289 409 238 409 c 0,32,33
 196 409 196 409 159 397 c 128,-1,34
 122 385 122 385 93 370 c 1,35,36
 85 377 85 377 78.5 386 c 128,-1,37
 72 395 72 395 72 406 c 0,38,39
 72 420 72 420 79 429 c 128,-1,40
 86 438 86 438 101 446 c 0,41,42
 128 460 128 460 163 467.5 c 128,-1,43
 198 475 198 475 239 475 c 0,11,12
EndSplineSet
Substitution2: "Single Substitution lookup 72 subtable" ordfeminine
Substitution2: "'aalt' Access All Alternates lookup 0 subtable" ordfeminine
EndChar

StartChar: b
Encoding: 98 98 68
Width: 568
GlyphClass: 2
Flags: W
AnchorPoint: "Anchor-3" 568 0 basechar 0
AnchorPoint: "Anchor-1" 568 0 basechar 0
AnchorPoint: "Anchor-0" 568 0 basechar 0
LayerCount: 2
Fore
SplineSet
459 561 m 1,0,-1
 459 0 l 1,1,2
 453 -5 453 -5 442.5 -8 c 128,-1,3
 432 -11 432 -11 420 -11 c 0,4,5
 414 -11 414 -11 410 -10 c 0,6,7
 315 69 315 69 222.5 129 c 128,-1,8
 130 189 130 189 33 243 c 1,9,10
 29 252 29 252 26.5 265 c 128,-1,11
 24 278 24 278 24 292 c 0,12,13
 24 295 24 295 24 300.5 c 128,-1,14
 24 306 24 306 25 311 c 0,15,16
 61 337 61 337 106.5 362.5 c 128,-1,17
 152 388 152 388 200 411 c 128,-1,18
 248 434 248 434 297 452.5 c 128,-1,19
 346 471 346 471 390 483 c 1,20,-1
 390 561 l 1,21,-1
 -2 561 l 2,22,23
 -30 561 -30 561 -30 591 c 0,24,25
 -30 597 -30 597 -29 604 c 128,-1,26
 -28 611 -28 611 -26 619 c 1,27,-1
 566 619 l 2,28,29
 594 619 594 619 594 589 c 0,30,31
 594 583 594 583 593 576 c 128,-1,32
 592 569 592 569 590 561 c 1,33,-1
 459 561 l 1,0,-1
390 416 m 1,34,35
 353 406 353 406 314 391.5 c 128,-1,36
 275 377 275 377 237 359.5 c 128,-1,37
 199 342 199 342 162.5 322 c 128,-1,38
 126 302 126 302 95 282 c 1,39,40
 146 253 146 253 192.5 223.5 c 128,-1,41
 239 194 239 194 279 166.5 c 128,-1,42
 319 139 319 139 350 115.5 c 128,-1,43
 381 92 381 92 400 76 c 1,44,45
 398 91 398 91 396.5 113.5 c 128,-1,46
 395 136 395 136 393.5 160.5 c 128,-1,47
 392 185 392 185 391 208 c 128,-1,48
 390 231 390 231 390 246 c 2,49,-1
 390 416 l 1,34,35
EndSplineSet
EndChar

StartChar: c
Encoding: 99 99 69
Width: 538
GlyphClass: 2
Flags: W
AnchorPoint: "Anchor-3" 494 1 basechar 0
AnchorPoint: "Anchor-1" 432 0 basechar 0
AnchorPoint: "Anchor-0" 281 0 basechar 0
LayerCount: 2
Fore
SplineSet
152 561 m 1,0,-1
 152 451 l 1,1,-1
 350 406 l 2,2,3
 420 389 420 389 451.5 356 c 128,-1,4
 483 323 483 323 483 263 c 0,5,6
 483 213 483 213 462 166.5 c 128,-1,7
 441 120 441 120 406.5 84 c 128,-1,8
 372 48 372 48 327 26.5 c 128,-1,9
 282 5 282 5 234 5 c 0,10,11
 159 5 159 5 121 45 c 128,-1,12
 83 85 83 85 83 161 c 2,13,-1
 83 561 l 1,14,-1
 2 561 l 2,15,16
 -26 561 -26 561 -26 591 c 0,17,18
 -26 597 -26 597 -25 604 c 128,-1,19
 -24 611 -24 611 -22 619 c 1,20,-1
 526 619 l 2,21,22
 554 619 554 619 554 589 c 0,23,24
 554 583 554 583 553 576 c 128,-1,25
 552 569 552 569 550 561 c 1,26,-1
 152 561 l 1,0,-1
152 385 m 1,27,-1
 152 161 l 2,28,29
 152 112 152 112 170.5 90 c 128,-1,30
 189 68 189 68 234 68 c 0,31,32
 268 68 268 68 300 85.5 c 128,-1,33
 332 103 332 103 356.5 130.5 c 128,-1,34
 381 158 381 158 395.5 192 c 128,-1,35
 410 226 410 226 410 259 c 0,36,37
 410 280 410 280 404.5 294 c 128,-1,38
 399 308 399 308 387.5 318 c 128,-1,39
 376 328 376 328 357.5 335 c 128,-1,40
 339 342 339 342 313 348 c 2,41,-1
 152 385 l 1,27,-1
EndSplineSet
EndChar

StartChar: d
Encoding: 100 100 70
Width: 656
GlyphClass: 2
Flags: W
AnchorPoint: "Anchor-3" 586 0 basechar 0
AnchorPoint: "Anchor-1" 464 0 basechar 0
AnchorPoint: "Anchor-0" 469 0 basechar 0
LayerCount: 2
Fore
SplineSet
334 561 m 1,0,-1
 334 341 l 1,1,2
 362 356 362 356 405.5 381.5 c 128,-1,3
 449 407 449 407 489 433 c 1,4,5
 508 420 508 420 528 400.5 c 128,-1,6
 548 381 548 381 564 355 c 128,-1,7
 580 329 580 329 590 297 c 128,-1,8
 600 265 600 265 600 226 c 0,9,10
 600 174 600 174 580.5 133.5 c 128,-1,11
 561 93 561 93 527.5 65.5 c 128,-1,12
 494 38 494 38 449 24 c 128,-1,13
 404 10 404 10 353 10 c 0,14,15
 294 10 294 10 241 29.5 c 128,-1,16
 188 49 188 49 146 90 c 128,-1,17
 104 131 104 131 75.5 195.5 c 128,-1,18
 47 260 47 260 38 349 c 0,19,20
 36 362 36 362 36 370 c 128,-1,21
 36 378 36 378 36 386 c 0,22,23
 36 418 36 418 48.5 431 c 128,-1,24
 61 444 61 444 81 444 c 0,25,26
 89 444 89 444 95.5 442 c 128,-1,27
 102 440 102 440 107 438 c 1,28,-1
 108 412 l 2,29,30
 112 310 112 310 135 244 c 128,-1,31
 158 178 158 178 193.5 140 c 128,-1,32
 229 102 229 102 272 87.5 c 128,-1,33
 315 73 315 73 358 73 c 0,34,35
 391 73 391 73 421.5 83 c 128,-1,36
 452 93 452 93 475.5 112.5 c 128,-1,37
 499 132 499 132 513 160.5 c 128,-1,38
 527 189 527 189 527 226 c 0,39,40
 527 271 527 271 512 304.5 c 128,-1,41
 497 338 497 338 477 358 c 1,42,43
 460 348 460 348 439 335.5 c 128,-1,44
 418 323 418 323 396 311 c 128,-1,45
 374 299 374 299 353 287.5 c 128,-1,46
 332 276 332 276 315 269 c 1,47,48
 304 273 304 273 288.5 283.5 c 128,-1,49
 273 294 273 294 265 305 c 1,50,-1
 265 561 l 1,51,-1
 -2 561 l 2,52,53
 -30 561 -30 561 -30 591 c 0,54,55
 -30 597 -30 597 -29 604 c 128,-1,56
 -28 611 -28 611 -26 619 c 1,57,-1
 640 619 l 2,58,59
 668 619 668 619 668 589 c 0,60,61
 668 583 668 583 667 576 c 128,-1,62
 666 569 666 569 664 561 c 1,63,-1
 334 561 l 1,0,-1
EndSplineSet
EndChar

StartChar: e
Encoding: 101 101 71
Width: 519
GlyphClass: 2
Flags: W
LayerCount: 2
Fore
SplineSet
132 184 m 1,0,1
 159 53 159 53 304 53 c 0,2,3
 346 53 346 53 380 67 c 128,-1,4
 414 81 414 81 434 97 c 1,5,6
 458 83 458 83 458 59 c 0,7,8
 458 45 458 45 445.5 32 c 128,-1,9
 433 19 433 19 411.5 9 c 128,-1,10
 390 -1 390 -1 361.5 -7 c 128,-1,11
 333 -13 333 -13 300 -13 c 0,12,13
 184 -13 184 -13 116.5 50 c 128,-1,14
 49 113 49 113 49 234 c 0,15,16
 49 291 49 291 65.5 335.5 c 128,-1,17
 82 380 82 380 111.5 411 c 128,-1,18
 141 442 141 442 182 458.5 c 128,-1,19
 223 475 223 475 271 475 c 0,20,21
 316 475 316 475 354 460 c 128,-1,22
 392 445 392 445 419.5 417.5 c 128,-1,23
 447 390 447 390 462.5 352.5 c 128,-1,24
 478 315 478 315 478 270 c 0,25,26
 478 248 478 248 468 238.5 c 128,-1,27
 458 229 458 229 440 227 c 2,28,-1
 132 184 l 1,0,1
270 410 m 0,29,30
 209 410 209 410 169 367.5 c 128,-1,31
 129 325 129 325 127 246 c 1,32,-1
 402 284 l 1,33,34
 397 339 397 339 363.5 374.5 c 128,-1,35
 330 410 330 410 270 410 c 0,29,30
EndSplineSet
EndChar

StartChar: f
Encoding: 102 102 72
Width: 589
GlyphClass: 2
Flags: W
AnchorPoint: "Anchor-3" 589 0 basechar 0
AnchorPoint: "Anchor-1" 589 0 basechar 0
AnchorPoint: "Anchor-0" 589 0 basechar 0
LayerCount: 2
Fore
SplineSet
219 148 m 4,0,1
 219 172 219 172 233.5 188 c 132,-1,2
 248 204 248 204 274 204 c 260,3,4
 300 204 300 204 314 188 c 132,-1,5
 328 172 328 172 328 148 c 4,6,7
 328 125 328 125 314 109 c 132,-1,8
 300 93 300 93 274 93 c 260,9,10
 248 93 248 93 233.5 109 c 132,-1,11
 219 125 219 125 219 148 c 4,0,1
480 561 m 1,12,-1
 480 0 l 1,13,14
 474 -2 474 -2 466.5 -3 c 128,-1,15
 459 -4 459 -4 451 -4 c 0,16,17
 432 -4 432 -4 421.5 3 c 128,-1,18
 411 10 411 10 411 27 c 2,19,-1
 411 215 l 1,20,21
 397 240 397 240 376 264 c 128,-1,22
 355 288 355 288 330.5 307 c 128,-1,23
 306 326 306 326 277.5 338 c 128,-1,24
 249 350 249 350 220 350 c 0,25,26
 177 350 177 350 153.5 328 c 128,-1,27
 130 306 130 306 130 271 c 0,28,29
 130 251 130 251 136 236.5 c 128,-1,30
 142 222 142 222 148 211 c 1,31,32
 143 202 143 202 134 194.5 c 128,-1,33
 125 187 125 187 110 187 c 0,34,35
 87 187 87 187 69 209 c 128,-1,36
 51 231 51 231 51 273 c 0,37,38
 51 309 51 309 65 336 c 128,-1,39
 79 363 79 363 101.5 381 c 128,-1,40
 124 399 124 399 152.5 407.5 c 128,-1,41
 181 416 181 416 210 416 c 0,42,43
 245 416 245 416 275 407 c 128,-1,44
 305 398 305 398 330 383.5 c 128,-1,45
 355 369 355 369 375 351 c 128,-1,46
 395 333 395 333 411 314 c 1,47,-1
 411 561 l 1,48,-1
 -2 561 l 2,49,50
 -30 561 -30 561 -30 591 c 0,51,52
 -30 597 -30 597 -29 604 c 128,-1,53
 -28 611 -28 611 -26 619 c 1,54,-1
 587 619 l 2,55,56
 615 619 615 619 615 589 c 0,57,58
 615 583 615 583 614 576 c 128,-1,59
 613 569 613 569 611 561 c 1,60,-1
 480 561 l 1,12,-1
EndSplineSet
EndChar

StartChar: g
Encoding: 103 103 73
Width: 640
GlyphClass: 2
Flags: W
AnchorPoint: "Anchor-3" 640 0 basechar 0
AnchorPoint: "Anchor-1" 640 0 basechar 0
AnchorPoint: "Anchor-0" 640 0 basechar 0
LayerCount: 2
Fore
SplineSet
638 619 m 2,0,1
 666 619 666 619 666 589 c 0,2,3
 666 583 666 583 665 576 c 128,-1,4
 664 569 664 569 662 561 c 1,5,-1
 531 561 l 1,6,-1
 531 -2 l 1,7,8
 525 -4 525 -4 517.5 -5 c 128,-1,9
 510 -6 510 -6 502 -6 c 0,10,11
 483 -6 483 -6 472.5 1 c 128,-1,12
 462 8 462 8 462 25 c 2,13,-1
 462 463 l 1,14,15
 448 484 448 484 428.5 502.5 c 128,-1,16
 409 521 409 521 385.5 535 c 128,-1,17
 362 549 362 549 335 557.5 c 128,-1,18
 308 566 308 566 279 566 c 0,19,20
 239 566 239 566 207.5 554 c 128,-1,21
 176 542 176 542 154.5 521 c 128,-1,22
 133 500 133 500 120.5 471.5 c 128,-1,23
 108 443 108 443 105 411 c 1,24,25
 126 418 126 418 152 424.5 c 128,-1,26
 178 431 178 431 210 431 c 0,27,28
 239 431 239 431 262 422 c 128,-1,29
 285 413 285 413 301.5 398 c 128,-1,30
 318 383 318 383 326.5 362.5 c 128,-1,31
 335 342 335 342 335 320 c 0,32,33
 335 232 335 232 227 161 c 0,34,35
 213 153 213 153 200.5 147.5 c 128,-1,36
 188 142 188 142 174 142 c 256,37,38
 160 142 160 142 151 152.5 c 128,-1,39
 142 163 142 163 137 181 c 1,40,41
 158 193 158 193 181 208.5 c 128,-1,42
 204 224 204 224 222.5 242 c 128,-1,43
 241 260 241 260 253.5 279.5 c 128,-1,44
 266 299 266 299 266 319 c 0,45,46
 266 342 266 342 249.5 356 c 128,-1,47
 233 370 233 370 204 370 c 0,48,49
 190 370 190 370 170 366.5 c 128,-1,50
 150 363 150 363 132 358 c 2,51,-1
 93 348 l 2,52,53
 87 346 87 346 80 344.5 c 128,-1,54
 73 343 73 343 67 343 c 0,55,56
 52 343 52 343 43.5 360 c 128,-1,57
 35 377 35 377 35 408 c 0,58,59
 35 453 35 453 51.5 493 c 128,-1,60
 68 533 68 533 99.5 563 c 128,-1,61
 131 593 131 593 175.5 611 c 128,-1,62
 220 629 220 629 276 629 c 0,63,64
 337 629 337 629 383.5 605.5 c 128,-1,65
 430 582 430 582 462 552 c 1,66,-1
 462 562 l 2,67,68
 462 585 462 585 477 602 c 128,-1,69
 492 619 492 619 522 619 c 2,70,-1
 638 619 l 2,0,1
EndSplineSet
EndChar

StartChar: h
Encoding: 104 104 74
Width: 551
GlyphClass: 2
Flags: W
LayerCount: 2
Fore
SplineSet
157 2 m 1,0,1
 152 0 152 0 142 -2.5 c 128,-1,2
 132 -5 132 -5 120 -5 c 0,3,4
 77 -5 77 -5 77 31 c 2,5,-1
 77 648 l 1,6,7
 82 650 82 650 92.5 652.5 c 128,-1,8
 103 655 103 655 115 655 c 0,9,10
 157 655 157 655 157 619 c 2,11,-1
 157 439 l 1,12,13
 181 453 181 453 213.5 464 c 128,-1,14
 246 475 246 475 287 475 c 0,15,16
 329 475 329 475 363.5 464 c 128,-1,17
 398 453 398 453 423 430.5 c 128,-1,18
 448 408 448 408 462 373.5 c 128,-1,19
 476 339 476 339 476 293 c 2,20,-1
 476 2 l 1,21,22
 471 0 471 0 460.5 -2.5 c 128,-1,23
 450 -5 450 -5 439 -5 c 0,24,25
 396 -5 396 -5 396 31 c 2,26,-1
 396 291 l 2,27,28
 396 351 396 351 363 380 c 128,-1,29
 330 409 330 409 276 409 c 0,30,31
 241 409 241 409 210.5 396.5 c 128,-1,32
 180 384 180 384 157 366 c 1,33,-1
 157 2 l 1,34,-1
 157 2 l 1,0,1
EndSplineSet
EndChar

StartChar: i
Encoding: 105 105 75
Width: 241
GlyphClass: 2
Flags: W
LayerCount: 2
Fore
SplineSet
160 2 m 1,0,1
 155 0 155 0 145 -2.5 c 128,-1,2
 135 -5 135 -5 123 -5 c 0,3,4
 80 -5 80 -5 80 31 c 2,5,-1
 80 460 l 1,6,7
 85 462 85 462 95.5 464.5 c 128,-1,8
 106 467 106 467 118 467 c 0,9,10
 160 467 160 467 160 430 c 2,11,-1
 160 2 l 1,0,1
68 608 m 256,12,13
 68 629 68 629 82.5 643.5 c 128,-1,14
 97 658 97 658 120 658 c 256,15,16
 143 658 143 658 157 643.5 c 128,-1,17
 171 629 171 629 171 608 c 256,18,19
 171 587 171 587 157 572.5 c 128,-1,20
 143 558 143 558 120 558 c 256,21,22
 97 558 97 558 82.5 572.5 c 128,-1,23
 68 587 68 587 68 608 c 256,12,13
EndSplineSet
Substitution2: "Single Substitution lookup 74 subtable" i.loclTRK
Substitution2: "'aalt' Access All Alternates lookup 0 subtable" i.loclTRK
EndChar

StartChar: j
Encoding: 106 106 76
Width: 522
GlyphClass: 2
Flags: W
AnchorPoint: "Anchor-3" 459 0 basechar 0
AnchorPoint: "Anchor-1" 416 0 basechar 0
AnchorPoint: "Anchor-0" 410 0 basechar 0
LayerCount: 2
Fore
SplineSet
47 164 m 1,0,1
 43 175 43 175 43 186 c 0,2,3
 43 209 43 209 54 222 c 1,4,5
 76 220 76 220 101 218 c 128,-1,6
 126 216 126 216 149 216 c 0,7,8
 258 216 258 216 314 260.5 c 128,-1,9
 370 305 370 305 370 378 c 0,10,11
 370 434 370 434 337 468 c 128,-1,12
 304 502 304 502 253 502 c 0,13,14
 206 502 206 502 174.5 472.5 c 128,-1,15
 143 443 143 443 143 390 c 0,16,17
 143 376 143 376 146.5 361.5 c 128,-1,18
 150 347 150 347 155 338 c 1,19,20
 144 320 144 320 120 320 c 0,21,22
 100 320 100 320 84.5 338.5 c 128,-1,23
 69 357 69 357 69 397 c 0,24,25
 69 431 69 431 82 460 c 128,-1,26
 95 489 95 489 117 510.5 c 128,-1,27
 139 532 139 532 168 545 c 128,-1,28
 197 558 197 558 230 561 c 2,29,-1
 -2 561 l 2,30,31
 -30 561 -30 561 -30 591 c 0,32,33
 -30 597 -30 597 -29 604 c 128,-1,34
 -28 611 -28 611 -26 619 c 1,35,-1
 516 619 l 2,36,37
 544 619 544 619 544 589 c 0,38,39
 544 583 544 583 543 576 c 128,-1,40
 542 569 542 569 540 561 c 1,41,-1
 274 561 l 2,42,43
 307 558 307 558 337.5 544 c 128,-1,44
 368 530 368 530 391.5 507 c 128,-1,45
 415 484 415 484 429 451 c 128,-1,46
 443 418 443 418 443 377 c 0,47,48
 443 325 443 325 423 285.5 c 128,-1,49
 403 246 403 246 367.5 219 c 128,-1,50
 332 192 332 192 284 178 c 128,-1,51
 236 164 236 164 179 164 c 1,52,53
 279 122 279 122 348 91.5 c 128,-1,54
 417 61 417 61 454 41 c 0,55,56
 468 33 468 33 474.5 25 c 128,-1,57
 481 17 481 17 481 3 c 256,58,59
 481 -11 481 -11 473 -22 c 128,-1,60
 465 -33 465 -33 452 -39 c 1,61,62
 392 -6 392 -6 343 20 c 128,-1,63
 294 46 294 46 247.5 69.5 c 128,-1,64
 201 93 201 93 153 115.5 c 128,-1,65
 105 138 105 138 47 164 c 1,0,1
EndSplineSet
EndChar

StartChar: k
Encoding: 107 107 77
Width: 745
GlyphClass: 2
Flags: W
AnchorPoint: "Anchor-3" 558 0 basechar 0
AnchorPoint: "Anchor-1" 572 0 basechar 0
AnchorPoint: "Anchor-0" 565 0 basechar 0
LayerCount: 2
Fore
SplineSet
449 561 m 1,0,-1
 449 482 l 1,1,2
 506 479 506 479 552 465 c 128,-1,3
 598 451 598 451 631 427 c 128,-1,4
 664 403 664 403 682 370.5 c 128,-1,5
 700 338 700 338 700 298 c 0,6,7
 700 264 700 264 689 238 c 128,-1,8
 678 212 678 212 659.5 194.5 c 128,-1,9
 641 177 641 177 617.5 168 c 128,-1,10
 594 159 594 159 570 159 c 0,11,12
 523 159 523 159 523 199 c 0,13,14
 523 211 523 211 527 221 c 1,15,-1
 543 221 l 2,16,17
 583 221 583 221 605 242 c 128,-1,18
 627 263 627 263 627 298 c 0,19,20
 627 352 627 352 577.5 382.5 c 128,-1,21
 528 413 528 413 449 419 c 1,22,-1
 449 0 l 1,23,24
 443 -5 443 -5 432.5 -8 c 128,-1,25
 422 -11 422 -11 410 -11 c 0,26,27
 404 -11 404 -11 400 -10 c 0,28,29
 307 69 307 69 217.5 129 c 128,-1,30
 128 189 128 189 33 243 c 1,31,32
 29 252 29 252 26.5 265 c 128,-1,33
 24 278 24 278 24 292 c 0,34,35
 24 295 24 295 24 300.5 c 128,-1,36
 24 306 24 306 25 311 c 0,37,38
 60 337 60 337 104 362.5 c 128,-1,39
 148 388 148 388 195 411 c 128,-1,40
 242 434 242 434 289.5 452.5 c 128,-1,41
 337 471 337 471 380 483 c 1,42,-1
 380 561 l 1,43,-1
 -5 561 l 2,44,45
 -33 561 -33 561 -33 591 c 0,46,47
 -33 597 -33 597 -32 604 c 128,-1,48
 -31 611 -31 611 -29 619 c 1,49,-1
 747 619 l 2,50,51
 775 619 775 619 775 589 c 0,52,53
 775 583 775 583 774 576 c 128,-1,54
 773 569 773 569 771 561 c 1,55,-1
 449 561 l 1,0,-1
380 416 m 1,56,57
 308 396 308 396 232 359.5 c 128,-1,58
 156 323 156 323 95 282 c 1,59,60
 144 253 144 253 189.5 223.5 c 128,-1,61
 235 194 235 194 273.5 166.5 c 128,-1,62
 312 139 312 139 342 115.5 c 128,-1,63
 372 92 372 92 390 76 c 1,64,65
 388 91 388 91 386.5 113.5 c 128,-1,66
 385 136 385 136 383.5 160.5 c 128,-1,67
 382 185 382 185 381 208 c 128,-1,68
 380 231 380 231 380 246 c 2,69,-1
 380 416 l 1,56,57
EndSplineSet
EndChar

StartChar: l
Encoding: 108 108 78
Width: 703
GlyphClass: 2
Flags: W
AnchorPoint: "Anchor-3" 703 0 basechar 0
AnchorPoint: "Anchor-1" 703 0 basechar 0
AnchorPoint: "Anchor-0" 703 0 basechar 0
LayerCount: 2
Fore
SplineSet
594 561 m 1,0,-1
 594 0 l 1,1,2
 588 -2 588 -2 580.5 -3 c 128,-1,3
 573 -4 573 -4 565 -4 c 0,4,5
 546 -4 546 -4 535.5 3 c 128,-1,6
 525 10 525 10 525 27 c 2,7,-1
 525 393 l 1,8,9
 518 395 518 395 509.5 396.5 c 128,-1,10
 501 398 501 398 488 398 c 0,11,12
 451 398 451 398 425.5 370.5 c 128,-1,13
 400 343 400 343 394 294 c 2,14,-1
 389 253 l 1,15,16
 377 244 377 244 357 244 c 0,17,18
 351 244 351 244 342 246 c 128,-1,19
 333 248 333 248 328 253 c 1,20,-1
 320 300 l 2,21,22
 312 345 312 345 283 371.5 c 128,-1,23
 254 398 254 398 212 398 c 256,24,25
 170 398 170 398 141 369.5 c 128,-1,26
 112 341 112 341 112 292 c 0,27,28
 112 264 112 264 121 244 c 128,-1,29
 130 224 130 224 145 211 c 128,-1,30
 160 198 160 198 178.5 192 c 128,-1,31
 197 186 197 186 216 186 c 0,32,33
 227 186 227 186 233.5 187 c 128,-1,34
 240 188 240 188 244 190 c 1,35,36
 247 185 247 185 249.5 177.5 c 128,-1,37
 252 170 252 170 252 162 c 0,38,39
 252 124 252 124 199 124 c 0,40,41
 172 124 172 124 143.5 134 c 128,-1,42
 115 144 115 144 91.5 164.5 c 128,-1,43
 68 185 68 185 53.5 216.5 c 128,-1,44
 39 248 39 248 39 292 c 0,45,46
 39 333 39 333 53 364.5 c 128,-1,47
 67 396 67 396 90 417.5 c 128,-1,48
 113 439 113 439 143 450 c 128,-1,49
 173 461 173 461 206 461 c 0,50,51
 263 461 263 461 302 433.5 c 128,-1,52
 341 406 341 406 358 361 c 1,53,54
 372 410 372 410 406 435.5 c 128,-1,55
 440 461 440 461 486 461 c 0,56,57
 507 461 507 461 525 456 c 1,58,-1
 525 561 l 1,59,-1
 -2 561 l 2,60,61
 -30 561 -30 561 -30 591 c 0,62,63
 -30 597 -30 597 -29 604 c 128,-1,64
 -28 611 -28 611 -26 619 c 1,65,-1
 701 619 l 2,66,67
 729 619 729 619 729 589 c 0,68,69
 729 583 729 583 728 576 c 128,-1,70
 727 569 727 569 725 561 c 1,71,-1
 594 561 l 1,0,-1
EndSplineSet
EndChar

StartChar: m
Encoding: 109 109 79
Width: 623
GlyphClass: 2
Flags: W
AnchorPoint: "Anchor-3" 623 0 basechar 0
AnchorPoint: "Anchor-1" 623 0 basechar 0
AnchorPoint: "Anchor-0" 623 0 basechar 0
LayerCount: 2
Fore
SplineSet
514 561 m 1,0,-1
 514 0 l 1,1,2
 508 -2 508 -2 500.5 -3 c 128,-1,3
 493 -4 493 -4 485 -4 c 0,4,5
 466 -4 466 -4 455.5 3 c 128,-1,6
 445 10 445 10 445 27 c 2,7,-1
 445 173 l 1,8,9
 404 231 404 231 349.5 268.5 c 128,-1,10
 295 306 295 306 236 306 c 0,11,12
 185 306 185 306 160 281.5 c 128,-1,13
 135 257 135 257 135 223 c 0,14,15
 135 188 135 188 159.5 167.5 c 128,-1,16
 184 147 184 147 224 147 c 0,17,18
 249 147 249 147 265 152 c 128,-1,19
 281 157 281 157 295 165 c 1,20,21
 303 157 303 157 306.5 148.5 c 128,-1,22
 310 140 310 140 310 132 c 0,23,24
 310 114 310 114 289 100 c 128,-1,25
 268 86 268 86 220 86 c 0,26,27
 188 86 188 86 159.5 95 c 128,-1,28
 131 104 131 104 109 121.5 c 128,-1,29
 87 139 87 139 74.5 165 c 128,-1,30
 62 191 62 191 62 224 c 0,31,32
 62 265 62 265 80 293.5 c 128,-1,33
 98 322 98 322 126 339 c 1,34,35
 111 357 111 357 98.5 386 c 128,-1,36
 86 415 86 415 86 456 c 0,37,38
 86 487 86 487 93.5 514 c 128,-1,39
 101 541 101 541 113 561 c 1,40,-1
 -2 561 l 2,41,42
 -30 561 -30 561 -30 591 c 0,43,44
 -30 597 -30 597 -29 604 c 128,-1,45
 -28 611 -28 611 -26 619 c 1,46,-1
 621 619 l 2,47,48
 649 619 649 619 649 589 c 0,49,50
 649 583 649 583 648 576 c 128,-1,51
 647 569 647 569 645 561 c 1,52,-1
 514 561 l 1,0,-1
240 369 m 0,53,54
 271 369 271 369 300.5 360.5 c 128,-1,55
 330 352 330 352 356.5 338.5 c 128,-1,56
 383 325 383 325 405.5 307 c 128,-1,57
 428 289 428 289 445 270 c 1,58,-1
 445 561 l 1,59,-1
 186 561 l 1,60,61
 175 543 175 543 167 516.5 c 128,-1,62
 159 490 159 490 159 461 c 0,63,64
 159 403 159 403 185 363 c 1,65,66
 207 369 207 369 240 369 c 0,53,54
EndSplineSet
EndChar

StartChar: n
Encoding: 110 110 80
Width: 589
GlyphClass: 2
Flags: W
AnchorPoint: "Anchor-3" 589 0 basechar 0
AnchorPoint: "Anchor-1" 589 0 basechar 0
AnchorPoint: "Anchor-0" 589 0 basechar 0
LayerCount: 2
Fore
SplineSet
480 561 m 1,0,-1
 480 0 l 1,1,2
 474 -2 474 -2 466.5 -3 c 128,-1,3
 459 -4 459 -4 451 -4 c 0,4,5
 432 -4 432 -4 421.5 3 c 128,-1,6
 411 10 411 10 411 27 c 2,7,-1
 411 215 l 1,8,9
 397 240 397 240 376 264 c 128,-1,10
 355 288 355 288 330.5 307 c 128,-1,11
 306 326 306 326 277.5 338 c 128,-1,12
 249 350 249 350 220 350 c 0,13,14
 177 350 177 350 153.5 328 c 128,-1,15
 130 306 130 306 130 271 c 0,16,17
 130 251 130 251 136 236.5 c 128,-1,18
 142 222 142 222 148 211 c 1,19,20
 143 202 143 202 134 194.5 c 128,-1,21
 125 187 125 187 110 187 c 0,22,23
 87 187 87 187 69 209 c 128,-1,24
 51 231 51 231 51 273 c 0,25,26
 51 309 51 309 65 336 c 128,-1,27
 79 363 79 363 101.5 381 c 128,-1,28
 124 399 124 399 152.5 407.5 c 128,-1,29
 181 416 181 416 210 416 c 0,30,31
 245 416 245 416 275 407 c 128,-1,32
 305 398 305 398 330 383.5 c 128,-1,33
 355 369 355 369 375 351 c 128,-1,34
 395 333 395 333 411 314 c 1,35,-1
 411 561 l 1,36,-1
 -2 561 l 2,37,38
 -30 561 -30 561 -30 591 c 0,39,40
 -30 597 -30 597 -29 604 c 128,-1,41
 -28 611 -28 611 -26 619 c 1,42,-1
 587 619 l 2,43,44
 615 619 615 619 615 589 c 0,45,46
 615 583 615 583 614 576 c 128,-1,47
 613 569 613 569 611 561 c 1,48,-1
 480 561 l 1,0,-1
EndSplineSet
Substitution2: "'sups' Superscript lookup 18 subtable" n.superior
Substitution2: "'aalt' Access All Alternates lookup 0 subtable" n.superior
EndChar

StartChar: o
Encoding: 111 111 81
Width: 553
GlyphClass: 2
Flags: W
LayerCount: 2
Fore
SplineSet
504 231 m 256,0,1
 504 175 504 175 488 130 c 128,-1,2
 472 85 472 85 442.5 53 c 128,-1,3
 413 21 413 21 371 4 c 128,-1,4
 329 -13 329 -13 277 -13 c 256,5,6
 225 -13 225 -13 183 4 c 128,-1,7
 141 21 141 21 111 53 c 128,-1,8
 81 85 81 85 65 130 c 128,-1,9
 49 175 49 175 49 231 c 256,10,11
 49 287 49 287 65.5 332 c 128,-1,12
 82 377 82 377 112 409 c 128,-1,13
 142 441 142 441 184 458 c 128,-1,14
 226 475 226 475 277 475 c 256,15,16
 328 475 328 475 370 458 c 128,-1,17
 412 441 412 441 441.5 409 c 128,-1,18
 471 377 471 377 487.5 332 c 128,-1,19
 504 287 504 287 504 231 c 256,0,1
277 409 m 256,20,21
 209 409 209 409 170 362 c 128,-1,22
 131 315 131 315 131 231 c 0,23,24
 131 146 131 146 169.5 99.5 c 128,-1,25
 208 53 208 53 277 53 c 256,26,27
 346 53 346 53 384 100 c 128,-1,28
 422 147 422 147 422 231 c 256,29,30
 422 315 422 315 383.5 362 c 128,-1,31
 345 409 345 409 277 409 c 256,20,21
EndSplineSet
Substitution2: "Single Substitution lookup 72 subtable" ordmasculine
Substitution2: "'aalt' Access All Alternates lookup 0 subtable" ordmasculine
EndChar

StartChar: p
Encoding: 112 112 82
Width: 683
GlyphClass: 2
Flags: W
AnchorPoint: "Anchor-3" 683 0 basechar 0
AnchorPoint: "Anchor-1" 683 0 basechar 0
AnchorPoint: "Anchor-0" 683 0 basechar 0
LayerCount: 2
Fore
SplineSet
681 619 m 2,0,1
 709 619 709 619 709 589 c 0,2,3
 709 583 709 583 708 576 c 128,-1,4
 707 569 707 569 705 561 c 1,5,-1
 574 561 l 1,6,-1
 574 0 l 1,7,8
 568 -2 568 -2 560.5 -3 c 128,-1,9
 553 -4 553 -4 545 -4 c 0,10,11
 526 -4 526 -4 515.5 3 c 128,-1,12
 505 10 505 10 505 27 c 2,13,-1
 505 431 l 1,14,-1
 241 158 l 1,15,16
 226 160 226 160 211 174 c 128,-1,17
 196 188 196 188 191 202 c 1,18,-1
 213 228 l 2,19,20
 224 241 224 241 229.5 254.5 c 128,-1,21
 235 268 235 268 235 285 c 0,22,23
 235 307 235 307 218 327 c 128,-1,24
 201 347 201 347 163 347 c 2,25,-1
 68 347 l 2,26,27
 54 347 54 347 46 355 c 128,-1,28
 38 363 38 363 36 374 c 0,29,30
 35 379 35 379 35 383 c 128,-1,31
 35 387 35 387 35 390 c 0,32,33
 35 439 35 439 54 482.5 c 128,-1,34
 73 526 73 526 107 558.5 c 128,-1,35
 141 591 141 591 187.5 610 c 128,-1,36
 234 629 234 629 289 629 c 0,37,38
 328 629 328 629 360.5 620 c 128,-1,39
 393 611 393 611 420 597 c 128,-1,40
 447 583 447 583 468 564 c 128,-1,41
 489 545 489 545 505 526 c 1,42,-1
 505 562 l 2,43,44
 505 585 505 585 520 602 c 128,-1,45
 535 619 535 619 565 619 c 2,46,-1
 681 619 l 2,0,1
292 304 m 0,47,48
 292 299 292 299 291 297 c 2,49,-1
 462 479 l 1,50,51
 448 494 448 494 431.5 509.5 c 128,-1,52
 415 525 415 525 393.5 537.5 c 128,-1,53
 372 550 372 550 345 558 c 128,-1,54
 318 566 318 566 284 566 c 0,55,56
 252 566 252 566 223 555.5 c 128,-1,57
 194 545 194 545 170.5 524.5 c 128,-1,58
 147 504 147 504 130.5 474.5 c 128,-1,59
 114 445 114 445 108 407 c 1,60,-1
 166 407 l 2,61,62
 222 407 222 407 257 378 c 128,-1,63
 292 349 292 349 292 304 c 0,47,48
EndSplineSet
EndChar

StartChar: q
Encoding: 113 113 83
Width: 922
GlyphClass: 2
Flags: W
AnchorPoint: "Anchor-1" 922 0 basechar 0
AnchorPoint: "Anchor-0" 922 0 basechar 0
LayerCount: 2
Fore
SplineSet
920 619 m 2,0,1
 948 619 948 619 948 589 c 0,2,3
 948 583 948 583 947 576 c 128,-1,4
 946 569 946 569 944 561 c 1,5,-1
 813 561 l 1,6,-1
 813 0 l 1,7,8
 807 -5 807 -5 796.5 -8 c 128,-1,9
 786 -11 786 -11 774 -11 c 0,10,11
 768 -11 768 -11 764 -10 c 0,12,13
 737 14 737 14 706.5 38.5 c 128,-1,14
 676 63 676 63 644.5 86.5 c 128,-1,15
 613 110 613 110 581.5 131 c 128,-1,16
 550 152 550 152 521 170 c 1,17,18
 488 142 488 142 444 127 c 128,-1,19
 400 112 400 112 348 112 c 0,20,21
 288 112 288 112 236.5 130.5 c 128,-1,22
 185 149 185 149 145.5 182.5 c 128,-1,23
 106 216 106 216 78.5 262 c 128,-1,24
 51 308 51 308 38 362 c 0,25,26
 34 378 34 378 32.5 393 c 128,-1,27
 31 408 31 408 31 418 c 0,28,29
 31 443 31 443 42.5 454 c 128,-1,30
 54 465 54 465 71 465 c 0,31,32
 79 465 79 465 85.5 464 c 128,-1,33
 92 463 92 463 97 461 c 1,34,-1
 98 448 l 2,35,36
 102 400 102 400 118.5 351.5 c 128,-1,37
 135 303 135 303 165.5 264 c 128,-1,38
 196 225 196 225 241.5 200 c 128,-1,39
 287 175 287 175 348 175 c 0,40,41
 388 175 388 175 422.5 188 c 128,-1,42
 457 201 457 201 481.5 225.5 c 128,-1,43
 506 250 506 250 520 285 c 128,-1,44
 534 320 534 320 534 364 c 0,45,46
 534 430 534 430 503 466.5 c 128,-1,47
 472 503 472 503 429 503 c 0,48,49
 388 503 388 503 361 473.5 c 128,-1,50
 334 444 334 444 334 398 c 0,51,52
 334 377 334 377 339 361.5 c 128,-1,53
 344 346 344 346 352 332 c 1,54,55
 347 324 347 324 338.5 318 c 128,-1,56
 330 312 330 312 317 312 c 0,57,58
 307 312 307 312 297 316.5 c 128,-1,59
 287 321 287 321 279 331.5 c 128,-1,60
 271 342 271 342 266 359 c 128,-1,61
 261 376 261 376 261 402 c 0,62,63
 261 432 261 432 271.5 460 c 128,-1,64
 282 488 282 488 301.5 509.5 c 128,-1,65
 321 531 321 531 348.5 545 c 128,-1,66
 376 559 376 559 411 561 c 2,67,-1
 -2 561 l 2,68,69
 -30 561 -30 561 -30 591 c 0,70,71
 -30 597 -30 597 -29 604 c 128,-1,72
 -28 611 -28 611 -26 619 c 1,73,-1
 920 619 l 2,0,1
607 361 m 0,74,75
 607 276 607 276 564 216 c 1,76,77
 586 202 586 202 613.5 183.5 c 128,-1,78
 641 165 641 165 668 145 c 128,-1,79
 695 125 695 125 718 107 c 128,-1,80
 741 89 741 89 754 77 c 1,81,82
 752 91 752 91 750.5 114 c 128,-1,83
 749 137 749 137 747.5 162 c 128,-1,84
 746 187 746 187 745 209.5 c 128,-1,85
 744 232 744 232 744 246 c 2,86,-1
 744 561 l 1,87,-1
 449 561 l 2,88,89
 475 558 475 558 503 546 c 128,-1,90
 531 534 531 534 554 510 c 128,-1,91
 577 486 577 486 592 449 c 128,-1,92
 607 412 607 412 607 361 c 0,74,75
EndSplineSet
EndChar

StartChar: r
Encoding: 114 114 84
Width: 576
GlyphClass: 2
Flags: W
AnchorPoint: "Anchor-3" 576 0 basechar 0
AnchorPoint: "Anchor-1" 576 0 basechar 0
AnchorPoint: "Anchor-0" 576 0 basechar 0
LayerCount: 2
Fore
SplineSet
467 561 m 1,0,-1
 467 0 l 1,1,2
 461 -5 461 -5 450.5 -8 c 128,-1,3
 440 -11 440 -11 428 -11 c 0,4,5
 422 -11 422 -11 418 -10 c 0,6,7
 323 69 323 69 230.5 129 c 128,-1,8
 138 189 138 189 41 243 c 1,9,10
 37 252 37 252 34.5 265 c 128,-1,11
 32 278 32 278 32 292 c 0,12,13
 32 295 32 295 32 300.5 c 128,-1,14
 32 306 32 306 33 311 c 0,15,16
 69 337 69 337 114.5 362.5 c 128,-1,17
 160 388 160 388 208 411 c 128,-1,18
 256 434 256 434 305 452.5 c 128,-1,19
 354 471 354 471 398 483 c 1,20,-1
 398 561 l 1,21,-1
 -2 561 l 2,22,23
 -30 561 -30 561 -30 591 c 0,24,25
 -30 597 -30 597 -29 604 c 128,-1,26
 -28 611 -28 611 -26 619 c 1,27,-1
 574 619 l 2,28,29
 602 619 602 619 602 589 c 0,30,31
 602 583 602 583 601 576 c 128,-1,32
 600 569 600 569 598 561 c 1,33,-1
 467 561 l 1,0,-1
398 416 m 1,34,35
 361 406 361 406 322 391.5 c 128,-1,36
 283 377 283 377 245 359.5 c 128,-1,37
 207 342 207 342 170.5 322 c 128,-1,38
 134 302 134 302 103 282 c 1,39,40
 154 253 154 253 200.5 223.5 c 128,-1,41
 247 194 247 194 287 166.5 c 128,-1,42
 327 139 327 139 358 115.5 c 128,-1,43
 389 92 389 92 408 76 c 1,44,45
 406 91 406 91 404.5 113.5 c 128,-1,46
 403 136 403 136 401.5 160.5 c 128,-1,47
 400 185 400 185 399 208 c 128,-1,48
 398 231 398 231 398 246 c 2,49,-1
 398 416 l 1,34,35
80 14 m 0,50,51
 80 35 80 35 94 48 c 128,-1,52
 108 61 108 61 130 61 c 0,53,54
 153 61 153 61 166 47.5 c 128,-1,55
 179 34 179 34 179 14 c 256,56,57
 179 -6 179 -6 166 -20 c 128,-1,58
 153 -34 153 -34 130 -34 c 0,59,60
 108 -34 108 -34 94 -20 c 128,-1,61
 80 -6 80 -6 80 14 c 0,50,51
EndSplineSet
EndChar

StartChar: s
Encoding: 115 115 85
Width: 610
GlyphClass: 2
Flags: W
AnchorPoint: "Anchor-3" 610 0 basechar 0
AnchorPoint: "Anchor-1" 610 0 basechar 0
AnchorPoint: "Anchor-0" 610 0 basechar 0
LayerCount: 2
Fore
SplineSet
501 561 m 1,0,-1
 501 0 l 1,1,2
 495 -2 495 -2 487.5 -3 c 128,-1,3
 480 -4 480 -4 472 -4 c 0,4,5
 453 -4 453 -4 442.5 3 c 128,-1,6
 432 10 432 10 432 27 c 2,7,-1
 432 303 l 1,8,9
 414 316 414 316 377 316 c 0,10,11
 332 316 332 316 262 260 c 0,12,13
 204 213 204 213 161 194 c 128,-1,14
 118 175 118 175 74 175 c 2,15,-1
 70 175 l 2,16,17
 27 175 27 175 27 211 c 0,18,19
 27 226 27 226 33 238 c 1,20,-1
 71 238 l 2,21,22
 99 238 99 238 123.5 245 c 128,-1,23
 148 252 148 252 166.5 266.5 c 128,-1,24
 185 281 185 281 195.5 303 c 128,-1,25
 206 325 206 325 206 355 c 0,26,27
 206 399 206 399 182.5 434 c 128,-1,28
 159 469 159 469 102 495 c 2,29,-1
 53 518 l 2,30,31
 45 522 45 522 40 527 c 128,-1,32
 35 532 35 532 35 543 c 0,33,34
 35 551 35 551 39 561 c 1,35,-1
 -8 561 l 2,36,37
 -36 561 -36 561 -36 591 c 0,38,39
 -36 597 -36 597 -35 604 c 128,-1,40
 -34 611 -34 611 -32 619 c 1,41,-1
 608 619 l 2,42,43
 636 619 636 619 636 589 c 0,44,45
 636 583 636 583 635 576 c 128,-1,46
 634 569 634 569 632 561 c 1,47,-1
 501 561 l 1,0,-1
376 379 m 0,48,49
 396 379 396 379 409.5 376 c 128,-1,50
 423 373 423 373 432 368 c 1,51,-1
 432 561 l 1,52,-1
 118 561 l 1,53,54
 142 551 142 551 168.5 533.5 c 128,-1,55
 195 516 195 516 217.5 490.5 c 128,-1,56
 240 465 240 465 254.5 432 c 128,-1,57
 269 399 269 399 269 358 c 0,58,59
 269 345 269 345 266 333 c 1,60,61
 290 354 290 354 318.5 366.5 c 128,-1,62
 347 379 347 379 376 379 c 0,48,49
EndSplineSet
EndChar

StartChar: t
Encoding: 116 116 86
Width: 540
GlyphClass: 2
Flags: W
AnchorPoint: "Anchor-3" 503 10 basechar 0
AnchorPoint: "Anchor-1" 576 77 basechar 0
AnchorPoint: "Anchor-0" 537 32 basechar 0
LayerCount: 2
Fore
SplineSet
349 411 m 2,0,1
 378 411 378 411 403.5 402 c 128,-1,2
 429 393 429 393 447.5 375 c 128,-1,3
 466 357 466 357 477 330 c 128,-1,4
 488 303 488 303 488 268 c 0,5,6
 488 216 488 216 466.5 169 c 128,-1,7
 445 122 445 122 409.5 87 c 128,-1,8
 374 52 374 52 329 31 c 128,-1,9
 284 10 284 10 237 10 c 0,10,11
 162 10 162 10 122.5 50 c 128,-1,12
 83 90 83 90 83 166 c 2,13,-1
 83 561 l 1,14,-1
 2 561 l 2,15,16
 -26 561 -26 561 -26 591 c 0,17,18
 -26 597 -26 597 -25 604 c 128,-1,19
 -24 611 -24 611 -22 619 c 1,20,-1
 390 619 l 1,21,22
 403 642 403 642 403 668 c 0,23,24
 403 697 403 697 381.5 711.5 c 128,-1,25
 360 726 360 726 312 726 c 0,26,27
 295 726 295 726 282 725.5 c 128,-1,28
 269 725 269 725 256.5 725 c 128,-1,29
 244 725 244 725 228.5 724.5 c 128,-1,30
 213 724 213 724 191 724 c 0,31,32
 114 724 114 724 74 756 c 128,-1,33
 34 788 34 788 34 839 c 0,34,35
 34 871 34 871 47 885 c 128,-1,36
 60 899 60 899 78 899 c 0,37,38
 88 899 88 899 95.5 896.5 c 128,-1,39
 103 894 103 894 107 891 c 1,40,41
 104 876 104 876 104 860 c 0,42,43
 104 824 104 824 126 802.5 c 128,-1,44
 148 781 148 781 202 781 c 0,45,46
 236 781 236 781 263 782.5 c 128,-1,47
 290 784 290 784 331 784 c 0,48,49
 395 784 395 784 431.5 755 c 128,-1,50
 468 726 468 726 468 679 c 0,51,52
 468 660 468 660 463.5 645 c 128,-1,53
 459 630 459 630 453 619 c 1,54,-1
 528 619 l 2,55,56
 556 619 556 619 556 589 c 0,57,58
 556 583 556 583 555 576 c 128,-1,59
 554 569 554 569 552 561 c 1,60,-1
 152 561 l 1,61,-1
 152 166 l 2,62,63
 152 117 152 117 172 95 c 128,-1,64
 192 73 192 73 237 73 c 0,65,66
 267 73 267 73 299 87.5 c 128,-1,67
 331 102 331 102 356.5 128 c 128,-1,68
 382 154 382 154 398.5 189.5 c 128,-1,69
 415 225 415 225 415 267 c 256,70,71
 415 309 415 309 391 328 c 128,-1,72
 367 347 367 347 327 347 c 2,73,-1
 289 347 l 1,74,75
 286 352 286 352 283.5 358 c 128,-1,76
 281 364 281 364 281 372 c 0,77,78
 281 391 281 391 293.5 401 c 128,-1,79
 306 411 306 411 335 411 c 2,80,-1
 349 411 l 2,0,1
EndSplineSet
EndChar

StartChar: u
Encoding: 117 117 87
Width: 550
GlyphClass: 2
Flags: W
LayerCount: 2
Fore
SplineSet
75 460 m 1,0,1
 80 462 80 462 90.5 464.5 c 128,-1,2
 101 467 101 467 113 467 c 0,3,4
 155 467 155 467 155 430 c 2,5,-1
 155 173 l 2,6,7
 155 108 155 108 189 80.5 c 128,-1,8
 223 53 223 53 283 53 c 0,9,10
 323 53 323 53 351 61.5 c 128,-1,11
 379 70 379 70 395 79 c 1,12,-1
 395 460 l 1,13,14
 400 462 400 462 410.5 464.5 c 128,-1,15
 421 467 421 467 432 467 c 0,16,17
 475 467 475 467 475 430 c 2,18,-1
 475 82 l 2,19,20
 475 61 475 61 469.5 48.5 c 128,-1,21
 464 36 464 36 443 24 c 0,22,23
 420 11 420 11 379.5 -1 c 128,-1,24
 339 -13 339 -13 282 -13 c 0,25,26
 182 -13 182 -13 128.5 31 c 128,-1,27
 75 75 75 75 75 169 c 2,28,-1
 75 460 l 1,0,1
EndSplineSet
EndChar

StartChar: v
Encoding: 118 118 88
Width: 495
GlyphClass: 2
Flags: W
LayerCount: 2
Fore
SplineSet
421 471 m 0,0,1
 438 471 438 471 448.5 462 c 128,-1,2
 459 453 459 453 459 436 c 0,3,4
 459 425 459 425 451 397.5 c 128,-1,5
 443 370 443 370 430 332.5 c 128,-1,6
 417 295 417 295 400.5 250 c 128,-1,7
 384 205 384 205 365.5 160.5 c 128,-1,8
 347 116 347 116 328.5 75 c 128,-1,9
 310 34 310 34 294 4 c 0,10,11
 289 0 289 0 276.5 -3 c 128,-1,12
 264 -6 264 -6 250 -6 c 0,13,14
 213 -6 213 -6 202 15 c 0,15,16
 193 32 193 32 179 62 c 128,-1,17
 165 92 165 92 149 130 c 128,-1,18
 133 168 133 168 116 211 c 128,-1,19
 99 254 99 254 83 296.5 c 128,-1,20
 67 339 67 339 53 378.5 c 128,-1,21
 39 418 39 418 30 449 c 1,22,23
 37 459 37 459 49 465 c 128,-1,24
 61 471 61 471 73 471 c 0,25,26
 91 471 91 471 100.5 462 c 128,-1,27
 110 453 110 453 118 432 c 2,28,-1
 180 253 l 2,29,30
 186 236 186 236 195 211.5 c 128,-1,31
 204 187 204 187 213.5 161.5 c 128,-1,32
 223 136 223 136 232.5 112 c 128,-1,33
 242 88 242 88 248 71 c 1,34,-1
 252 71 l 1,35,36
 292 172 292 172 326.5 270 c 128,-1,37
 361 368 361 368 387 463 c 1,38,39
 400 471 400 471 421 471 c 0,0,1
EndSplineSet
EndChar

StartChar: w
Encoding: 119 119 89
Width: 563
GlyphClass: 2
Flags: W
AnchorPoint: "Anchor-4" 568 0 basechar 0
AnchorPoint: "Anchor-1" 443 0 basechar 0
AnchorPoint: "Anchor-0" 291 0 basechar 0
LayerCount: 2
Fore
SplineSet
147 561 m 1,0,-1
 147 409 l 2,1,2
 147 394 147 394 146 369.5 c 128,-1,3
 145 345 145 345 143.5 320 c 128,-1,4
 142 295 142 295 140 273.5 c 128,-1,5
 138 252 138 252 137 242 c 1,6,7
 168 277 168 277 207.5 311.5 c 128,-1,8
 247 346 247 346 288.5 375 c 128,-1,9
 330 404 330 404 372 425.5 c 128,-1,10
 414 447 414 447 452 458 c 1,11,12
 465 450 465 450 478.5 435 c 128,-1,13
 492 420 492 420 498 408 c 1,14,15
 490 387 490 387 481 359 c 128,-1,16
 472 331 472 331 465 295 c 128,-1,17
 458 259 458 259 453.5 213 c 128,-1,18
 449 167 449 167 449 110 c 0,19,20
 449 68 449 68 452.5 37.5 c 128,-1,21
 456 7 456 7 464 -24 c 1,22,23
 459 -30 459 -30 453.5 -35 c 128,-1,24
 448 -40 448 -40 434 -40 c 0,25,26
 422 -40 422 -40 411.5 -34.5 c 128,-1,27
 401 -29 401 -29 393 -13.5 c 128,-1,28
 385 2 385 2 380.5 30 c 128,-1,29
 376 58 376 58 376 104 c 256,30,31
 376 150 376 150 382 194 c 128,-1,32
 388 238 388 238 396.5 275 c 128,-1,33
 405 312 405 312 415 341 c 128,-1,34
 425 370 425 370 433 387 c 1,35,36
 399 372 399 372 361 348 c 128,-1,37
 323 324 323 324 285 293 c 128,-1,38
 247 262 247 262 210.5 226 c 128,-1,39
 174 190 174 190 144 151 c 1,40,41
 136 149 136 149 129 149 c 0,42,43
 114 149 114 149 99 156 c 128,-1,44
 84 163 84 163 78 174 c 1,45,-1
 78 561 l 1,46,-1
 -2 561 l 2,47,48
 -30 561 -30 561 -30 591 c 0,49,50
 -30 597 -30 597 -29 604 c 128,-1,51
 -28 611 -28 611 -26 619 c 1,52,-1
 550 619 l 2,53,54
 578 619 578 619 578 589 c 0,55,56
 578 583 578 583 577 576 c 128,-1,57
 576 569 576 569 574 561 c 1,58,-1
 147 561 l 1,0,-1
EndSplineSet
EndChar

StartChar: x
Encoding: 120 120 90
Width: 720
GlyphClass: 2
Flags: W
AnchorPoint: "Anchor-3" 564 7 basechar 0
AnchorPoint: "Anchor-1" 609 0 basechar 0
AnchorPoint: "Anchor-0" 581 0 basechar 0
LayerCount: 2
Fore
SplineSet
489 561 m 2,0,1
 519 559 519 559 550.5 545 c 128,-1,2
 582 531 582 531 607 504 c 128,-1,3
 632 477 632 477 648 436 c 128,-1,4
 664 395 664 395 664 340 c 0,5,6
 664 274 664 274 641.5 222 c 128,-1,7
 619 170 619 170 580 134 c 128,-1,8
 541 98 541 98 488 79 c 128,-1,9
 435 60 435 60 374 60 c 0,10,11
 311 60 311 60 257.5 78.5 c 128,-1,12
 204 97 204 97 162.5 132 c 128,-1,13
 121 167 121 167 92.5 217 c 128,-1,14
 64 267 64 267 50 329 c 0,15,16
 45 348 45 348 41.5 372.5 c 128,-1,17
 38 397 38 397 38 416 c 0,18,19
 38 442 38 442 49.5 453 c 128,-1,20
 61 464 61 464 78 464 c 256,21,22
 95 464 95 464 106 458 c 1,23,-1
 108 430 l 2,24,25
 114 350 114 350 136.5 292.5 c 128,-1,26
 159 235 159 235 194.5 197 c 128,-1,27
 230 159 230 159 276.5 141 c 128,-1,28
 323 123 323 123 377 123 c 0,29,30
 423 123 423 123 462 137.5 c 128,-1,31
 501 152 501 152 529.5 180 c 128,-1,32
 558 208 558 208 574.5 249 c 128,-1,33
 591 290 591 290 591 343 c 0,34,35
 591 378 591 378 582 407.5 c 128,-1,36
 573 437 573 437 557.5 458 c 128,-1,37
 542 479 542 479 519.5 490.5 c 128,-1,38
 497 502 497 502 470 502 c 0,39,40
 442 502 442 502 422 493 c 128,-1,41
 402 484 402 484 388.5 468.5 c 128,-1,42
 375 453 375 453 368.5 432.5 c 128,-1,43
 362 412 362 412 362 389 c 256,44,45
 362 366 362 366 369.5 346.5 c 128,-1,46
 377 327 377 327 385 314 c 1,47,48
 381 305 381 305 371.5 298.5 c 128,-1,49
 362 292 362 292 348 292 c 0,50,51
 325 292 325 292 307 316 c 128,-1,52
 289 340 289 340 289 392 c 0,53,54
 289 425 289 425 301.5 454 c 128,-1,55
 314 483 314 483 335 506 c 128,-1,56
 356 529 356 529 384 543.5 c 128,-1,57
 412 558 412 558 444 561 c 2,58,-1
 -9 561 l 2,59,60
 -37 561 -37 561 -37 591 c 0,61,62
 -37 597 -37 597 -36 604 c 128,-1,63
 -35 611 -35 611 -33 619 c 1,64,-1
 705 619 l 2,65,66
 733 619 733 619 733 589 c 0,67,68
 733 583 733 583 732 576 c 128,-1,69
 731 569 731 569 729 561 c 1,70,-1
 489 561 l 2,0,1
EndSplineSet
EndChar

StartChar: y
Encoding: 121 121 91
Width: 623
GlyphClass: 2
Flags: W
AnchorPoint: "Anchor-3" 623 0 basechar 0
AnchorPoint: "Anchor-1" 623 0 basechar 0
AnchorPoint: "Anchor-0" 623 0 basechar 0
LayerCount: 2
Fore
SplineSet
514 561 m 1,0,-1
 514 0 l 1,1,2
 508 -5 508 -5 497.5 -8 c 128,-1,3
 487 -11 487 -11 475 -11 c 0,4,5
 469 -11 469 -11 465 -10 c 0,6,7
 417 24 417 24 369.5 55 c 128,-1,8
 322 86 322 86 273 114.5 c 128,-1,9
 224 143 224 143 172.5 169.5 c 128,-1,10
 121 196 121 196 64 222 c 1,11,12
 60 231 60 231 57.5 244 c 128,-1,13
 55 257 55 257 55 271 c 0,14,15
 55 274 55 274 55 279.5 c 128,-1,16
 55 285 55 285 56 290 c 0,17,18
 71 300 71 300 99 315.5 c 128,-1,19
 127 331 127 331 157.5 347 c 128,-1,20
 188 363 188 363 216.5 377.5 c 128,-1,21
 245 392 245 392 261 400 c 1,22,-1
 42 504 l 2,23,24
 18 515 18 515 18 531 c 0,25,26
 18 540 18 540 21.5 548 c 128,-1,27
 25 556 25 556 28 561 c 1,28,-1
 -8 561 l 2,29,30
 -36 561 -36 561 -36 591 c 0,31,32
 -36 597 -36 597 -35 604 c 128,-1,33
 -34 611 -34 611 -32 619 c 1,34,-1
 621 619 l 2,35,36
 649 619 649 619 649 589 c 0,37,38
 649 583 649 583 648 576 c 128,-1,39
 647 569 647 569 645 561 c 1,40,-1
 514 561 l 1,0,-1
324 430 m 1,41,42
 326 424 326 424 327 416.5 c 128,-1,43
 328 409 328 409 328 401 c 0,44,45
 328 384 328 384 323 367 c 1,46,47
 305 357 305 357 277.5 342.5 c 128,-1,48
 250 328 250 328 221.5 312.5 c 128,-1,49
 193 297 193 297 168 283 c 128,-1,50
 143 269 143 269 130 260 c 1,51,52
 167 242 167 242 208.5 220 c 128,-1,53
 250 198 250 198 292.5 174 c 128,-1,54
 335 150 335 150 376.5 124 c 128,-1,55
 418 98 418 98 455 71 c 1,56,57
 453 86 453 86 451.5 110 c 128,-1,58
 450 134 450 134 448.5 159 c 128,-1,59
 447 184 447 184 446 207.5 c 128,-1,60
 445 231 445 231 445 246 c 2,61,-1
 445 561 l 1,62,-1
 67 561 l 1,63,64
 88 552 88 552 124.5 534 c 128,-1,65
 161 516 161 516 200 496.5 c 128,-1,66
 239 477 239 477 273 458.5 c 128,-1,67
 307 440 307 440 324 430 c 1,41,42
EndSplineSet
EndChar

StartChar: z
Encoding: 122 122 92
Width: 862
GlyphClass: 2
Flags: W
AnchorPoint: "Anchor-1" 631 0 basechar 0
AnchorPoint: "Anchor-0" 637 0 basechar 0
LayerCount: 2
Fore
SplineSet
526 561 m 1,0,1
 551 496 551 496 603.5 461 c 128,-1,2
 656 426 656 426 737 426 c 0,3,4
 761 426 761 426 778 429 c 1,5,6
 789 421 789 421 798 405 c 128,-1,7
 807 389 807 389 809 374 c 1,8,9
 778 326 778 326 760.5 261 c 128,-1,10
 743 196 743 196 743 110 c 0,11,12
 743 73 743 73 746.5 40 c 128,-1,13
 750 7 750 7 758 -24 c 1,14,15
 754 -30 754 -30 748 -35 c 128,-1,16
 742 -40 742 -40 728 -40 c 0,17,18
 716 -40 716 -40 705.5 -35 c 128,-1,19
 695 -30 695 -30 687 -14.5 c 128,-1,20
 679 1 679 1 674.5 29 c 128,-1,21
 670 57 670 57 670 104 c 0,22,23
 670 185 670 185 689 251 c 128,-1,24
 708 317 708 317 737 367 c 1,25,26
 637 367 637 367 568.5 410.5 c 128,-1,27
 500 454 500 454 467 532 c 1,28,29
 395 513 395 513 353.5 478.5 c 128,-1,30
 312 444 312 444 312 396 c 0,31,32
 312 360 312 360 338 338.5 c 128,-1,33
 364 317 364 317 406 317 c 0,34,35
 441 317 441 317 465.5 326 c 128,-1,36
 490 335 490 335 516 348 c 1,37,38
 545 322 545 322 565 280.5 c 128,-1,39
 585 239 585 239 585 192 c 0,40,41
 585 155 585 155 572.5 122 c 128,-1,42
 560 89 560 89 534.5 64 c 128,-1,43
 509 39 509 39 470 24.5 c 128,-1,44
 431 10 431 10 378 10 c 0,45,46
 324 10 324 10 271 29 c 128,-1,47
 218 48 218 48 173.5 88.5 c 128,-1,48
 129 129 129 129 96 191.5 c 128,-1,49
 63 254 63 254 48 340 c 0,50,51
 45 356 45 356 43 375.5 c 128,-1,52
 41 395 41 395 41 411 c 0,53,54
 41 441 41 441 53.5 451 c 128,-1,55
 66 461 66 461 85 461 c 0,56,57
 101 461 101 461 111 456 c 1,58,-1
 112 439 l 2,59,60
 118 337 118 337 143.5 267 c 128,-1,61
 169 197 169 197 206.5 154 c 128,-1,62
 244 111 244 111 289 92 c 128,-1,63
 334 73 334 73 378 73 c 0,64,65
 441 73 441 73 476.5 105 c 128,-1,66
 512 137 512 137 512 194 c 0,67,68
 512 220 512 220 505.5 241.5 c 128,-1,69
 499 263 499 263 491 273 c 1,70,71
 478 267 478 267 456 260.5 c 128,-1,72
 434 254 434 254 399 254 c 0,73,74
 368 254 368 254 339.5 262.5 c 128,-1,75
 311 271 311 271 288.5 289 c 128,-1,76
 266 307 266 307 252.5 333.5 c 128,-1,77
 239 360 239 360 239 396 c 0,78,79
 239 453 239 453 276.5 496 c 128,-1,80
 314 539 314 539 374 561 c 1,81,-1
 -2 561 l 2,82,83
 -30 561 -30 561 -30 591 c 0,84,85
 -30 597 -30 597 -29 604 c 128,-1,86
 -28 611 -28 611 -26 619 c 1,87,-1
 854 619 l 2,88,89
 882 619 882 619 882 589 c 0,90,91
 882 583 882 583 881 576 c 128,-1,92
 880 569 880 569 878 561 c 1,93,-1
 526 561 l 1,0,1
EndSplineSet
EndChar

StartChar: braceleft
Encoding: 123 123 93
Width: 281
GlyphClass: 2
Flags: W
LayerCount: 2
Fore
SplineSet
122 275 m 1,0,1
 155 258 155 258 173.5 223.5 c 128,-1,2
 192 189 192 189 192 136 c 2,3,-1
 192 5 l 2,4,5
 192 -30 192 -30 205.5 -44.5 c 128,-1,6
 219 -59 219 -59 248 -60 c 1,7,8
 251 -72 251 -72 251 -83 c 0,9,10
 251 -97 251 -97 242 -106 c 128,-1,11
 233 -115 233 -115 215 -115 c 0,12,13
 173 -115 173 -115 146.5 -85 c 128,-1,14
 120 -55 120 -55 120 5 c 2,15,-1
 120 128 l 2,16,17
 120 232 120 232 44 244 c 1,18,19
 40 249 40 249 38.5 258.5 c 128,-1,20
 37 268 37 268 37 275 c 256,21,22
 37 282 37 282 39 291 c 128,-1,23
 41 300 41 300 44 306 c 1,24,25
 120 318 120 318 120 421 c 2,26,-1
 120 537 l 2,27,28
 120 597 120 597 146.5 626.5 c 128,-1,29
 173 656 173 656 215 656 c 0,30,31
 251 656 251 656 251 624 c 0,32,33
 251 613 251 613 248 601 c 1,34,35
 219 601 219 601 205.5 586.5 c 128,-1,36
 192 572 192 572 192 536 c 2,37,-1
 192 414 l 2,38,39
 192 360 192 360 173.5 326 c 128,-1,40
 155 292 155 292 122 275 c 1,0,1
EndSplineSet
EndChar

StartChar: bar
Encoding: 124 124 94
Width: 293
GlyphClass: 2
Flags: W
LayerCount: 2
Fore
SplineSet
162 310 m 1,0,1
 154 307 154 307 146 305 c 128,-1,2
 138 303 138 303 127 303 c 0,3,4
 107 303 107 303 98 312 c 128,-1,5
 89 321 89 321 89 343 c 2,6,-1
 89 675 l 1,7,8
 97 678 97 678 105 680 c 128,-1,9
 113 682 113 682 124 682 c 0,10,11
 144 682 144 682 153 673 c 128,-1,12
 162 664 162 664 162 642 c 2,13,-1
 162 310 l 1,0,1
162 -180 m 1,14,15
 154 -183 154 -183 146 -185 c 128,-1,16
 138 -187 138 -187 127 -187 c 0,17,18
 107 -187 107 -187 98 -178 c 128,-1,19
 89 -169 89 -169 89 -147 c 2,20,-1
 89 185 l 1,21,22
 97 188 97 188 105 190 c 128,-1,23
 113 192 113 192 124 192 c 0,24,25
 144 192 144 192 153 183 c 128,-1,26
 162 174 162 174 162 152 c 2,27,-1
 162 -180 l 1,14,15
EndSplineSet
EndChar

StartChar: braceright
Encoding: 125 125 95
Width: 281
GlyphClass: 2
Flags: W
LayerCount: 2
Fore
SplineSet
159 275 m 1,0,1
 126 292 126 292 107.5 326 c 128,-1,2
 89 360 89 360 89 414 c 2,3,-1
 89 536 l 2,4,5
 89 572 89 572 75.5 586.5 c 128,-1,6
 62 601 62 601 33 601 c 1,7,8
 30 613 30 613 30 624 c 0,9,10
 30 656 30 656 66 656 c 0,11,12
 108 656 108 656 134.5 626.5 c 128,-1,13
 161 597 161 597 161 537 c 2,14,-1
 161 421 l 2,15,16
 161 318 161 318 237 306 c 1,17,18
 240 300 240 300 242 291 c 128,-1,19
 244 282 244 282 244 275 c 256,20,21
 244 268 244 268 242.5 258.5 c 128,-1,22
 241 249 241 249 237 244 c 1,23,24
 161 232 161 232 161 128 c 2,25,-1
 161 5 l 2,26,27
 161 -55 161 -55 134.5 -85 c 128,-1,28
 108 -115 108 -115 66 -115 c 0,29,30
 48 -115 48 -115 39 -106 c 128,-1,31
 30 -97 30 -97 30 -83 c 0,32,33
 30 -72 30 -72 33 -60 c 1,34,35
 62 -59 62 -59 75.5 -44.5 c 128,-1,36
 89 -30 89 -30 89 5 c 2,37,-1
 89 136 l 2,38,39
 89 189 89 189 107.5 223.5 c 128,-1,40
 126 258 126 258 159 275 c 1,0,1
EndSplineSet
EndChar

StartChar: asciitilde
Encoding: 126 126 96
Width: 448
GlyphClass: 2
Flags: W
LayerCount: 2
Fore
SplineSet
312 282 m 0,0,1
 338 282 338 282 350 296.5 c 128,-1,2
 362 311 362 311 370 327 c 1,3,4
 392 327 392 327 407.5 315 c 128,-1,5
 423 303 423 303 423 283 c 0,6,7
 423 251 423 251 397 232 c 128,-1,8
 371 213 371 213 329 213 c 0,9,10
 299 213 299 213 272.5 219.5 c 128,-1,11
 246 226 246 226 222 233.5 c 128,-1,12
 198 241 198 241 177 247.5 c 128,-1,13
 156 254 156 254 136 254 c 0,14,15
 109 254 109 254 97.5 239.5 c 128,-1,16
 86 225 86 225 78 209 c 1,17,18
 55 209 55 209 40 221 c 128,-1,19
 25 233 25 233 25 253 c 0,20,21
 25 285 25 285 51 304 c 128,-1,22
 77 323 77 323 119 323 c 0,23,24
 150 323 150 323 176.5 316.5 c 128,-1,25
 203 310 203 310 226.5 302.5 c 128,-1,26
 250 295 250 295 271 288.5 c 128,-1,27
 292 282 292 282 312 282 c 0,0,1
EndSplineSet
EndChar

StartChar: exclamdown
Encoding: 161 161 98
Width: 250
GlyphClass: 2
Flags: W
LayerCount: 2
Fore
SplineSet
86 -126 m 0,0,1
 86 -96 86 -96 86.5 -47 c 128,-1,2
 87 2 87 2 88.5 57.5 c 128,-1,3
 90 113 90 113 92 169 c 128,-1,4
 94 225 94 225 96 269 c 1,5,6
 109 279 109 279 129 279 c 0,7,8
 143 279 143 279 152 273 c 128,-1,9
 161 267 161 267 162 254 c 0,10,11
 164 225 164 225 166 173 c 128,-1,12
 168 121 168 121 169 62 c 128,-1,13
 170 3 170 3 170.5 -55.5 c 128,-1,14
 171 -114 171 -114 171 -156 c 1,15,16
 150 -169 150 -169 126 -169 c 0,17,18
 86 -169 86 -169 86 -126 c 0,0,1
184 411 m 256,19,20
 184 387 184 387 169 371 c 128,-1,21
 154 355 154 355 128 355 c 256,22,23
 102 355 102 355 87 371 c 128,-1,24
 72 387 72 387 72 411 c 256,25,26
 72 435 72 435 87 451 c 128,-1,27
 102 467 102 467 128 467 c 256,28,29
 154 467 154 467 169 451 c 128,-1,30
 184 435 184 435 184 411 c 256,19,20
EndSplineSet
EndChar

StartChar: cent
Encoding: 162 162 99
Width: 476
GlyphClass: 2
Flags: W
LayerCount: 2
Fore
SplineSet
289 408 m 0,0,1
 255 408 255 408 226 396.5 c 128,-1,2
 197 385 197 385 176 362.5 c 128,-1,3
 155 340 155 340 143 306.5 c 128,-1,4
 131 273 131 273 131 230 c 0,5,6
 131 144 131 144 174 98.5 c 128,-1,7
 217 53 217 53 289 53 c 0,8,9
 331 53 331 53 359 64.5 c 128,-1,10
 387 76 387 76 409 91 c 1,11,12
 420 85 420 85 427 76 c 128,-1,13
 434 67 434 67 434 54 c 0,14,15
 434 28 434 28 398 9.5 c 128,-1,16
 362 -9 362 -9 306 -12 c 1,17,-1
 306 -108 l 1,18,19
 301 -110 301 -110 292.5 -111.5 c 128,-1,20
 284 -113 284 -113 274 -113 c 0,21,22
 233 -113 233 -113 233 -80 c 2,23,-1
 233 -8 l 1,24,25
 151 6 151 6 100 64.5 c 128,-1,26
 49 123 49 123 49 230 c 0,27,28
 49 282 49 282 63 323.5 c 128,-1,29
 77 365 77 365 101.5 395 c 128,-1,30
 126 425 126 425 160 443.5 c 128,-1,31
 194 462 194 462 233 470 c 1,32,-1
 233 571 l 1,33,34
 238 573 238 573 246.5 574.5 c 128,-1,35
 255 576 255 576 266 576 c 0,36,37
 306 576 306 576 306 543 c 2,38,-1
 306 474 l 1,39,40
 361 471 361 471 395.5 451 c 128,-1,41
 430 431 430 431 430 406 c 0,42,43
 430 394 430 394 422.5 385 c 128,-1,44
 415 376 415 376 404 371 c 1,45,46
 383 386 383 386 357 397 c 128,-1,47
 331 408 331 408 289 408 c 0,0,1
EndSplineSet
EndChar

StartChar: sterling
Encoding: 163 163 100
Width: 504
GlyphClass: 2
Flags: W
LayerCount: 2
Fore
SplineSet
145 219 m 0,0,1
 145 237 145 237 142 263 c 1,2,-1
 85 263 l 2,3,4
 74 263 74 263 65.5 270.5 c 128,-1,5
 57 278 57 278 57 296 c 0,6,7
 57 306 57 306 60 313.5 c 128,-1,8
 63 321 63 321 65 328 c 1,9,-1
 136 328 l 1,10,11
 133 353 133 353 131.5 376.5 c 128,-1,12
 130 400 130 400 130 418 c 0,13,14
 130 472 130 472 146 510 c 128,-1,15
 162 548 162 548 189.5 573 c 128,-1,16
 217 598 217 598 253.5 609.5 c 128,-1,17
 290 621 290 621 332 621 c 0,18,19
 364 621 364 621 388 615.5 c 128,-1,20
 412 610 412 610 427.5 601 c 128,-1,21
 443 592 443 592 451 581 c 128,-1,22
 459 570 459 570 459 560 c 0,23,24
 459 552 459 552 453.5 540.5 c 128,-1,25
 448 529 448 529 436 522 c 1,26,27
 414 537 414 537 391.5 545 c 128,-1,28
 369 553 369 553 337 553 c 0,29,30
 210 553 210 553 210 407 c 0,31,32
 210 390 210 390 211 369.5 c 128,-1,33
 212 349 212 349 214 328 c 1,34,-1
 405 328 l 1,35,36
 408 321 408 321 410.5 313.5 c 128,-1,37
 413 306 413 306 413 296 c 0,38,39
 413 278 413 278 405 270.5 c 128,-1,40
 397 263 397 263 384 263 c 2,41,-1
 220 263 l 1,42,43
 223 236 223 236 223 217 c 0,44,45
 223 163 223 163 209 126.5 c 128,-1,46
 195 90 195 90 168 66 c 1,47,-1
 461 66 l 1,48,49
 469 52 469 52 469 33 c 0,50,51
 469 17 469 17 461 8.5 c 128,-1,52
 453 0 453 0 440 0 c 2,53,-1
 100 0 l 2,54,55
 81 0 81 0 67.5 11.5 c 128,-1,56
 54 23 54 23 54 45 c 0,57,58
 54 50 54 50 54 52.5 c 128,-1,59
 54 55 54 55 55 60 c 1,60,61
 77 71 77 71 94 84.5 c 128,-1,62
 111 98 111 98 122.5 116 c 128,-1,63
 134 134 134 134 139.5 159 c 128,-1,64
 145 184 145 184 145 219 c 0,0,1
EndSplineSet
EndChar

StartChar: currency
Encoding: 164 164 101
Width: 501
GlyphClass: 2
Flags: W
LayerCount: 2
Fore
SplineSet
133 0 m 1,0,1
 114 0 114 0 101.5 12 c 128,-1,2
 89 24 89 24 89 44 c 2,3,-1
 89 606 l 1,4,5
 94 608 94 608 104.5 610.5 c 128,-1,6
 115 613 115 613 127 613 c 0,7,8
 171 613 171 613 171 576 c 2,9,-1
 171 70 l 1,10,-1
 458 70 l 1,11,12
 469 59 469 59 469 37 c 0,13,14
 469 20 469 20 460 10 c 128,-1,15
 451 0 451 0 436 0 c 2,16,-1
 133 0 l 1,17,-1
 133 0 l 1,0,1
EndSplineSet
EndChar

StartChar: uni0080
Encoding: 128 128 103
Width: 583
Flags: W
LayerCount: 2
Fore
SplineSet
447 304 m 0,0,1
 447 371 447 371 434.5 418 c 128,-1,2
 422 465 422 465 401 495 c 128,-1,3
 380 525 380 525 351.5 538.5 c 128,-1,4
 323 552 323 552 291 552 c 256,5,6
 259 552 259 552 231 537.5 c 128,-1,7
 203 523 203 523 182 493 c 128,-1,8
 161 463 161 463 148.5 416 c 128,-1,9
 136 369 136 369 136 304 c 0,10,11
 136 183 136 183 176.5 119 c 128,-1,12
 217 55 217 55 291 55 c 0,13,14
 366 55 366 55 406.5 119 c 128,-1,15
 447 183 447 183 447 304 c 0,0,1
291 -13 m 256,16,17
 238 -13 238 -13 194.5 6.5 c 128,-1,18
 151 26 151 26 119.5 65.5 c 128,-1,19
 88 105 88 105 71 164.5 c 128,-1,20
 54 224 54 224 54 304 c 0,21,22
 54 390 54 390 74 450 c 128,-1,23
 94 510 94 510 127 548 c 128,-1,24
 160 586 160 586 202.5 603 c 128,-1,25
 245 620 245 620 291 620 c 256,26,27
 337 620 337 620 380 602.5 c 128,-1,28
 423 585 423 585 456 547 c 128,-1,29
 489 509 489 509 509 449 c 128,-1,30
 529 389 529 389 529 304 c 0,31,32
 529 224 529 224 512 164.5 c 128,-1,33
 495 105 495 105 463.5 65.5 c 128,-1,34
 432 26 432 26 388 6.5 c 128,-1,35
 344 -13 344 -13 291 -13 c 256,16,17
EndSplineSet
EndChar

StartChar: uni0081
Encoding: 129 129 104
Width: 357
Flags: W
LayerCount: 2
Fore
SplineSet
45 470 m 1,0,1
 32 475 32 475 23.5 485 c 128,-1,2
 15 495 15 495 15 510 c 0,3,4
 15 526 15 526 23 536 c 128,-1,5
 31 546 31 546 51 554 c 2,6,-1
 191 615 l 1,7,-1
 210 615 l 2,8,9
 230 615 230 615 242 603 c 128,-1,10
 254 591 254 591 254 571 c 2,11,-1
 254 -1 l 1,12,13
 248 -3 248 -3 238 -5.5 c 128,-1,14
 228 -8 228 -8 216 -8 c 0,15,16
 173 -8 173 -8 173 29 c 2,17,-1
 173 530 l 1,18,-1
 45 470 l 1,0,1
EndSplineSet
EndChar

StartChar: uni0082
Encoding: 130 130 105
Width: 508
Flags: W
LayerCount: 2
Fore
SplineSet
57 545 m 0,0,1
 57 558 57 558 70.5 571.5 c 128,-1,2
 84 585 84 585 107 596 c 128,-1,3
 130 607 130 607 161 613.5 c 128,-1,4
 192 620 192 620 227 620 c 0,5,6
 324 620 324 620 378.5 573 c 128,-1,7
 433 526 433 526 433 446 c 0,8,9
 433 419 433 419 426 392.5 c 128,-1,10
 419 366 419 366 403 338.5 c 128,-1,11
 387 311 387 311 361 281 c 128,-1,12
 335 251 335 251 298 217 c 2,13,-1
 135 66 l 1,14,-1
 432 66 l 1,15,16
 436 61 436 61 439 53 c 128,-1,17
 442 45 442 45 442 34 c 0,18,19
 442 0 442 0 411 0 c 2,20,-1
 58 0 l 1,21,22
 38 14 38 14 38 40 c 0,23,24
 38 69 38 69 62 92 c 2,25,-1
 242 265 l 2,26,27
 272 294 272 294 293 318 c 128,-1,28
 314 342 314 342 326.5 363 c 128,-1,29
 339 384 339 384 344.5 404 c 128,-1,30
 350 424 350 424 350 445 c 0,31,32
 350 493 350 493 318 522.5 c 128,-1,33
 286 552 286 552 221 552 c 0,34,35
 176 552 176 552 142 537 c 128,-1,36
 108 522 108 522 85 505 c 1,37,38
 74 510 74 510 65.5 520 c 128,-1,39
 57 530 57 530 57 545 c 0,0,1
EndSplineSet
EndChar

StartChar: uni0083
Encoding: 131 131 106
Width: 506
Flags: W
LayerCount: 2
Fore
SplineSet
217 621 m 0,0,1
 264 621 264 621 303 610.5 c 128,-1,2
 342 600 342 600 370 579 c 128,-1,3
 398 558 398 558 413.5 527 c 128,-1,4
 429 496 429 496 429 455 c 0,5,6
 429 425 429 425 419 401.5 c 128,-1,7
 409 378 409 378 394.5 361 c 128,-1,8
 380 344 380 344 363 334 c 128,-1,9
 346 324 346 324 333 321 c 1,10,11
 353 315 353 315 373 302.5 c 128,-1,12
 393 290 393 290 409.5 271.5 c 128,-1,13
 426 253 426 253 436.5 227.5 c 128,-1,14
 447 202 447 202 447 170 c 0,15,16
 447 125 447 125 430.5 91 c 128,-1,17
 414 57 414 57 384 34.5 c 128,-1,18
 354 12 354 12 312 0.5 c 128,-1,19
 270 -11 270 -11 220 -11 c 0,20,21
 179 -11 179 -11 144.5 -4.5 c 128,-1,22
 110 2 110 2 85 13.5 c 128,-1,23
 60 25 60 25 46 39 c 128,-1,24
 32 53 32 53 32 68 c 0,25,26
 32 82 32 82 39.5 92 c 128,-1,27
 47 102 47 102 59 109 c 1,28,29
 85 89 85 89 122.5 73 c 128,-1,30
 160 57 160 57 220 57 c 0,31,32
 286 57 286 57 327 85.5 c 128,-1,33
 368 114 368 114 368 172 c 0,34,35
 368 223 368 223 330 254 c 128,-1,36
 292 285 292 285 220 285 c 2,37,-1
 137 285 l 1,38,39
 133 290 133 290 130 299.5 c 128,-1,40
 127 309 127 309 127 319 c 0,41,42
 127 330 127 330 130 339 c 128,-1,43
 133 348 133 348 137 353 c 1,44,-1
 213 353 l 2,45,46
 287 353 287 353 318.5 380.5 c 128,-1,47
 350 408 350 408 350 453 c 0,48,49
 350 502 350 502 314.5 527.5 c 128,-1,50
 279 553 279 553 216 553 c 0,51,52
 168 553 168 553 131.5 538.5 c 128,-1,53
 95 524 95 524 71 507 c 1,54,55
 61 512 61 512 53 522.5 c 128,-1,56
 45 533 45 533 45 547 c 0,57,58
 45 560 45 560 58 573.5 c 128,-1,59
 71 587 71 587 94.5 597.5 c 128,-1,60
 118 608 118 608 149.5 614.5 c 128,-1,61
 181 621 181 621 217 621 c 0,0,1
EndSplineSet
EndChar

StartChar: uni0084
Encoding: 132 132 107
Width: 548
Flags: W
LayerCount: 2
Fore
SplineSet
323 609 m 1,0,1
 332 611 332 611 343.5 612.5 c 128,-1,2
 355 614 355 614 364 614 c 0,3,4
 385 614 385 614 402 604 c 128,-1,5
 419 594 419 594 419 565 c 2,6,-1
 419 215 l 1,7,-1
 519 215 l 1,8,9
 522 210 522 210 525 201.5 c 128,-1,10
 528 193 528 193 528 182 c 0,11,12
 528 148 528 148 497 148 c 2,13,-1
 419 148 l 1,14,-1
 419 -2 l 1,15,16
 414 -4 414 -4 404.5 -6 c 128,-1,17
 395 -8 395 -8 384 -8 c 0,18,19
 341 -8 341 -8 341 27 c 2,20,-1
 341 148 l 1,21,-1
 52 148 l 1,22,23
 42 153 42 153 34.5 165.5 c 128,-1,24
 27 178 27 178 27 195 c 0,25,26
 27 204 27 204 28.5 210.5 c 128,-1,27
 30 217 30 217 32 223 c 2,28,-1
 323 609 l 1,0,1
344 530 m 1,29,-1
 342 530 l 1,30,-1
 120 215 l 1,31,-1
 342 215 l 1,32,-1
 344 530 l 1,29,-1
EndSplineSet
EndChar

StartChar: uni0085
Encoding: 133 133 108
Width: 538
Flags: W
LayerCount: 2
Fore
SplineSet
454 608 m 1,0,1
 457 603 457 603 460 594.5 c 128,-1,2
 463 586 463 586 463 576 c 0,3,4
 463 559 463 559 455 549.5 c 128,-1,5
 447 540 447 540 432 540 c 2,6,-1
 176 540 l 1,7,-1
 160 360 l 1,8,9
 177 369 177 369 207 377.5 c 128,-1,10
 237 386 237 386 272 386 c 0,11,12
 317 386 317 386 355.5 373 c 128,-1,13
 394 360 394 360 423 335.5 c 128,-1,14
 452 311 452 311 468.5 274.5 c 128,-1,15
 485 238 485 238 485 190 c 0,16,17
 485 146 485 146 470 109 c 128,-1,18
 455 72 455 72 426 45 c 128,-1,19
 397 18 397 18 354.5 2.5 c 128,-1,20
 312 -13 312 -13 258 -13 c 0,21,22
 215 -13 215 -13 179.5 -5.5 c 128,-1,23
 144 2 144 2 119 14 c 128,-1,24
 94 26 94 26 80.5 40.5 c 128,-1,25
 67 55 67 55 67 69 c 0,26,27
 67 85 67 85 77.5 96.5 c 128,-1,28
 88 108 88 108 99 113 c 1,29,30
 121 93 121 93 161 73.5 c 128,-1,31
 201 54 201 54 258 54 c 0,32,33
 327 54 327 54 365 92 c 128,-1,34
 403 130 403 130 403 190 c 0,35,36
 403 251 403 251 364 285 c 128,-1,37
 325 319 325 319 262 319 c 0,38,39
 227 319 227 319 198 308 c 128,-1,40
 169 297 169 297 144 283 c 1,41,42
 117 285 117 285 100.5 299.5 c 128,-1,43
 84 314 84 314 84 337 c 0,44,45
 84 343 84 343 84.5 352.5 c 128,-1,46
 85 362 85 362 86 371 c 2,47,-1
 103 562 l 2,48,49
 105 583 105 583 116 595.5 c 128,-1,50
 127 608 127 608 148 608 c 2,51,-1
 454 608 l 1,52,-1
 454 608 l 1,0,1
EndSplineSet
EndChar

StartChar: uni0086
Encoding: 134 134 109
Width: 550
Flags: W
LayerCount: 2
Fore
SplineSet
455 561 m 0,0,1
 455 549 455 549 448.5 538.5 c 128,-1,2
 442 528 442 528 432 523 c 1,3,4
 410 534 410 534 382.5 542.5 c 128,-1,5
 355 551 355 551 323 551 c 0,6,7
 284 551 284 551 250.5 537 c 128,-1,8
 217 523 217 523 191.5 494.5 c 128,-1,9
 166 466 166 466 151 422.5 c 128,-1,10
 136 379 136 379 135 320 c 1,11,12
 145 330 145 330 160.5 341 c 128,-1,13
 176 352 176 352 196.5 362 c 128,-1,14
 217 372 217 372 243 378.5 c 128,-1,15
 269 385 269 385 299 385 c 0,16,17
 343 385 343 385 380 372.5 c 128,-1,18
 417 360 417 360 444 335 c 128,-1,19
 471 310 471 310 486 273 c 128,-1,20
 501 236 501 236 501 187 c 0,21,22
 501 140 501 140 486 103 c 128,-1,23
 471 66 471 66 443 40.5 c 128,-1,24
 415 15 415 15 375.5 1 c 128,-1,25
 336 -13 336 -13 288 -13 c 0,26,27
 238 -13 238 -13 195 3.5 c 128,-1,28
 152 20 152 20 120.5 56 c 128,-1,29
 89 92 89 92 71.5 148.5 c 128,-1,30
 54 205 54 205 54 285 c 0,31,32
 54 379 54 379 77 443 c 128,-1,33
 100 507 100 507 137.5 546.5 c 128,-1,34
 175 586 175 586 223 603 c 128,-1,35
 271 620 271 620 321 620 c 0,36,37
 347 620 347 620 371 616 c 128,-1,38
 395 612 395 612 414 604.5 c 128,-1,39
 433 597 433 597 444 586 c 128,-1,40
 455 575 455 575 455 561 c 0,0,1
288 54 m 0,41,42
 346 54 346 54 383 89 c 128,-1,43
 420 124 420 124 420 189 c 256,44,45
 420 254 420 254 382.5 285.5 c 128,-1,46
 345 317 345 317 290 317 c 0,47,48
 236 317 236 317 197 295 c 128,-1,49
 158 273 158 273 135 241 c 1,50,51
 136 157 136 157 175.5 105.5 c 128,-1,52
 215 54 215 54 288 54 c 0,41,42
EndSplineSet
EndChar

StartChar: uni0087
Encoding: 135 135 110
Width: 458
Flags: W
LayerCount: 2
Fore
SplineSet
415 608 m 1,0,1
 438 595 438 595 438 568 c 0,2,3
 438 548 438 548 427 526 c 2,4,-1
 176 -4 l 1,5,6
 170 -5 170 -5 164.5 -5 c 128,-1,7
 159 -5 159 -5 153 -5 c 0,8,9
 133 -5 133 -5 119.5 4.5 c 128,-1,10
 106 14 106 14 106 31 c 0,11,12
 106 43 106 43 110.5 54.5 c 128,-1,13
 115 66 115 66 123 81 c 2,14,-1
 349 540 l 1,15,-1
 33 540 l 1,16,17
 30 545 30 545 27 553 c 128,-1,18
 24 561 24 561 24 572 c 0,19,20
 24 589 24 589 32 598.5 c 128,-1,21
 40 608 40 608 55 608 c 2,22,-1
 415 608 l 1,0,1
EndSplineSet
EndChar

StartChar: uni0088
Encoding: 136 136 111
Width: 569
Flags: W
LayerCount: 2
Fore
SplineSet
59 161 m 0,0,1
 59 192 59 192 68.5 217 c 128,-1,2
 78 242 78 242 94 261.5 c 128,-1,3
 110 281 110 281 131 294.5 c 128,-1,4
 152 308 152 308 175 317 c 1,5,6
 127 335 127 335 100.5 369 c 128,-1,7
 74 403 74 403 74 455 c 0,8,9
 74 493 74 493 89 523.5 c 128,-1,10
 104 554 104 554 132 575.5 c 128,-1,11
 160 597 160 597 199 608.5 c 128,-1,12
 238 620 238 620 285 620 c 0,13,14
 383 620 383 620 439.5 575.5 c 128,-1,15
 496 531 496 531 496 453 c 0,16,17
 496 400 496 400 466 366.5 c 128,-1,18
 436 333 436 333 389 317 c 1,19,20
 414 308 414 308 436 294 c 128,-1,21
 458 280 458 280 474.5 261 c 128,-1,22
 491 242 491 242 500.5 216.5 c 128,-1,23
 510 191 510 191 510 160 c 0,24,25
 510 119 510 119 493.5 87 c 128,-1,26
 477 55 477 55 447.5 33 c 128,-1,27
 418 11 418 11 376.5 -1 c 128,-1,28
 335 -13 335 -13 285 -13 c 0,29,30
 182 -13 182 -13 120.5 32.5 c 128,-1,31
 59 78 59 78 59 161 c 0,0,1
430 163 m 256,32,33
 430 217 430 217 388.5 250 c 128,-1,34
 347 283 347 283 275 292 c 1,35,36
 213 281 213 281 176 248 c 128,-1,37
 139 215 139 215 139 162 c 0,38,39
 139 111 139 111 177.5 82.5 c 128,-1,40
 216 54 216 54 285 54 c 0,41,42
 351 54 351 54 390.5 81.5 c 128,-1,43
 430 109 430 109 430 163 c 256,32,33
154 454 m 0,44,45
 154 426 154 426 165 406.5 c 128,-1,46
 176 387 176 387 195.5 374 c 128,-1,47
 215 361 215 361 241 353.5 c 128,-1,48
 267 346 267 346 297 343 c 1,49,50
 357 358 357 358 386.5 384 c 128,-1,51
 416 410 416 410 416 453 c 0,52,53
 416 501 416 501 381 527 c 128,-1,54
 346 553 346 553 285 553 c 0,55,56
 225 553 225 553 189.5 526 c 128,-1,57
 154 499 154 499 154 454 c 0,44,45
EndSplineSet
EndChar

StartChar: uni0089
Encoding: 137 137 112
Width: 552
Flags: W
LayerCount: 2
Fore
SplineSet
82 49 m 0,0,1
 82 61 82 61 88.5 72 c 128,-1,2
 95 83 95 83 105 88 c 1,3,4
 124 77 124 77 154.5 66.5 c 128,-1,5
 185 56 185 56 227 56 c 0,6,7
 266 56 266 56 300.5 68 c 128,-1,8
 335 80 335 80 361 107 c 128,-1,9
 387 134 387 134 402 177.5 c 128,-1,10
 417 221 417 221 417 284 c 1,11,12
 410 276 410 276 397 265.5 c 128,-1,13
 384 255 384 255 364.5 245.5 c 128,-1,14
 345 236 345 236 320 229.5 c 128,-1,15
 295 223 295 223 264 223 c 0,16,17
 222 223 222 223 183 234 c 128,-1,18
 144 245 144 245 115 268 c 128,-1,19
 86 291 86 291 68.5 328 c 128,-1,20
 51 365 51 365 51 418 c 0,21,22
 51 465 51 465 67.5 502.5 c 128,-1,23
 84 540 84 540 112.5 566 c 128,-1,24
 141 592 141 592 179.5 606 c 128,-1,25
 218 620 218 620 262 620 c 0,26,27
 313 620 313 620 356.5 602.5 c 128,-1,28
 400 585 400 585 431.5 548.5 c 128,-1,29
 463 512 463 512 480.5 456 c 128,-1,30
 498 400 498 400 498 323 c 0,31,32
 498 231 498 231 478.5 167 c 128,-1,33
 459 103 459 103 423.5 63 c 128,-1,34
 388 23 388 23 338 5 c 128,-1,35
 288 -13 288 -13 228 -13 c 0,36,37
 198 -13 198 -13 171.5 -9 c 128,-1,38
 145 -5 145 -5 125 3 c 128,-1,39
 105 11 105 11 93.5 22.5 c 128,-1,40
 82 34 82 34 82 49 c 0,0,1
275 290 m 0,41,42
 300 290 300 290 322.5 296.5 c 128,-1,43
 345 303 345 303 364 314.5 c 128,-1,44
 383 326 383 326 396.5 340.5 c 128,-1,45
 410 355 410 355 417 370 c 1,46,47
 415 455 415 455 374.5 504 c 128,-1,48
 334 553 334 553 262 553 c 0,49,50
 206 553 206 553 169 518 c 128,-1,51
 132 483 132 483 132 420 c 0,52,53
 132 385 132 385 143 360.5 c 128,-1,54
 154 336 154 336 173.5 320.5 c 128,-1,55
 193 305 193 305 219 297.5 c 128,-1,56
 245 290 245 290 275 290 c 0,41,42
EndSplineSet
EndChar

StartChar: uni008A
Encoding: 138 138 113
Width: 504
Flags: W
LayerCount: 2
Fore
SplineSet
145 219 m 0,0,1
 145 237 145 237 142 263 c 1,2,-1
 85 263 l 2,3,4
 74 263 74 263 65.5 270.5 c 128,-1,5
 57 278 57 278 57 296 c 0,6,7
 57 306 57 306 60 313.5 c 128,-1,8
 63 321 63 321 65 328 c 1,9,-1
 136 328 l 1,10,11
 133 353 133 353 131.5 376.5 c 128,-1,12
 130 400 130 400 130 418 c 0,13,14
 130 472 130 472 146 510 c 128,-1,15
 162 548 162 548 189.5 573 c 128,-1,16
 217 598 217 598 253.5 609.5 c 128,-1,17
 290 621 290 621 332 621 c 0,18,19
 364 621 364 621 388 615.5 c 128,-1,20
 412 610 412 610 427.5 601 c 128,-1,21
 443 592 443 592 451 581 c 128,-1,22
 459 570 459 570 459 560 c 0,23,24
 459 552 459 552 453.5 540.5 c 128,-1,25
 448 529 448 529 436 522 c 1,26,27
 414 537 414 537 391.5 545 c 128,-1,28
 369 553 369 553 337 553 c 0,29,30
 210 553 210 553 210 407 c 0,31,32
 210 390 210 390 211 369.5 c 128,-1,33
 212 349 212 349 214 328 c 1,34,-1
 405 328 l 1,35,36
 408 321 408 321 410.5 313.5 c 128,-1,37
 413 306 413 306 413 296 c 0,38,39
 413 278 413 278 405 270.5 c 128,-1,40
 397 263 397 263 384 263 c 2,41,-1
 220 263 l 1,42,43
 223 236 223 236 223 217 c 0,44,45
 223 163 223 163 209 126.5 c 128,-1,46
 195 90 195 90 168 66 c 1,47,-1
 461 66 l 1,48,49
 469 52 469 52 469 33 c 0,50,51
 469 17 469 17 461 8.5 c 128,-1,52
 453 0 453 0 440 0 c 2,53,-1
 100 0 l 2,54,55
 81 0 81 0 67.5 11.5 c 128,-1,56
 54 23 54 23 54 45 c 0,57,58
 54 50 54 50 54 52.5 c 128,-1,59
 54 55 54 55 55 60 c 1,60,61
 77 71 77 71 94 84.5 c 128,-1,62
 111 98 111 98 122.5 116 c 128,-1,63
 134 134 134 134 139.5 159 c 128,-1,64
 145 184 145 184 145 219 c 0,0,1
EndSplineSet
EndChar

StartChar: uni008B
Encoding: 139 139 114
Width: 385
Flags: W
LayerCount: 2
Fore
SplineSet
215 606 m 1,0,1
 220 608 220 608 230.5 610.5 c 128,-1,2
 241 613 241 613 252 613 c 0,3,4
 296 613 296 613 296 576 c 2,5,-1
 296 148 l 2,6,7
 296 103 296 103 283 72.5 c 128,-1,8
 270 42 270 42 247.5 23.5 c 128,-1,9
 225 5 225 5 195.5 -3 c 128,-1,10
 166 -11 166 -11 134 -11 c 0,11,12
 77 -11 77 -11 51 2.5 c 128,-1,13
 25 16 25 16 25 38 c 0,14,15
 25 52 25 52 31 62 c 128,-1,16
 37 72 37 72 42 77 c 1,17,18
 57 70 57 70 78 64 c 128,-1,19
 99 58 99 58 122 58 c 0,20,21
 167 58 167 58 191 79.5 c 128,-1,22
 215 101 215 101 215 152 c 2,23,-1
 215 606 l 1,24,-1
 215 606 l 1,0,1
EndSplineSet
EndChar

StartChar: uni008C
Encoding: 140 140 115
Width: 690
Flags: W
LayerCount: 2
Fore
SplineSet
634 304 m 0,0,1
 634 182 634 182 581.5 106 c 128,-1,2
 529 30 529 30 445 2 c 1,3,4
 482 -18 482 -18 510.5 -32.5 c 128,-1,5
 539 -47 539 -47 563.5 -58 c 128,-1,6
 588 -69 588 -69 610.5 -78 c 128,-1,7
 633 -87 633 -87 658 -96 c 1,8,9
 660 -103 660 -103 660 -107.5 c 128,-1,10
 660 -112 660 -112 660 -116 c 0,11,12
 660 -135 660 -135 648.5 -146.5 c 128,-1,13
 637 -158 637 -158 616 -158 c 0,14,15
 584 -158 584 -158 532.5 -130.5 c 128,-1,16
 481 -103 481 -103 415 -58 c 2,17,-1
 349 -13 l 1,18,-1
 344 -13 l 2,19,20
 282 -13 282 -13 229 7.5 c 128,-1,21
 176 28 176 28 137 67.5 c 128,-1,22
 98 107 98 107 76 166.5 c 128,-1,23
 54 226 54 226 54 304 c 256,24,25
 54 382 54 382 76.5 441 c 128,-1,26
 99 500 99 500 138 540 c 128,-1,27
 177 580 177 580 230 600.5 c 128,-1,28
 283 621 283 621 344 621 c 256,29,30
 405 621 405 621 458 600.5 c 128,-1,31
 511 580 511 580 550 540 c 128,-1,32
 589 500 589 500 611.5 441 c 128,-1,33
 634 382 634 382 634 304 c 0,0,1
551 304 m 256,34,35
 551 424 551 424 494.5 488 c 128,-1,36
 438 552 438 552 344 552 c 0,37,38
 297 552 297 552 259 535.5 c 128,-1,39
 221 519 221 519 194 487.5 c 128,-1,40
 167 456 167 456 152.5 410 c 128,-1,41
 138 364 138 364 138 304 c 0,42,43
 138 184 138 184 194 120 c 128,-1,44
 250 56 250 56 344 56 c 0,45,46
 439 56 439 56 495 120 c 128,-1,47
 551 184 551 184 551 304 c 256,34,35
EndSplineSet
EndChar

StartChar: uni008D
Encoding: 141 141 116
Width: 803
Flags: W
LayerCount: 2
Fore
SplineSet
359 457 m 1,0,1
 367 461 367 461 378.5 464 c 128,-1,2
 390 467 390 467 404 467 c 0,3,4
 446 467 446 467 455 441 c 0,5,6
 473 387 473 387 489 339 c 128,-1,7
 505 291 505 291 520 246.5 c 128,-1,8
 535 202 535 202 549 159 c 128,-1,9
 563 116 563 116 577 70 c 1,10,-1
 581 70 l 1,11,12
 595 137 595 137 609 201.5 c 128,-1,13
 623 266 623 266 636 331.5 c 128,-1,14
 649 397 649 397 661 464.5 c 128,-1,15
 673 532 673 532 684 607 c 1,16,17
 698 614 698 614 718 614 c 0,18,19
 737 614 737 614 748 605.5 c 128,-1,20
 759 597 759 597 759 580 c 0,21,22
 759 561 759 561 753.5 522 c 128,-1,23
 748 483 748 483 738.5 432.5 c 128,-1,24
 729 382 729 382 716.5 323.5 c 128,-1,25
 704 265 704 265 690 208.5 c 128,-1,26
 676 152 676 152 662 100 c 128,-1,27
 648 48 648 48 635 11 c 1,28,29
 626 6 626 6 612 1.5 c 128,-1,30
 598 -3 598 -3 580 -3 c 0,31,32
 558 -3 558 -3 543 4 c 128,-1,33
 528 11 528 11 523 23 c 0,34,35
 512 49 512 49 498 88.5 c 128,-1,36
 484 128 484 128 468.5 175.5 c 128,-1,37
 453 223 453 223 437 274.5 c 128,-1,38
 421 326 421 326 406 377 c 1,39,40
 391 327 391 327 375 274 c 128,-1,41
 359 221 359 221 343.5 171.5 c 128,-1,42
 328 122 328 122 313 80 c 128,-1,43
 298 38 298 38 286 10 c 1,44,45
 278 5 278 5 264 1 c 128,-1,46
 250 -3 250 -3 232 -3 c 0,47,48
 209 -3 209 -3 195 4.5 c 128,-1,49
 181 12 181 12 176 23 c 0,50,51
 167 44 167 44 155.5 83 c 128,-1,52
 144 122 144 122 131.5 171.5 c 128,-1,53
 119 221 119 221 105.5 278 c 128,-1,54
 92 335 92 335 79.5 391.5 c 128,-1,55
 67 448 67 448 56.5 500.5 c 128,-1,56
 46 553 46 553 39 595 c 1,57,58
 46 602 46 602 58 608 c 128,-1,59
 70 614 70 614 84 614 c 0,60,61
 119 614 119 614 126 577 c 0,62,63
 139 514 139 514 151 455.5 c 128,-1,64
 163 397 163 397 175.5 336.5 c 128,-1,65
 188 276 188 276 202 211 c 128,-1,66
 216 146 216 146 233 70 c 1,67,-1
 237 70 l 1,68,69
 251 115 251 115 264 155.5 c 128,-1,70
 277 196 277 196 291 240 c 128,-1,71
 305 284 305 284 321.5 336 c 128,-1,72
 338 388 338 388 359 457 c 1,0,1
EndSplineSet
EndChar

StartChar: uni008E
Encoding: 142 142 117
Width: 591
Flags: W
LayerCount: 2
Fore
SplineSet
293 252 m 1,0,-1
 109 -5 l 1,1,2
 99 -7 99 -7 89 -7 c 0,3,4
 69 -7 69 -7 57 2.5 c 128,-1,5
 45 12 45 12 45 29 c 0,6,7
 45 42 45 42 51.5 53 c 128,-1,8
 58 64 58 64 68 78 c 2,9,-1
 244 308 l 1,10,-1
 49 574 l 1,11,12
 54 591 54 591 65.5 602.5 c 128,-1,13
 77 614 77 614 97 614 c 0,14,15
 113 614 113 614 124 604.5 c 128,-1,16
 135 595 135 595 147 578 c 2,17,-1
 295 366 l 1,18,-1
 472 611 l 2,19,20
 477 612 477 612 482 612.5 c 128,-1,21
 487 613 487 613 493 613 c 0,22,23
 514 613 514 613 524.5 603 c 128,-1,24
 535 593 535 593 535 578 c 0,25,26
 535 567 535 567 529.5 556.5 c 128,-1,27
 524 546 524 546 516 535 c 0,28,29
 474 479 474 479 431 423 c 128,-1,30
 388 367 388 367 343 310 c 1,31,-1
 544 32 l 1,32,33
 539 15 539 15 528 4 c 128,-1,34
 517 -7 517 -7 498 -7 c 0,35,36
 482 -7 482 -7 471.5 1 c 128,-1,37
 461 9 461 9 449 27 c 2,38,-1
 293 252 l 1,0,-1
EndSplineSet
EndChar

StartChar: uni008F
Encoding: 143 143 118
Width: 517
Flags: W
LayerCount: 2
Fore
SplineSet
465 608 m 1,0,1
 468 603 468 603 471 594.5 c 128,-1,2
 474 586 474 586 474 576 c 0,3,4
 474 559 474 559 466 549 c 128,-1,5
 458 539 458 539 443 539 c 2,6,-1
 171 539 l 1,7,-1
 171 331 l 1,8,-1
 430 331 l 1,9,10
 433 326 433 326 436 317.5 c 128,-1,11
 439 309 439 309 439 299 c 0,12,13
 439 282 439 282 431 272 c 128,-1,14
 423 262 423 262 408 262 c 2,15,-1
 171 262 l 1,16,-1
 171 1 l 1,17,18
 166 -1 166 -1 155.5 -3 c 128,-1,19
 145 -5 145 -5 134 -5 c 0,20,21
 89 -5 89 -5 89 31 c 2,22,-1
 89 564 l 2,23,24
 89 584 89 584 101 596 c 128,-1,25
 113 608 113 608 133 608 c 2,26,-1
 465 608 l 1,0,1
EndSplineSet
EndChar

StartChar: uni0090
Encoding: 144 144 119
Width: 1209
VWidth: 2000
Flags: W
LayerCount: 2
Fore
SplineSet
387.537109375 3.5859375 m 4,0,1
 387.537109375 19.451171875 387.537109375 19.451171875 405.701171875 33.4208984375 c 132,-1,2
 423.864257812 47.3916015625 423.864257812 47.3916015625 455.83203125 57.693359375 c 132,-1,3
 487.80078125 67.9921875 487.80078125 67.9921875 531.029296875 73.912109375 c 132,-1,4
 574.2578125 79.8310546875 574.2578125 79.8310546875 624.388671875 79.8310546875 c 260,5,6
 674.51953125 79.8310546875 674.51953125 79.8310546875 717.748046875 73.912109375 c 132,-1,7
 760.9765625 67.9921875 760.9765625 67.9921875 792.9453125 57.693359375 c 132,-1,8
 824.913085938 47.3916015625 824.913085938 47.3916015625 843.076171875 33.4208984375 c 132,-1,9
 861.239257812 19.451171875 861.239257812 19.451171875 861.239257812 3.5859375 c 4,10,11
 861.239257812 -12.04296875 861.239257812 -12.04296875 843.076171875 -25.8955078125 c 132,-1,12
 824.913085938 -39.7470703125 824.913085938 -39.7470703125 792.9453125 -50.0478515625 c 132,-1,13
 760.9765625 -60.3466796875 760.9765625 -60.3466796875 717.748046875 -66.3857421875 c 132,-1,14
 674.51953125 -72.423828125 674.51953125 -72.423828125 624.388671875 -72.423828125 c 260,15,16
 574.2578125 -72.423828125 574.2578125 -72.423828125 531.029296875 -66.3857421875 c 132,-1,17
 487.80078125 -60.3466796875 487.80078125 -60.3466796875 455.83203125 -50.0478515625 c 132,-1,18
 423.864257812 -39.7470703125 423.864257812 -39.7470703125 405.701171875 -25.8955078125 c 132,-1,19
 387.537109375 -12.04296875 387.537109375 -12.04296875 387.537109375 3.5859375 c 4,0,1
479.807617188 3.3486328125 m 260,20,21
 479.807617188 -6.5966796875 479.807617188 -6.5966796875 490.706054688 -15.2392578125 c 132,-1,22
 501.603515625 -23.8818359375 501.603515625 -23.8818359375 521.220703125 -30.275390625 c 132,-1,23
 540.8359375 -36.6689453125 540.8359375 -36.6689453125 567.35546875 -40.3388671875 c 132,-1,24
 593.874023438 -44.0087890625 593.874023438 -44.0087890625 624.388671875 -44.0087890625 c 260,25,26
 654.90234375 -44.0087890625 654.90234375 -44.0087890625 681.057617188 -40.3388671875 c 132,-1,27
 707.213867188 -36.6689453125 707.213867188 -36.6689453125 726.829101562 -30.275390625 c 132,-1,28
 746.446289062 -23.8818359375 746.446289062 -23.8818359375 757.345703125 -15.2392578125 c 132,-1,29
 768.2421875 -6.5966796875 768.2421875 -6.5966796875 768.2421875 3.3486328125 c 260,30,31
 768.2421875 13.294921875 768.2421875 13.294921875 757.345703125 22.0546875 c 132,-1,32
 746.446289062 30.81640625 746.446289062 30.81640625 726.829101562 37.328125 c 132,-1,33
 707.213867188 43.8408203125 707.213867188 43.8408203125 681.057617188 47.509765625 c 132,-1,34
 654.90234375 51.1806640625 654.90234375 51.1806640625 624.388671875 51.1806640625 c 260,35,36
 593.874023438 51.1806640625 593.874023438 51.1806640625 567.35546875 47.509765625 c 132,-1,37
 540.8359375 43.8408203125 540.8359375 43.8408203125 521.220703125 37.328125 c 132,-1,38
 501.603515625 30.81640625 501.603515625 30.81640625 490.706054688 22.0546875 c 132,-1,39
 479.807617188 13.294921875 479.807617188 13.294921875 479.807617188 3.3486328125 c 260,20,21
387.537109375 175.08203125 m 4,40,41
 387.537109375 190.947265625 387.537109375 190.947265625 405.701171875 204.916992188 c 132,-1,42
 423.864257812 218.888671875 423.864257812 218.888671875 455.83203125 229.188476562 c 132,-1,43
 487.80078125 239.489257812 487.80078125 239.489257812 531.029296875 245.408203125 c 132,-1,44
 574.2578125 251.327148438 574.2578125 251.327148438 624.388671875 251.327148438 c 260,45,46
 674.51953125 251.327148438 674.51953125 251.327148438 717.748046875 245.408203125 c 132,-1,47
 760.9765625 239.489257812 760.9765625 239.489257812 792.9453125 229.188476562 c 132,-1,48
 824.913085938 218.888671875 824.913085938 218.888671875 843.076171875 204.916992188 c 132,-1,49
 861.239257812 190.947265625 861.239257812 190.947265625 861.239257812 175.08203125 c 4,50,51
 861.239257812 159.453125 861.239257812 159.453125 843.076171875 145.600585938 c 132,-1,52
 824.913085938 131.749023438 824.913085938 131.749023438 792.9453125 121.448242188 c 132,-1,53
 760.9765625 111.1484375 760.9765625 111.1484375 717.748046875 105.110351562 c 132,-1,54
 674.51953125 99.072265625 674.51953125 99.072265625 624.388671875 99.072265625 c 260,55,56
 574.2578125 99.072265625 574.2578125 99.072265625 531.029296875 105.110351562 c 132,-1,57
 487.80078125 111.1484375 487.80078125 111.1484375 455.83203125 121.448242188 c 132,-1,58
 423.864257812 131.749023438 423.864257812 131.749023438 405.701171875 145.600585938 c 132,-1,59
 387.537109375 159.453125 387.537109375 159.453125 387.537109375 175.08203125 c 4,40,41
479.807617188 174.845703125 m 260,60,61
 479.807617188 164.899414062 479.807617188 164.899414062 490.706054688 156.2578125 c 132,-1,62
 501.603515625 147.614257812 501.603515625 147.614257812 521.220703125 141.220703125 c 132,-1,63
 540.8359375 134.827148438 540.8359375 134.827148438 567.35546875 131.157226562 c 132,-1,64
 593.874023438 127.486328125 593.874023438 127.486328125 624.388671875 127.486328125 c 260,65,66
 654.90234375 127.486328125 654.90234375 127.486328125 681.057617188 131.157226562 c 132,-1,67
 707.213867188 134.827148438 707.213867188 134.827148438 726.829101562 141.220703125 c 132,-1,68
 746.446289062 147.614257812 746.446289062 147.614257812 757.345703125 156.2578125 c 132,-1,69
 768.2421875 164.899414062 768.2421875 164.899414062 768.2421875 174.845703125 c 260,70,71
 768.2421875 184.7890625 768.2421875 184.7890625 757.345703125 193.55078125 c 132,-1,72
 746.446289062 202.313476562 746.446289062 202.313476562 726.829101562 208.82421875 c 132,-1,73
 707.213867188 215.3359375 707.213867188 215.3359375 681.057617188 219.005859375 c 132,-1,74
 654.90234375 222.67578125 654.90234375 222.67578125 624.388671875 222.67578125 c 260,75,76
 593.874023438 222.67578125 593.874023438 222.67578125 567.35546875 219.005859375 c 132,-1,77
 540.8359375 215.3359375 540.8359375 215.3359375 521.220703125 208.82421875 c 132,-1,78
 501.603515625 202.313476562 501.603515625 202.313476562 490.706054688 193.55078125 c 132,-1,79
 479.807617188 184.7890625 479.807617188 184.7890625 479.807617188 174.845703125 c 260,60,61
387.537109375 348.150390625 m 4,80,81
 387.537109375 364.015625 387.537109375 364.015625 405.701171875 377.986328125 c 132,-1,82
 423.864257812 391.95703125 423.864257812 391.95703125 455.83203125 402.2578125 c 132,-1,83
 487.80078125 412.557617188 487.80078125 412.557617188 531.029296875 418.477539062 c 132,-1,84
 574.2578125 424.397460938 574.2578125 424.397460938 624.388671875 424.397460938 c 260,85,86
 674.51953125 424.397460938 674.51953125 424.397460938 717.748046875 418.477539062 c 132,-1,87
 760.9765625 412.557617188 760.9765625 412.557617188 792.9453125 402.2578125 c 132,-1,88
 824.913085938 391.95703125 824.913085938 391.95703125 843.076171875 377.986328125 c 132,-1,89
 861.239257812 364.015625 861.239257812 364.015625 861.239257812 348.150390625 c 4,90,91
 861.239257812 332.522460938 861.239257812 332.522460938 843.076171875 318.670898438 c 132,-1,92
 824.913085938 304.819335938 824.913085938 304.819335938 792.9453125 294.517578125 c 132,-1,93
 760.9765625 284.217773438 760.9765625 284.217773438 717.748046875 278.1796875 c 132,-1,94
 674.51953125 272.140625 674.51953125 272.140625 624.388671875 272.140625 c 260,95,96
 574.2578125 272.140625 574.2578125 272.140625 531.029296875 278.1796875 c 132,-1,97
 487.80078125 284.217773438 487.80078125 284.217773438 455.83203125 294.517578125 c 132,-1,98
 423.864257812 304.819335938 423.864257812 304.819335938 405.701171875 318.670898438 c 132,-1,99
 387.537109375 332.522460938 387.537109375 332.522460938 387.537109375 348.150390625 c 4,80,81
479.807617188 347.9140625 m 260,100,101
 479.807617188 337.96875 479.807617188 337.96875 490.706054688 329.326171875 c 132,-1,102
 501.603515625 320.68359375 501.603515625 320.68359375 521.220703125 314.290039062 c 132,-1,103
 540.8359375 307.896484375 540.8359375 307.896484375 567.35546875 304.2265625 c 132,-1,104
 593.874023438 300.555664062 593.874023438 300.555664062 624.388671875 300.555664062 c 260,105,106
 654.90234375 300.555664062 654.90234375 300.555664062 681.057617188 304.2265625 c 132,-1,107
 707.213867188 307.896484375 707.213867188 307.896484375 726.829101562 314.290039062 c 132,-1,108
 746.446289062 320.68359375 746.446289062 320.68359375 757.345703125 329.326171875 c 132,-1,109
 768.2421875 337.96875 768.2421875 337.96875 768.2421875 347.9140625 c 260,110,111
 768.2421875 357.859375 768.2421875 357.859375 757.345703125 366.620117188 c 132,-1,112
 746.446289062 375.381835938 746.446289062 375.381835938 726.829101562 381.893554688 c 132,-1,113
 707.213867188 388.404296875 707.213867188 388.404296875 681.057617188 392.075195312 c 132,-1,114
 654.90234375 395.74609375 654.90234375 395.74609375 624.388671875 395.74609375 c 260,115,116
 593.874023438 395.74609375 593.874023438 395.74609375 567.35546875 392.075195312 c 132,-1,117
 540.8359375 388.404296875 540.8359375 388.404296875 521.220703125 381.893554688 c 132,-1,118
 501.603515625 375.381835938 501.603515625 375.381835938 490.706054688 366.620117188 c 132,-1,119
 479.807617188 357.859375 479.807617188 357.859375 479.807617188 347.9140625 c 260,100,101
387.537109375 519.646484375 m 4,120,121
 387.537109375 535.51171875 387.537109375 535.51171875 405.701171875 549.481445312 c 132,-1,122
 423.864257812 563.454101562 423.864257812 563.454101562 455.83203125 573.75390625 c 132,-1,123
 487.80078125 584.053710938 487.80078125 584.053710938 531.029296875 589.97265625 c 132,-1,124
 574.2578125 595.892578125 574.2578125 595.892578125 624.388671875 595.892578125 c 260,125,126
 674.51953125 595.892578125 674.51953125 595.892578125 717.748046875 589.97265625 c 132,-1,127
 760.9765625 584.053710938 760.9765625 584.053710938 792.9453125 573.75390625 c 132,-1,128
 824.913085938 563.454101562 824.913085938 563.454101562 843.076171875 549.481445312 c 132,-1,129
 861.239257812 535.51171875 861.239257812 535.51171875 861.239257812 519.646484375 c 4,130,131
 861.239257812 504.018554688 861.239257812 504.018554688 843.076171875 490.166015625 c 132,-1,132
 824.913085938 476.314453125 824.913085938 476.314453125 792.9453125 466.013671875 c 132,-1,133
 760.9765625 455.713867188 760.9765625 455.713867188 717.748046875 449.67578125 c 132,-1,134
 674.51953125 443.63671875 674.51953125 443.63671875 624.388671875 443.63671875 c 260,135,136
 574.2578125 443.63671875 574.2578125 443.63671875 531.029296875 449.67578125 c 132,-1,137
 487.80078125 455.713867188 487.80078125 455.713867188 455.83203125 466.013671875 c 132,-1,138
 423.864257812 476.314453125 423.864257812 476.314453125 405.701171875 490.166015625 c 132,-1,139
 387.537109375 504.018554688 387.537109375 504.018554688 387.537109375 519.646484375 c 4,120,121
479.807617188 519.41015625 m 260,140,141
 479.807617188 509.46484375 479.807617188 509.46484375 490.706054688 500.822265625 c 132,-1,142
 501.603515625 492.1796875 501.603515625 492.1796875 521.220703125 485.78515625 c 132,-1,143
 540.8359375 479.391601562 540.8359375 479.391601562 567.35546875 475.721679688 c 132,-1,144
 593.874023438 472.051757812 593.874023438 472.051757812 624.388671875 472.051757812 c 260,145,146
 654.90234375 472.051757812 654.90234375 472.051757812 681.057617188 475.721679688 c 132,-1,147
 707.213867188 479.391601562 707.213867188 479.391601562 726.829101562 485.78515625 c 132,-1,148
 746.446289062 492.1796875 746.446289062 492.1796875 757.345703125 500.822265625 c 132,-1,149
 768.2421875 509.46484375 768.2421875 509.46484375 768.2421875 519.41015625 c 260,150,151
 768.2421875 529.35546875 768.2421875 529.35546875 757.345703125 538.116210938 c 132,-1,152
 746.446289062 546.877929688 746.446289062 546.877929688 726.829101562 553.389648438 c 132,-1,153
 707.213867188 559.901367188 707.213867188 559.901367188 681.057617188 563.571289062 c 132,-1,154
 654.90234375 567.2421875 654.90234375 567.2421875 624.388671875 567.2421875 c 260,155,156
 593.874023438 567.2421875 593.874023438 567.2421875 567.35546875 563.571289062 c 132,-1,157
 540.8359375 559.901367188 540.8359375 559.901367188 521.220703125 553.389648438 c 132,-1,158
 501.603515625 546.877929688 501.603515625 546.877929688 490.706054688 538.116210938 c 132,-1,159
 479.807617188 529.35546875 479.807617188 529.35546875 479.807617188 519.41015625 c 260,140,141
EndSplineSet
EndChar

StartChar: uni0091
Encoding: 145 145 120
Width: 1209
VWidth: 2000
Flags: W
LayerCount: 2
Fore
SplineSet
387.537109375 3.5859375 m 0,0,1
 387.537109375 19.451171875 387.537109375 19.451171875 405.701171875 33.4208984375 c 128,-1,2
 423.864257812 47.3916015625 423.864257812 47.3916015625 455.83203125 57.693359375 c 128,-1,3
 487.80078125 67.9921875 487.80078125 67.9921875 531.029296875 73.912109375 c 128,-1,4
 574.2578125 79.8310546875 574.2578125 79.8310546875 624.388671875 79.8310546875 c 256,5,6
 674.51953125 79.8310546875 674.51953125 79.8310546875 717.748046875 73.912109375 c 128,-1,7
 760.9765625 67.9921875 760.9765625 67.9921875 792.9453125 57.693359375 c 128,-1,8
 824.913085938 47.3916015625 824.913085938 47.3916015625 843.076171875 33.4208984375 c 128,-1,9
 861.239257812 19.451171875 861.239257812 19.451171875 861.239257812 3.5859375 c 0,10,11
 861.239257812 -12.04296875 861.239257812 -12.04296875 843.076171875 -25.8955078125 c 128,-1,12
 824.913085938 -39.7470703125 824.913085938 -39.7470703125 792.9453125 -50.0478515625 c 128,-1,13
 760.9765625 -60.3466796875 760.9765625 -60.3466796875 717.748046875 -66.3857421875 c 128,-1,14
 674.51953125 -72.423828125 674.51953125 -72.423828125 624.388671875 -72.423828125 c 256,15,16
 574.2578125 -72.423828125 574.2578125 -72.423828125 531.029296875 -66.3857421875 c 128,-1,17
 487.80078125 -60.3466796875 487.80078125 -60.3466796875 455.83203125 -50.0478515625 c 128,-1,18
 423.864257812 -39.7470703125 423.864257812 -39.7470703125 405.701171875 -25.8955078125 c 128,-1,19
 387.537109375 -12.04296875 387.537109375 -12.04296875 387.537109375 3.5859375 c 0,0,1
387.537109375 175.08203125 m 0,20,21
 387.537109375 190.947265625 387.537109375 190.947265625 405.701171875 204.916992188 c 128,-1,22
 423.864257812 218.888671875 423.864257812 218.888671875 455.83203125 229.188476562 c 128,-1,23
 487.80078125 239.489257812 487.80078125 239.489257812 531.029296875 245.408203125 c 128,-1,24
 574.2578125 251.327148438 574.2578125 251.327148438 624.388671875 251.327148438 c 256,25,26
 674.51953125 251.327148438 674.51953125 251.327148438 717.748046875 245.408203125 c 128,-1,27
 760.9765625 239.489257812 760.9765625 239.489257812 792.9453125 229.188476562 c 128,-1,28
 824.913085938 218.888671875 824.913085938 218.888671875 843.076171875 204.916992188 c 128,-1,29
 861.239257812 190.947265625 861.239257812 190.947265625 861.239257812 175.08203125 c 0,30,31
 861.239257812 159.453125 861.239257812 159.453125 843.076171875 145.600585938 c 128,-1,32
 824.913085938 131.749023438 824.913085938 131.749023438 792.9453125 121.448242188 c 128,-1,33
 760.9765625 111.1484375 760.9765625 111.1484375 717.748046875 105.110351562 c 128,-1,34
 674.51953125 99.072265625 674.51953125 99.072265625 624.388671875 99.072265625 c 256,35,36
 574.2578125 99.072265625 574.2578125 99.072265625 531.029296875 105.110351562 c 128,-1,37
 487.80078125 111.1484375 487.80078125 111.1484375 455.83203125 121.448242188 c 128,-1,38
 423.864257812 131.749023438 423.864257812 131.749023438 405.701171875 145.600585938 c 128,-1,39
 387.537109375 159.453125 387.537109375 159.453125 387.537109375 175.08203125 c 0,20,21
479.807617188 174.845703125 m 256,40,41
 479.807617188 164.899414062 479.807617188 164.899414062 490.706054688 156.2578125 c 128,-1,42
 501.603515625 147.614257812 501.603515625 147.614257812 521.220703125 141.220703125 c 128,-1,43
 540.8359375 134.827148438 540.8359375 134.827148438 567.35546875 131.157226562 c 128,-1,44
 593.874023438 127.486328125 593.874023438 127.486328125 624.388671875 127.486328125 c 256,45,46
 654.90234375 127.486328125 654.90234375 127.486328125 681.057617188 131.157226562 c 128,-1,47
 707.213867188 134.827148438 707.213867188 134.827148438 726.829101562 141.220703125 c 128,-1,48
 746.446289062 147.614257812 746.446289062 147.614257812 757.345703125 156.2578125 c 128,-1,49
 768.2421875 164.899414062 768.2421875 164.899414062 768.2421875 174.845703125 c 256,50,51
 768.2421875 184.7890625 768.2421875 184.7890625 757.345703125 193.55078125 c 128,-1,52
 746.446289062 202.313476562 746.446289062 202.313476562 726.829101562 208.82421875 c 128,-1,53
 707.213867188 215.3359375 707.213867188 215.3359375 681.057617188 219.005859375 c 128,-1,54
 654.90234375 222.67578125 654.90234375 222.67578125 624.388671875 222.67578125 c 256,55,56
 593.874023438 222.67578125 593.874023438 222.67578125 567.35546875 219.005859375 c 128,-1,57
 540.8359375 215.3359375 540.8359375 215.3359375 521.220703125 208.82421875 c 128,-1,58
 501.603515625 202.313476562 501.603515625 202.313476562 490.706054688 193.55078125 c 128,-1,59
 479.807617188 184.7890625 479.807617188 184.7890625 479.807617188 174.845703125 c 256,40,41
387.537109375 348.150390625 m 0,60,61
 387.537109375 364.015625 387.537109375 364.015625 405.701171875 377.986328125 c 128,-1,62
 423.864257812 391.95703125 423.864257812 391.95703125 455.83203125 402.2578125 c 128,-1,63
 487.80078125 412.557617188 487.80078125 412.557617188 531.029296875 418.477539062 c 128,-1,64
 574.2578125 424.397460938 574.2578125 424.397460938 624.388671875 424.397460938 c 256,65,66
 674.51953125 424.397460938 674.51953125 424.397460938 717.748046875 418.477539062 c 128,-1,67
 760.9765625 412.557617188 760.9765625 412.557617188 792.9453125 402.2578125 c 128,-1,68
 824.913085938 391.95703125 824.913085938 391.95703125 843.076171875 377.986328125 c 128,-1,69
 861.239257812 364.015625 861.239257812 364.015625 861.239257812 348.150390625 c 0,70,71
 861.239257812 332.522460938 861.239257812 332.522460938 843.076171875 318.670898438 c 128,-1,72
 824.913085938 304.819335938 824.913085938 304.819335938 792.9453125 294.517578125 c 128,-1,73
 760.9765625 284.217773438 760.9765625 284.217773438 717.748046875 278.1796875 c 128,-1,74
 674.51953125 272.140625 674.51953125 272.140625 624.388671875 272.140625 c 256,75,76
 574.2578125 272.140625 574.2578125 272.140625 531.029296875 278.1796875 c 128,-1,77
 487.80078125 284.217773438 487.80078125 284.217773438 455.83203125 294.517578125 c 128,-1,78
 423.864257812 304.819335938 423.864257812 304.819335938 405.701171875 318.670898438 c 128,-1,79
 387.537109375 332.522460938 387.537109375 332.522460938 387.537109375 348.150390625 c 0,60,61
479.807617188 347.9140625 m 256,80,81
 479.807617188 337.96875 479.807617188 337.96875 490.706054688 329.326171875 c 128,-1,82
 501.603515625 320.68359375 501.603515625 320.68359375 521.220703125 314.290039062 c 128,-1,83
 540.8359375 307.896484375 540.8359375 307.896484375 567.35546875 304.2265625 c 128,-1,84
 593.874023438 300.555664062 593.874023438 300.555664062 624.388671875 300.555664062 c 256,85,86
 654.90234375 300.555664062 654.90234375 300.555664062 681.057617188 304.2265625 c 128,-1,87
 707.213867188 307.896484375 707.213867188 307.896484375 726.829101562 314.290039062 c 128,-1,88
 746.446289062 320.68359375 746.446289062 320.68359375 757.345703125 329.326171875 c 128,-1,89
 768.2421875 337.96875 768.2421875 337.96875 768.2421875 347.9140625 c 256,90,91
 768.2421875 357.859375 768.2421875 357.859375 757.345703125 366.620117188 c 128,-1,92
 746.446289062 375.381835938 746.446289062 375.381835938 726.829101562 381.893554688 c 128,-1,93
 707.213867188 388.404296875 707.213867188 388.404296875 681.057617188 392.075195312 c 128,-1,94
 654.90234375 395.74609375 654.90234375 395.74609375 624.388671875 395.74609375 c 256,95,96
 593.874023438 395.74609375 593.874023438 395.74609375 567.35546875 392.075195312 c 128,-1,97
 540.8359375 388.404296875 540.8359375 388.404296875 521.220703125 381.893554688 c 128,-1,98
 501.603515625 375.381835938 501.603515625 375.381835938 490.706054688 366.620117188 c 128,-1,99
 479.807617188 357.859375 479.807617188 357.859375 479.807617188 347.9140625 c 256,80,81
387.537109375 519.646484375 m 0,100,101
 387.537109375 535.51171875 387.537109375 535.51171875 405.701171875 549.481445312 c 128,-1,102
 423.864257812 563.454101562 423.864257812 563.454101562 455.83203125 573.75390625 c 128,-1,103
 487.80078125 584.053710938 487.80078125 584.053710938 531.029296875 589.97265625 c 128,-1,104
 574.2578125 595.892578125 574.2578125 595.892578125 624.388671875 595.892578125 c 256,105,106
 674.51953125 595.892578125 674.51953125 595.892578125 717.748046875 589.97265625 c 128,-1,107
 760.9765625 584.053710938 760.9765625 584.053710938 792.9453125 573.75390625 c 128,-1,108
 824.913085938 563.454101562 824.913085938 563.454101562 843.076171875 549.481445312 c 128,-1,109
 861.239257812 535.51171875 861.239257812 535.51171875 861.239257812 519.646484375 c 0,110,111
 861.239257812 504.018554688 861.239257812 504.018554688 843.076171875 490.166015625 c 128,-1,112
 824.913085938 476.314453125 824.913085938 476.314453125 792.9453125 466.013671875 c 128,-1,113
 760.9765625 455.713867188 760.9765625 455.713867188 717.748046875 449.67578125 c 128,-1,114
 674.51953125 443.63671875 674.51953125 443.63671875 624.388671875 443.63671875 c 256,115,116
 574.2578125 443.63671875 574.2578125 443.63671875 531.029296875 449.67578125 c 128,-1,117
 487.80078125 455.713867188 487.80078125 455.713867188 455.83203125 466.013671875 c 128,-1,118
 423.864257812 476.314453125 423.864257812 476.314453125 405.701171875 490.166015625 c 128,-1,119
 387.537109375 504.018554688 387.537109375 504.018554688 387.537109375 519.646484375 c 0,100,101
479.807617188 519.41015625 m 256,120,121
 479.807617188 509.46484375 479.807617188 509.46484375 490.706054688 500.822265625 c 128,-1,122
 501.603515625 492.1796875 501.603515625 492.1796875 521.220703125 485.78515625 c 128,-1,123
 540.8359375 479.391601562 540.8359375 479.391601562 567.35546875 475.721679688 c 128,-1,124
 593.874023438 472.051757812 593.874023438 472.051757812 624.388671875 472.051757812 c 256,125,126
 654.90234375 472.051757812 654.90234375 472.051757812 681.057617188 475.721679688 c 128,-1,127
 707.213867188 479.391601562 707.213867188 479.391601562 726.829101562 485.78515625 c 128,-1,128
 746.446289062 492.1796875 746.446289062 492.1796875 757.345703125 500.822265625 c 128,-1,129
 768.2421875 509.46484375 768.2421875 509.46484375 768.2421875 519.41015625 c 256,130,131
 768.2421875 529.35546875 768.2421875 529.35546875 757.345703125 538.116210938 c 128,-1,132
 746.446289062 546.877929688 746.446289062 546.877929688 726.829101562 553.389648438 c 128,-1,133
 707.213867188 559.901367188 707.213867188 559.901367188 681.057617188 563.571289062 c 128,-1,134
 654.90234375 567.2421875 654.90234375 567.2421875 624.388671875 567.2421875 c 256,135,136
 593.874023438 567.2421875 593.874023438 567.2421875 567.35546875 563.571289062 c 128,-1,137
 540.8359375 559.901367188 540.8359375 559.901367188 521.220703125 553.389648438 c 128,-1,138
 501.603515625 546.877929688 501.603515625 546.877929688 490.706054688 538.116210938 c 128,-1,139
 479.807617188 529.35546875 479.807617188 529.35546875 479.807617188 519.41015625 c 256,120,121
EndSplineSet
EndChar

StartChar: uni0092
Encoding: 146 146 121
Width: 1209
VWidth: 2000
Flags: W
LayerCount: 2
Fore
SplineSet
387.537109375 3.5859375 m 0,0,1
 387.537109375 19.451171875 387.537109375 19.451171875 405.701171875 33.4208984375 c 128,-1,2
 423.864257812 47.3916015625 423.864257812 47.3916015625 455.83203125 57.693359375 c 128,-1,3
 487.80078125 67.9921875 487.80078125 67.9921875 531.029296875 73.912109375 c 128,-1,4
 574.2578125 79.8310546875 574.2578125 79.8310546875 624.388671875 79.8310546875 c 256,5,6
 674.51953125 79.8310546875 674.51953125 79.8310546875 717.748046875 73.912109375 c 128,-1,7
 760.9765625 67.9921875 760.9765625 67.9921875 792.9453125 57.693359375 c 128,-1,8
 824.913085938 47.3916015625 824.913085938 47.3916015625 843.076171875 33.4208984375 c 128,-1,9
 861.239257812 19.451171875 861.239257812 19.451171875 861.239257812 3.5859375 c 0,10,11
 861.239257812 -12.04296875 861.239257812 -12.04296875 843.076171875 -25.8955078125 c 128,-1,12
 824.913085938 -39.7470703125 824.913085938 -39.7470703125 792.9453125 -50.0478515625 c 128,-1,13
 760.9765625 -60.3466796875 760.9765625 -60.3466796875 717.748046875 -66.3857421875 c 128,-1,14
 674.51953125 -72.423828125 674.51953125 -72.423828125 624.388671875 -72.423828125 c 256,15,16
 574.2578125 -72.423828125 574.2578125 -72.423828125 531.029296875 -66.3857421875 c 128,-1,17
 487.80078125 -60.3466796875 487.80078125 -60.3466796875 455.83203125 -50.0478515625 c 128,-1,18
 423.864257812 -39.7470703125 423.864257812 -39.7470703125 405.701171875 -25.8955078125 c 128,-1,19
 387.537109375 -12.04296875 387.537109375 -12.04296875 387.537109375 3.5859375 c 0,0,1
479.807617188 3.3486328125 m 256,20,21
 479.807617188 -6.5966796875 479.807617188 -6.5966796875 490.706054688 -15.2392578125 c 128,-1,22
 501.603515625 -23.8818359375 501.603515625 -23.8818359375 521.220703125 -30.275390625 c 128,-1,23
 540.8359375 -36.6689453125 540.8359375 -36.6689453125 567.35546875 -40.3388671875 c 128,-1,24
 593.874023438 -44.0087890625 593.874023438 -44.0087890625 624.388671875 -44.0087890625 c 256,25,26
 654.90234375 -44.0087890625 654.90234375 -44.0087890625 681.057617188 -40.3388671875 c 128,-1,27
 707.213867188 -36.6689453125 707.213867188 -36.6689453125 726.829101562 -30.275390625 c 128,-1,28
 746.446289062 -23.8818359375 746.446289062 -23.8818359375 757.345703125 -15.2392578125 c 128,-1,29
 768.2421875 -6.5966796875 768.2421875 -6.5966796875 768.2421875 3.3486328125 c 256,30,31
 768.2421875 13.294921875 768.2421875 13.294921875 757.345703125 22.0546875 c 128,-1,32
 746.446289062 30.81640625 746.446289062 30.81640625 726.829101562 37.328125 c 128,-1,33
 707.213867188 43.8408203125 707.213867188 43.8408203125 681.057617188 47.509765625 c 128,-1,34
 654.90234375 51.1806640625 654.90234375 51.1806640625 624.388671875 51.1806640625 c 256,35,36
 593.874023438 51.1806640625 593.874023438 51.1806640625 567.35546875 47.509765625 c 128,-1,37
 540.8359375 43.8408203125 540.8359375 43.8408203125 521.220703125 37.328125 c 128,-1,38
 501.603515625 30.81640625 501.603515625 30.81640625 490.706054688 22.0546875 c 128,-1,39
 479.807617188 13.294921875 479.807617188 13.294921875 479.807617188 3.3486328125 c 256,20,21
387.537109375 175.08203125 m 0,40,41
 387.537109375 190.947265625 387.537109375 190.947265625 405.701171875 204.916992188 c 128,-1,42
 423.864257812 218.888671875 423.864257812 218.888671875 455.83203125 229.188476562 c 128,-1,43
 487.80078125 239.489257812 487.80078125 239.489257812 531.029296875 245.408203125 c 128,-1,44
 574.2578125 251.327148438 574.2578125 251.327148438 624.388671875 251.327148438 c 256,45,46
 674.51953125 251.327148438 674.51953125 251.327148438 717.748046875 245.408203125 c 128,-1,47
 760.9765625 239.489257812 760.9765625 239.489257812 792.9453125 229.188476562 c 128,-1,48
 824.913085938 218.888671875 824.913085938 218.888671875 843.076171875 204.916992188 c 128,-1,49
 861.239257812 190.947265625 861.239257812 190.947265625 861.239257812 175.08203125 c 0,50,51
 861.239257812 159.453125 861.239257812 159.453125 843.076171875 145.600585938 c 128,-1,52
 824.913085938 131.749023438 824.913085938 131.749023438 792.9453125 121.448242188 c 128,-1,53
 760.9765625 111.1484375 760.9765625 111.1484375 717.748046875 105.110351562 c 128,-1,54
 674.51953125 99.072265625 674.51953125 99.072265625 624.388671875 99.072265625 c 256,55,56
 574.2578125 99.072265625 574.2578125 99.072265625 531.029296875 105.110351562 c 128,-1,57
 487.80078125 111.1484375 487.80078125 111.1484375 455.83203125 121.448242188 c 128,-1,58
 423.864257812 131.749023438 423.864257812 131.749023438 405.701171875 145.600585938 c 128,-1,59
 387.537109375 159.453125 387.537109375 159.453125 387.537109375 175.08203125 c 0,40,41
387.537109375 348.150390625 m 0,60,61
 387.537109375 364.015625 387.537109375 364.015625 405.701171875 377.986328125 c 128,-1,62
 423.864257812 391.95703125 423.864257812 391.95703125 455.83203125 402.2578125 c 128,-1,63
 487.80078125 412.557617188 487.80078125 412.557617188 531.029296875 418.477539062 c 128,-1,64
 574.2578125 424.397460938 574.2578125 424.397460938 624.388671875 424.397460938 c 256,65,66
 674.51953125 424.397460938 674.51953125 424.397460938 717.748046875 418.477539062 c 128,-1,67
 760.9765625 412.557617188 760.9765625 412.557617188 792.9453125 402.2578125 c 128,-1,68
 824.913085938 391.95703125 824.913085938 391.95703125 843.076171875 377.986328125 c 128,-1,69
 861.239257812 364.015625 861.239257812 364.015625 861.239257812 348.150390625 c 0,70,71
 861.239257812 332.522460938 861.239257812 332.522460938 843.076171875 318.670898438 c 128,-1,72
 824.913085938 304.819335938 824.913085938 304.819335938 792.9453125 294.517578125 c 128,-1,73
 760.9765625 284.217773438 760.9765625 284.217773438 717.748046875 278.1796875 c 128,-1,74
 674.51953125 272.140625 674.51953125 272.140625 624.388671875 272.140625 c 256,75,76
 574.2578125 272.140625 574.2578125 272.140625 531.029296875 278.1796875 c 128,-1,77
 487.80078125 284.217773438 487.80078125 284.217773438 455.83203125 294.517578125 c 128,-1,78
 423.864257812 304.819335938 423.864257812 304.819335938 405.701171875 318.670898438 c 128,-1,79
 387.537109375 332.522460938 387.537109375 332.522460938 387.537109375 348.150390625 c 0,60,61
479.807617188 347.9140625 m 256,80,81
 479.807617188 337.96875 479.807617188 337.96875 490.706054688 329.326171875 c 128,-1,82
 501.603515625 320.68359375 501.603515625 320.68359375 521.220703125 314.290039062 c 128,-1,83
 540.8359375 307.896484375 540.8359375 307.896484375 567.35546875 304.2265625 c 128,-1,84
 593.874023438 300.555664062 593.874023438 300.555664062 624.388671875 300.555664062 c 256,85,86
 654.90234375 300.555664062 654.90234375 300.555664062 681.057617188 304.2265625 c 128,-1,87
 707.213867188 307.896484375 707.213867188 307.896484375 726.829101562 314.290039062 c 128,-1,88
 746.446289062 320.68359375 746.446289062 320.68359375 757.345703125 329.326171875 c 128,-1,89
 768.2421875 337.96875 768.2421875 337.96875 768.2421875 347.9140625 c 256,90,91
 768.2421875 357.859375 768.2421875 357.859375 757.345703125 366.620117188 c 128,-1,92
 746.446289062 375.381835938 746.446289062 375.381835938 726.829101562 381.893554688 c 128,-1,93
 707.213867188 388.404296875 707.213867188 388.404296875 681.057617188 392.075195312 c 128,-1,94
 654.90234375 395.74609375 654.90234375 395.74609375 624.388671875 395.74609375 c 256,95,96
 593.874023438 395.74609375 593.874023438 395.74609375 567.35546875 392.075195312 c 128,-1,97
 540.8359375 388.404296875 540.8359375 388.404296875 521.220703125 381.893554688 c 128,-1,98
 501.603515625 375.381835938 501.603515625 375.381835938 490.706054688 366.620117188 c 128,-1,99
 479.807617188 357.859375 479.807617188 357.859375 479.807617188 347.9140625 c 256,80,81
387.537109375 519.646484375 m 0,100,101
 387.537109375 535.51171875 387.537109375 535.51171875 405.701171875 549.481445312 c 128,-1,102
 423.864257812 563.454101562 423.864257812 563.454101562 455.83203125 573.75390625 c 128,-1,103
 487.80078125 584.053710938 487.80078125 584.053710938 531.029296875 589.97265625 c 128,-1,104
 574.2578125 595.892578125 574.2578125 595.892578125 624.388671875 595.892578125 c 256,105,106
 674.51953125 595.892578125 674.51953125 595.892578125 717.748046875 589.97265625 c 128,-1,107
 760.9765625 584.053710938 760.9765625 584.053710938 792.9453125 573.75390625 c 128,-1,108
 824.913085938 563.454101562 824.913085938 563.454101562 843.076171875 549.481445312 c 128,-1,109
 861.239257812 535.51171875 861.239257812 535.51171875 861.239257812 519.646484375 c 0,110,111
 861.239257812 504.018554688 861.239257812 504.018554688 843.076171875 490.166015625 c 128,-1,112
 824.913085938 476.314453125 824.913085938 476.314453125 792.9453125 466.013671875 c 128,-1,113
 760.9765625 455.713867188 760.9765625 455.713867188 717.748046875 449.67578125 c 128,-1,114
 674.51953125 443.63671875 674.51953125 443.63671875 624.388671875 443.63671875 c 256,115,116
 574.2578125 443.63671875 574.2578125 443.63671875 531.029296875 449.67578125 c 128,-1,117
 487.80078125 455.713867188 487.80078125 455.713867188 455.83203125 466.013671875 c 128,-1,118
 423.864257812 476.314453125 423.864257812 476.314453125 405.701171875 490.166015625 c 128,-1,119
 387.537109375 504.018554688 387.537109375 504.018554688 387.537109375 519.646484375 c 0,100,101
479.807617188 519.41015625 m 256,120,121
 479.807617188 509.46484375 479.807617188 509.46484375 490.706054688 500.822265625 c 128,-1,122
 501.603515625 492.1796875 501.603515625 492.1796875 521.220703125 485.78515625 c 128,-1,123
 540.8359375 479.391601562 540.8359375 479.391601562 567.35546875 475.721679688 c 128,-1,124
 593.874023438 472.051757812 593.874023438 472.051757812 624.388671875 472.051757812 c 256,125,126
 654.90234375 472.051757812 654.90234375 472.051757812 681.057617188 475.721679688 c 128,-1,127
 707.213867188 479.391601562 707.213867188 479.391601562 726.829101562 485.78515625 c 128,-1,128
 746.446289062 492.1796875 746.446289062 492.1796875 757.345703125 500.822265625 c 128,-1,129
 768.2421875 509.46484375 768.2421875 509.46484375 768.2421875 519.41015625 c 256,130,131
 768.2421875 529.35546875 768.2421875 529.35546875 757.345703125 538.116210938 c 128,-1,132
 746.446289062 546.877929688 746.446289062 546.877929688 726.829101562 553.389648438 c 128,-1,133
 707.213867188 559.901367188 707.213867188 559.901367188 681.057617188 563.571289062 c 128,-1,134
 654.90234375 567.2421875 654.90234375 567.2421875 624.388671875 567.2421875 c 256,135,136
 593.874023438 567.2421875 593.874023438 567.2421875 567.35546875 563.571289062 c 128,-1,137
 540.8359375 559.901367188 540.8359375 559.901367188 521.220703125 553.389648438 c 128,-1,138
 501.603515625 546.877929688 501.603515625 546.877929688 490.706054688 538.116210938 c 128,-1,139
 479.807617188 529.35546875 479.807617188 529.35546875 479.807617188 519.41015625 c 256,120,121
EndSplineSet
EndChar

StartChar: uni0093
Encoding: 147 147 122
Width: 1209
VWidth: 2000
Flags: W
LayerCount: 2
Fore
SplineSet
387.537109375 3.5859375 m 0,0,1
 387.537109375 19.451171875 387.537109375 19.451171875 405.701171875 33.4208984375 c 128,-1,2
 423.864257812 47.3916015625 423.864257812 47.3916015625 455.83203125 57.693359375 c 128,-1,3
 487.80078125 67.9921875 487.80078125 67.9921875 531.029296875 73.912109375 c 128,-1,4
 574.2578125 79.8310546875 574.2578125 79.8310546875 624.388671875 79.8310546875 c 256,5,6
 674.51953125 79.8310546875 674.51953125 79.8310546875 717.748046875 73.912109375 c 128,-1,7
 760.9765625 67.9921875 760.9765625 67.9921875 792.9453125 57.693359375 c 128,-1,8
 824.913085938 47.3916015625 824.913085938 47.3916015625 843.076171875 33.4208984375 c 128,-1,9
 861.239257812 19.451171875 861.239257812 19.451171875 861.239257812 3.5859375 c 0,10,11
 861.239257812 -12.04296875 861.239257812 -12.04296875 843.076171875 -25.8955078125 c 128,-1,12
 824.913085938 -39.7470703125 824.913085938 -39.7470703125 792.9453125 -50.0478515625 c 128,-1,13
 760.9765625 -60.3466796875 760.9765625 -60.3466796875 717.748046875 -66.3857421875 c 128,-1,14
 674.51953125 -72.423828125 674.51953125 -72.423828125 624.388671875 -72.423828125 c 256,15,16
 574.2578125 -72.423828125 574.2578125 -72.423828125 531.029296875 -66.3857421875 c 128,-1,17
 487.80078125 -60.3466796875 487.80078125 -60.3466796875 455.83203125 -50.0478515625 c 128,-1,18
 423.864257812 -39.7470703125 423.864257812 -39.7470703125 405.701171875 -25.8955078125 c 128,-1,19
 387.537109375 -12.04296875 387.537109375 -12.04296875 387.537109375 3.5859375 c 0,0,1
387.537109375 175.08203125 m 0,20,21
 387.537109375 190.947265625 387.537109375 190.947265625 405.701171875 204.916992188 c 128,-1,22
 423.864257812 218.888671875 423.864257812 218.888671875 455.83203125 229.188476562 c 128,-1,23
 487.80078125 239.489257812 487.80078125 239.489257812 531.029296875 245.408203125 c 128,-1,24
 574.2578125 251.327148438 574.2578125 251.327148438 624.388671875 251.327148438 c 256,25,26
 674.51953125 251.327148438 674.51953125 251.327148438 717.748046875 245.408203125 c 128,-1,27
 760.9765625 239.489257812 760.9765625 239.489257812 792.9453125 229.188476562 c 128,-1,28
 824.913085938 218.888671875 824.913085938 218.888671875 843.076171875 204.916992188 c 128,-1,29
 861.239257812 190.947265625 861.239257812 190.947265625 861.239257812 175.08203125 c 0,30,31
 861.239257812 159.453125 861.239257812 159.453125 843.076171875 145.600585938 c 128,-1,32
 824.913085938 131.749023438 824.913085938 131.749023438 792.9453125 121.448242188 c 128,-1,33
 760.9765625 111.1484375 760.9765625 111.1484375 717.748046875 105.110351562 c 128,-1,34
 674.51953125 99.072265625 674.51953125 99.072265625 624.388671875 99.072265625 c 256,35,36
 574.2578125 99.072265625 574.2578125 99.072265625 531.029296875 105.110351562 c 128,-1,37
 487.80078125 111.1484375 487.80078125 111.1484375 455.83203125 121.448242188 c 128,-1,38
 423.864257812 131.749023438 423.864257812 131.749023438 405.701171875 145.600585938 c 128,-1,39
 387.537109375 159.453125 387.537109375 159.453125 387.537109375 175.08203125 c 0,20,21
387.537109375 348.150390625 m 0,40,41
 387.537109375 364.015625 387.537109375 364.015625 405.701171875 377.986328125 c 128,-1,42
 423.864257812 391.95703125 423.864257812 391.95703125 455.83203125 402.2578125 c 128,-1,43
 487.80078125 412.557617188 487.80078125 412.557617188 531.029296875 418.477539062 c 128,-1,44
 574.2578125 424.397460938 574.2578125 424.397460938 624.388671875 424.397460938 c 256,45,46
 674.51953125 424.397460938 674.51953125 424.397460938 717.748046875 418.477539062 c 128,-1,47
 760.9765625 412.557617188 760.9765625 412.557617188 792.9453125 402.2578125 c 128,-1,48
 824.913085938 391.95703125 824.913085938 391.95703125 843.076171875 377.986328125 c 128,-1,49
 861.239257812 364.015625 861.239257812 364.015625 861.239257812 348.150390625 c 0,50,51
 861.239257812 332.522460938 861.239257812 332.522460938 843.076171875 318.670898438 c 128,-1,52
 824.913085938 304.819335938 824.913085938 304.819335938 792.9453125 294.517578125 c 128,-1,53
 760.9765625 284.217773438 760.9765625 284.217773438 717.748046875 278.1796875 c 128,-1,54
 674.51953125 272.140625 674.51953125 272.140625 624.388671875 272.140625 c 256,55,56
 574.2578125 272.140625 574.2578125 272.140625 531.029296875 278.1796875 c 128,-1,57
 487.80078125 284.217773438 487.80078125 284.217773438 455.83203125 294.517578125 c 128,-1,58
 423.864257812 304.819335938 423.864257812 304.819335938 405.701171875 318.670898438 c 128,-1,59
 387.537109375 332.522460938 387.537109375 332.522460938 387.537109375 348.150390625 c 0,40,41
479.807617188 347.9140625 m 256,60,61
 479.807617188 337.96875 479.807617188 337.96875 490.706054688 329.326171875 c 128,-1,62
 501.603515625 320.68359375 501.603515625 320.68359375 521.220703125 314.290039062 c 128,-1,63
 540.8359375 307.896484375 540.8359375 307.896484375 567.35546875 304.2265625 c 128,-1,64
 593.874023438 300.555664062 593.874023438 300.555664062 624.388671875 300.555664062 c 256,65,66
 654.90234375 300.555664062 654.90234375 300.555664062 681.057617188 304.2265625 c 128,-1,67
 707.213867188 307.896484375 707.213867188 307.896484375 726.829101562 314.290039062 c 128,-1,68
 746.446289062 320.68359375 746.446289062 320.68359375 757.345703125 329.326171875 c 128,-1,69
 768.2421875 337.96875 768.2421875 337.96875 768.2421875 347.9140625 c 256,70,71
 768.2421875 357.859375 768.2421875 357.859375 757.345703125 366.620117188 c 128,-1,72
 746.446289062 375.381835938 746.446289062 375.381835938 726.829101562 381.893554688 c 128,-1,73
 707.213867188 388.404296875 707.213867188 388.404296875 681.057617188 392.075195312 c 128,-1,74
 654.90234375 395.74609375 654.90234375 395.74609375 624.388671875 395.74609375 c 256,75,76
 593.874023438 395.74609375 593.874023438 395.74609375 567.35546875 392.075195312 c 128,-1,77
 540.8359375 388.404296875 540.8359375 388.404296875 521.220703125 381.893554688 c 128,-1,78
 501.603515625 375.381835938 501.603515625 375.381835938 490.706054688 366.620117188 c 128,-1,79
 479.807617188 357.859375 479.807617188 357.859375 479.807617188 347.9140625 c 256,60,61
387.537109375 519.646484375 m 0,80,81
 387.537109375 535.51171875 387.537109375 535.51171875 405.701171875 549.481445312 c 128,-1,82
 423.864257812 563.454101562 423.864257812 563.454101562 455.83203125 573.75390625 c 128,-1,83
 487.80078125 584.053710938 487.80078125 584.053710938 531.029296875 589.97265625 c 128,-1,84
 574.2578125 595.892578125 574.2578125 595.892578125 624.388671875 595.892578125 c 256,85,86
 674.51953125 595.892578125 674.51953125 595.892578125 717.748046875 589.97265625 c 128,-1,87
 760.9765625 584.053710938 760.9765625 584.053710938 792.9453125 573.75390625 c 128,-1,88
 824.913085938 563.454101562 824.913085938 563.454101562 843.076171875 549.481445312 c 128,-1,89
 861.239257812 535.51171875 861.239257812 535.51171875 861.239257812 519.646484375 c 0,90,91
 861.239257812 504.018554688 861.239257812 504.018554688 843.076171875 490.166015625 c 128,-1,92
 824.913085938 476.314453125 824.913085938 476.314453125 792.9453125 466.013671875 c 128,-1,93
 760.9765625 455.713867188 760.9765625 455.713867188 717.748046875 449.67578125 c 128,-1,94
 674.51953125 443.63671875 674.51953125 443.63671875 624.388671875 443.63671875 c 256,95,96
 574.2578125 443.63671875 574.2578125 443.63671875 531.029296875 449.67578125 c 128,-1,97
 487.80078125 455.713867188 487.80078125 455.713867188 455.83203125 466.013671875 c 128,-1,98
 423.864257812 476.314453125 423.864257812 476.314453125 405.701171875 490.166015625 c 128,-1,99
 387.537109375 504.018554688 387.537109375 504.018554688 387.537109375 519.646484375 c 0,80,81
479.807617188 519.41015625 m 256,100,101
 479.807617188 509.46484375 479.807617188 509.46484375 490.706054688 500.822265625 c 128,-1,102
 501.603515625 492.1796875 501.603515625 492.1796875 521.220703125 485.78515625 c 128,-1,103
 540.8359375 479.391601562 540.8359375 479.391601562 567.35546875 475.721679688 c 128,-1,104
 593.874023438 472.051757812 593.874023438 472.051757812 624.388671875 472.051757812 c 256,105,106
 654.90234375 472.051757812 654.90234375 472.051757812 681.057617188 475.721679688 c 128,-1,107
 707.213867188 479.391601562 707.213867188 479.391601562 726.829101562 485.78515625 c 128,-1,108
 746.446289062 492.1796875 746.446289062 492.1796875 757.345703125 500.822265625 c 128,-1,109
 768.2421875 509.46484375 768.2421875 509.46484375 768.2421875 519.41015625 c 256,110,111
 768.2421875 529.35546875 768.2421875 529.35546875 757.345703125 538.116210938 c 128,-1,112
 746.446289062 546.877929688 746.446289062 546.877929688 726.829101562 553.389648438 c 128,-1,113
 707.213867188 559.901367188 707.213867188 559.901367188 681.057617188 563.571289062 c 128,-1,114
 654.90234375 567.2421875 654.90234375 567.2421875 624.388671875 567.2421875 c 256,115,116
 593.874023438 567.2421875 593.874023438 567.2421875 567.35546875 563.571289062 c 128,-1,117
 540.8359375 559.901367188 540.8359375 559.901367188 521.220703125 553.389648438 c 128,-1,118
 501.603515625 546.877929688 501.603515625 546.877929688 490.706054688 538.116210938 c 128,-1,119
 479.807617188 529.35546875 479.807617188 529.35546875 479.807617188 519.41015625 c 256,100,101
EndSplineSet
EndChar

